<svg xmlns="http://www.w3.org/2000/svg" width="169" height="30" viewBox="0 0 169 30">
    <g fill="#FFF" fill-rule="evenodd">
        <path d="M11.12 3.184l9.723 18.839c1.397 2.706.296 5.958-2.444 7.34l-.208.1c-2.892 1.318-6.43.126-7.861-2.647L.606 7.977C-.79 5.271.31 2.018 3.05.637l.209-.1C6.15-.78 9.687.412 11.12 3.185zM70.396 6.99c2.58 0 4.729.863 6.138 2.315 1.314 1.361 1.983 3.22 1.983 5.308 0 2.154-.764 4.128-2.197 5.488-1.457 1.384-3.464 2.224-5.924 2.224-2.317 0-4.228-.635-5.614-1.815-1.624-1.383-2.508-3.402-2.508-5.716 0-2.2.812-4.173 2.27-5.58 1.432-1.384 3.44-2.224 5.852-2.224zm57.546 0c2.055 0 3.465.34 4.73.75l-.047 2.813c-1.29-.636-2.7-1.044-4.276-1.044-4.18 0-5.781 2.404-5.781 5.036 0 2.88 1.983 5.285 5.255 5.285.908 0 1.744-.136 2.318-.363v-5.013h3.271v6.396c-1.648.84-3.821 1.475-6.425 1.475-4.992 0-7.978-3.357-7.978-7.553 0-4.355 3.559-7.782 8.933-7.782zM45.7 7.172l3.201 7.94c.406.975.764 1.928 1.075 2.767h.048c.263-.817.62-1.679 1.05-2.676l3.56-8.031h3.344l-6.975 15.04h-2.436l-6.45-15.04H45.7zm40.675-.022l2.388 4.174c.383.635.836 1.474 1.17 2.155h.048c.335-.68.764-1.475 1.123-2.11l2.412-4.22h3.416l-5.446 9.074V22.1h-3.273v-5.921L82.767 7.15h3.608zm21.521-.069l6.425 15.017h-3.512l-1.527-3.651h-5.352l-1.456 3.651h-3.225l6.162-15.017h2.485zm41.592.07l-.86 2.54h-4.992v3.493h5.016v2.562h-5.016v3.81h5.828v2.542h-9.1V7.151h9.124zm11.179 0c4.204 0 5.733 1.972 5.733 4.287 0 1.95-1.41 3.266-2.867 3.878v.023c.788.431 2.317 2.948 4.681 6.759h-3.726c-2.388-3.879-3.343-5.557-3.917-5.76h-1.218v5.76h-3.273V7.15h4.587zM70.396 9.53c-2.723 0-4.706 1.884-4.706 5.15 0 3.266 1.983 5.15 4.706 5.15 2.675 0 4.658-1.884 4.658-5.15 0-3.22-1.935-5.15-4.658-5.15zm36.234 1.679h-.025c-.096.499-.31 1.111-.572 1.792l-1.17 2.949h3.414l-1.074-2.903c-.263-.75-.478-1.362-.573-1.838zm54.108-1.474h-1.385v4.332h1.385c1.386 0 2.413-.998 2.413-2.29 0-1.157-.86-2.042-2.413-2.042zM31.536 5.924c0 3.272-2.64 5.925-5.896 5.925s-5.896-2.653-5.896-5.925c0-3.271 2.64-5.923 5.896-5.923 3.257 0 5.896 2.652 5.896 5.923"/>
    </g>
</svg>
