<svg xmlns="http://www.w3.org/2000/svg" width="16" height="16" viewBox="0 0 16 16">
    <path fill-rule="evenodd" d="M3.633 15.987V5.207H.203V16h3.43v-.013zM1.912 3.723c1.195 0 1.948-.817 1.948-1.861C3.836.805 3.119 0 1.948 0 .765 0 0 .805 0 1.862c0 1.044.74 1.861 1.9 1.861h.012zm3.62 12.264h3.43V9.962c0-.314.024-.629.12-.88.238-.63.8-1.308 1.744-1.308 1.243 0 1.745 1.006 1.745 2.452V16H16V9.811c0-3.32-1.697-4.868-3.943-4.868-1.852 0-2.665 1.082-3.119 1.824h.024v-1.56h-3.43c.048 1.007 0 10.793 0 10.793v-.013z"/>
</svg>
