<svg xmlns="http://www.w3.org/2000/svg" width="20" height="16" viewBox="0 0 20 16">
    <path d="M19.96 1.905c-.737.32-1.524.537-2.353.636.845-.501 1.495-1.291 1.802-2.233-.792.455-1.67.786-2.606.97C16.057.493 14.993 0 13.811 0c-2.264 0-4.1 1.807-4.1 4.033 0 .32.038.627.106.922C6.41 4.797 3.388 3.185 1.367.75 1.01 1.343.812 2.03.812 2.78c0 1.403.725 2.636 1.823 3.36-.673-.021-1.305-.203-1.857-.505v.05c0 1.956 1.411 3.588 3.288 3.96-.344.09-.707.14-1.08.14-.261 0-.512-.025-.763-.071.526 1.602 2.038 2.77 3.837 2.803-1.4 1.081-3.174 1.726-5.085 1.726-.325 0-.65-.019-.975-.055C1.824 15.332 3.973 16 6.297 16c7.545 0 11.666-6.148 11.666-11.472 0-.171 0-.344-.013-.516.8-.565 1.5-1.28 2.05-2.09l-.04-.017z"/>
</svg>
