<?xml version="1.0" encoding="utf-8"?><svg xmlns="http://www.w3.org/2000/svg" xmlns:xlink="http://www.w3.org/1999/xlink"><symbol viewBox="0 0 8.81 7.65" id="arrow_left" xmlns="http://www.w3.org/2000/svg"><defs><style>.acls-1{fill:#47495a}</style></defs><path id="aПрямоугольник_скругл._углы2058" data-name="Прямоугольник, скругл. углы2058" class="acls-1" d="M3771.71 1322.46a1.008 1.008 0 0 1 0 1.42l-2.83 2.83a1 1 0 0 1-1.42-1.42l2.83-2.83a1.008 1.008 0 0 1 1.42 0zm-2.83 2.83l2.83 2.83a1 1 0 0 1-1.42 1.41l-2.83-2.82a1 1 0 0 1 1.42-1.42zm.12-.29h6a1 1 0 0 1 0 2h-6a1 1 0 0 1 0-2z" transform="translate(-3767.19 -1322.19)"/></symbol><symbol viewBox="0 0 9.438 7.875" id="arrow_thin" xmlns="http://www.w3.org/2000/svg"><defs><style>.bcls-1{fill:#6b7c93;fill-rule:evenodd}</style></defs><path id="barrow_thin" class="bcls-1" d="M172.742 240.793l.707.706-3.951 3.95-.707-.707zm-3.242-3.243l3.951 3.949-.707.708-3.951-3.95zM164 241h9v1h-9v-1z" transform="translate(-164 -237.563)"/></symbol><symbol viewBox="0 0 12.719 12.719" id="close" xmlns="http://www.w3.org/2000/svg"><defs><style>.ccls-1{fill:#dde4eb;fill-rule:evenodd}</style></defs><path id="cclose" class="ccls-1" d="M54.413 198l4.657 4.657a1 1 0 0 1-1.414 1.415L53 199.414l-4.656 4.657a1 1 0 0 1-1.415-1.415L51.584 198l-4.657-4.657a1 1 0 1 1 1.415-1.414L53 196.585l4.657-4.657a1 1 0 1 1 1.414 1.414z" transform="translate(-46.656 -191.656)"/></symbol><symbol viewBox="0 0 28.469 28.469" id="close_popup" xmlns="http://www.w3.org/2000/svg"><defs><style>.dcls-1{fill:#a4b0c1;fill-rule:evenodd}</style></defs><path id="dBig_close" class="dcls-1" d="M63.62 235.5l11.667 11.667a1.5 1.5 0 0 1-2.121 2.122L61.5 237.62l-11.669 11.668a1.5 1.5 0 0 1-2.121-2.122L59.378 235.5 47.71 223.832a1.5 1.5 0 0 1 2.121-2.121L61.5 233.378l11.668-11.667a1.5 1.5 0 0 1 2.121 2.121z" transform="translate(-47.281 -221.281)"/></symbol><symbol viewBox="0 0 15.9 7.44" id="difference_down" xmlns="http://www.w3.org/2000/svg"><defs><style>.ecls-1{fill:#a4b0c1;fill-rule:evenodd}</style></defs><path id="eПрямоугольник_1634" data-name="Прямоугольник 1634" class="ecls-1" d="M1066.87 1403.32l5.65 5.65-.7.71-5.66-5.66zm9.19.7l.71.71-4.95 4.95-.71-.71zm0 0l5.66 5.66-.71.71-5.66-5.66zm4.95 2.13l1.06 4.59-4.6-1.06z" transform="translate(-1066.16 -1403.31)"/></symbol><symbol viewBox="0 0 16 7" id="difference_up" xmlns="http://www.w3.org/2000/svg"><defs><style>.fcls-1{fill:#a4b0c1;fill-rule:evenodd}</style></defs><path id="fПрямоугольник_1634" data-name="Прямоугольник 1634" class="fcls-1" d="M1539.71 1529.99l5.69-5.32-.71-.67-5.69 5.33zm9.25-.66l.71-.67-4.98-4.66-.71.67zm0 0l5.69-5.33-.71-.66-5.69 5.32zm4.98-2l1.07-4.32-4.63.99z" transform="translate(-1539 -1523)"/></symbol><symbol viewBox="0 0 48 40" id="forum_category1" xmlns="http://www.w3.org/2000/svg"><defs><style>.gcls-1{fill:#f6f9fc;fill-rule:evenodd}</style></defs><path id="gwl_icon" data-name="wl icon" class="gcls-1" d="M618.835 567.259a6.242 6.242 0 0 1 1.768-5.937 6.649 6.649 0 0 1 4.56-1.893h2.589c.8 0 1.961-1.056 2.325-2.471l.072-.282a.92.92 0 0 1 1.114-.648.891.891 0 0 1 .666 1.084l-.072.281c-.552 2.143-2.355 3.823-4.105 3.823h-2.589a4.822 4.822 0 0 0-3.255 1.361c-1.214 1.2-1.555 2.4-1.256 4.429l1.182 8.027a.9.9 0 0 1-.777 1.011.976.976 0 0 1-.132.009.91.91 0 0 1-.907-.766zm7.687 3.127a42.085 42.085 0 0 1-.067-2.546.918.918 0 0 0-1.836-.009 56.237 56.237 0 0 0 .391 6.352.91.91 0 0 0 .912.8h.1a.9.9 0 0 0 .814-.983c-.05-.457-.1-.936-.147-1.435a7.628 7.628 0 0 0 2.769.489 5.844 5.844 0 0 0 4.428-1.611.877.877 0 0 0-.141-1.256.934.934 0 0 0-1.29.138 4.164 4.164 0 0 1-3 .942 4.367 4.367 0 0 1-2.933-.881zm13.823 2.661a5.848 5.848 0 0 0 4.429-1.611.9.9 0 0 0 .2-.5l.042-.638c.057-.8.114-1.635.11-2.463a.906.906 0 0 0-.918-.889.905.905 0 0 0-.912.9c0 .763-.052 1.561-.106 2.333l-.022.319a4.656 4.656 0 0 1-2.818.768 4.165 4.165 0 0 1-3-.942.935.935 0 0 0-1.291-.138.879.879 0 0 0-.14 1.256 5.844 5.844 0 0 0 4.426 1.605zm-23.759 2.359a.891.891 0 0 0 .656 1.09.922.922 0 0 0 .232.029.913.913 0 0 0 .887-.668 5.6 5.6 0 0 0-2.328-5.608 3.712 3.712 0 0 0-.323-.217l.227-.914a.892.892 0 0 0-.675-1.078.917.917 0 0 0-1.108.658l-.16.644a17.814 17.814 0 0 0-1.842-.351l-.208-.031.805-4.906.214.033a7.43 7.43 0 0 1 3.047.911.933.933 0 0 0 1.286-.166.877.877 0 0 0-.169-1.252 8.766 8.766 0 0 0-3.88-1.258 9.488 9.488 0 0 1-.987-.18.941.941 0 0 0-.754.1.891.891 0 0 0-.418.617l-1.094 6.669a.89.89 0 0 0 .639 1 9.792 9.792 0 0 0 1.237.236 7.446 7.446 0 0 1 3.042.908 3.922 3.922 0 0 1 1.674 3.734zm21.271-18.014c.551 2.144 2.355 3.824 4.105 3.824h2.589a4.817 4.817 0 0 1 3.255 1.361c1.214 1.2 1.554 2.4 1.255 4.429l-.589 4a.9.9 0 0 0 .778 1.011.976.976 0 0 0 .132.009.908.908 0 0 0 .906-.767l.59-4a6.241 6.241 0 0 0-1.767-5.937 6.649 6.649 0 0 0-4.56-1.893h-2.589c-.8 0-1.961-1.057-2.325-2.471l-.073-.281a.918.918 0 0 0-1.113-.649.889.889 0 0 0-.666 1.083zm5.009 27.27a.9.9 0 0 0-.9.914 28.693 28.693 0 0 0 .644 5.511.912.912 0 0 0 .9.707.973.973 0 0 0 .193-.02.894.894 0 0 0 .706-1.06 26.856 26.856 0 0 1-.6-5.18.908.908 0 0 0-.943-.872zm3.644 3.82a.922.922 0 0 0-1.148.589.89.89 0 0 0 .606 1.118c2.124.64 2.584 1.254 2.584 1.372 0 .153-.637.927-3.58 1.642a50.891 50.891 0 0 1-20.2 0c-2.944-.715-3.581-1.489-3.581-1.642 0-.118.46-.732 2.584-1.372a.889.889 0 0 0 .606-1.118.923.923 0 0 0-1.149-.589c-2.572.775-3.876 1.811-3.876 3.079 0 1.438 1.672 2.573 4.971 3.375a52.674 52.674 0 0 0 21.087 0c3.3-.8 4.97-1.937 4.97-3.375.003-1.268-1.301-2.304-3.874-3.079zm-25.775-2.658l.152-.021 32.815-4.659a.9.9 0 0 0 .776-1.013.915.915 0 0 0-1.041-.755l-2.107.3-.011-.509a.917.917 0 0 0-1.834.037l.015.732-5.634.8-.011-.51a.907.907 0 0 0-.917-.874h-.02a.905.905 0 0 0-.9.912l.018.736-5.634.8-.011-.51a.907.907 0 0 0-.917-.874h-.02a.9.9 0 0 0-.9.912l.015.731-5.634.8-.011-.509a.918.918 0 0 0-1.835.038l.016.731-5.634.8-.011-.509a.918.918 0 0 0-1.835.038l.015.712c-2.64.261-3.729-.22-4.435-1.807-.6-1.355-1.165-4.056-.6-5.4a.959.959 0 0 1 .541-.6.886.886 0 0 0 .506-1.164.925.925 0 0 0-1.194-.493 2.8 2.8 0 0 0-1.551 1.576c-.884 2.1.032 5.476.614 6.784 1.049 2.357 2.941 2.949 4.958 2.949a16.414 16.414 0 0 0 2.2-.176zm36.109-8.566a36.02 36.02 0 0 1-.317-.745c-.907-2.264-2.622-3.449-4.585-3.17l-35.4 5.025a.9.9 0 0 0-.775 1.013.913.913 0 0 0 1.039.755l35.4-5.026c1.526-.217 2.335 1.364 2.612 2.053.1.244.213.509.335.791.482 1.112 1.211 2.793.95 3.652-.281.922-1.605 1.335-3 1.773-1.781.556-3.8 1.186-4.139 3.2a.9.9 0 0 0 .756 1.026.967.967 0 0 0 .15.012.909.909 0 0 0 .9-.748c.148-.871 1.19-1.256 2.89-1.787s3.645-1.139 4.2-2.966c.451-1.475-.36-3.351-1.016-4.858zm-30.976 9.779a25.657 25.657 0 0 1-.531 3.677.912.912 0 0 0 .9 1.08.913.913 0 0 0 .9-.707 27.644 27.644 0 0 0 .567-3.922.9.9 0 0 0-.849-.955.911.911 0 0 0-.987.827zm8.087 1.147v.372a.918.918 0 0 0 1.835 0v-.372a.918.918 0 0 0-1.835 0z" transform="translate(-610 -556)"/></symbol><symbol viewBox="0 0 28 40" id="forum_category2" xmlns="http://www.w3.org/2000/svg"><defs><style>.hcls-1{fill:#f6f9fc;fill-rule:evenodd}</style></defs><path id="hdiet_icon" data-name="diet icon" class="hcls-1" d="M914.549 558.177a.884.884 0 0 1 .361-1.244 2.6 2.6 0 0 1 4.207 1.88 11.966 11.966 0 0 1 9.39-.439.9.9 0 0 1 .541 1.185.99.99 0 0 1-1.258.51 9.907 9.907 0 0 0-8.28.624 3.783 3.783 0 0 0 .536 1.507.877.877 0 0 1-.1 1.287 1.01 1.01 0 0 1-1.365-.091 6.107 6.107 0 0 1-1.1-2.983c-.136-.7-.387-2.017-.729-2.167a1.415 1.415 0 0 0-.89.272 1 1 0 0 1-1.313-.341zm11.491 5.088a.973.973 0 0 0 .89-.553.894.894 0 0 0-.508-1.2 6 6 0 0 0-3.543-.3.91.91 0 0 0-.724 1.094.97.97 0 0 0 1.161.683 3.963 3.963 0 0 1 2.343.2 1.017 1.017 0 0 0 .381.076zm1.937 2.267l.251 2.651v.036l.121 1.266a.947.947 0 0 0 .962.831h.087a.93.93 0 0 0 .878-.99l-.028-.292h1.105a.914.914 0 1 0 0-1.824h-1.277l-.174-1.837a2.106 2.106 0 0 1 .647-1.657 3.829 3.829 0 0 1 2.713-1.081h2.438a3.818 3.818 0 0 1 2.71 1.081 2.178 2.178 0 0 1 .652 1.349h-1.252a.914.914 0 1 0 0 1.824h1.106l-.231 2.437a.93.93 0 0 0 .878.99.954.954 0 0 0 1.049-.828l.374-3.953a3.84 3.84 0 0 0-1.148-3.051 5.844 5.844 0 0 0-4.138-1.673h-.034a5.4 5.4 0 0 1 2.334-3.125.882.882 0 0 0 .309-1.256 1 1 0 0 0-1.333-.292 6.931 6.931 0 0 0-2.5 2.587 6.931 6.931 0 0 0-2.5-2.587 1 1 0 0 0-1.333.292.881.881 0 0 0 .309 1.256 5.4 5.4 0 0 1 2.336 3.122h-.033a5.847 5.847 0 0 0-4.14 1.674 3.84 3.84 0 0 0-1.138 3.05zm-4.76-.7a1 1 0 0 0-1.337.275.881.881 0 0 0 .292 1.26 3.6 3.6 0 0 1 1.488 1.719.967.967 0 0 0 .9.584 1 1 0 0 0 .348-.061.9.9 0 0 0 .556-1.179 5.438 5.438 0 0 0-2.247-2.594zm-9.227 5h.065a.93.93 0 0 0 .9-.969 8.4 8.4 0 0 1 1.446-5.327.882.882 0 0 0-.3-1.26 1.006 1.006 0 0 0-1.337.279 10.129 10.129 0 0 0-1.744 6.427.946.946 0 0 0 .97.859zm27 2.27v22.977a.941.941 0 0 1-.967.912h-26.04a.941.941 0 0 1-.968-.912v-22.968a.941.941 0 0 1 .968-.912h.3a.981.981 0 0 1 .83.443 1.266 1.266 0 0 0 2.094 0 .981.981 0 0 1 .83-.443h.574a.982.982 0 0 1 .83.443 1.266 1.266 0 0 0 2.094 0 .983.983 0 0 1 .83-.442h.6a.978.978 0 0 1 .829.443 1.267 1.267 0 0 0 2.1 0 .98.98 0 0 1 .83-.443h.573a.98.98 0 0 1 .83.443 1.267 1.267 0 0 0 2.1 0 .979.979 0 0 1 .829-.443h.6a.98.98 0 0 1 .83.443 1.266 1.266 0 0 0 2.094 0 .981.981 0 0 1 .83-.443h.574a.98.98 0 0 1 .83.443 1.267 1.267 0 0 0 2.095 0 .978.978 0 0 1 .829-.443h.3a.941.941 0 0 1 .948.911zm-1.934 1.682a3.325 3.325 0 0 1-1.209.228 3.3 3.3 0 0 0-4.327 0 3.3 3.3 0 0 0-4.351 0 3.3 3.3 0 0 0-4.328 0 3.3 3.3 0 0 0-4.351 0 3.3 3.3 0 0 0-4.328 0 3.307 3.307 0 0 1-1.207-.228v20.383h24.1v-20.374zm-19.763-8.833a.979.979 0 0 0-1.21.6 5.062 5.062 0 0 0 .057 3.353.965.965 0 0 0 .915.615 1.021 1.021 0 0 0 .315-.05.9.9 0 0 0 .6-1.159 3.343 3.343 0 0 1-.038-2.218.9.9 0 0 0-.643-1.132zm12.607 14.073a5.62 5.62 0 0 1 .6 6.347 6.246 6.246 0 0 1-5.433 3.749h-.163a6.317 6.317 0 0 1-5.349-3.648 5.617 5.617 0 0 1 .468-6.357.991.991 0 0 1 .681-.307 5.71 5.71 0 0 0 8.505-.081.99.99 0 0 1 .691.297zm-5.391 4.218a4.612 4.612 0 0 0-3.286-2.593 4.174 4.174 0 0 0 .082 4.039 4.608 4.608 0 0 0 3.285 2.592 4.169 4.169 0 0 0-.08-4.038zm4.227-2.664a4.206 4.206 0 0 0-2.6 1.648c.042.075.083.151.122.229a6.369 6.369 0 0 1 .606 4.306 5.183 5.183 0 0 0 1.881-2.144 4.166 4.166 0 0 0-.008-4.039z" transform="translate(-913 -556)"/></symbol><symbol viewBox="0 0 31.63 40.343" id="forum_category3" xmlns="http://www.w3.org/2000/svg"><defs><style>.icls-1{fill:#f6f9fc;fill-rule:evenodd}</style></defs><path id="ihc_icon" data-name="hc icon" class="icls-1" d="M1223.51 561.867a.936.936 0 0 1 0-1.871 3.165 3.165 0 0 1 3.17 3.155.931.931 0 0 1-.91.951h-.02a.94.94 0 0 1-.94-.918 1.306 1.306 0 0 0-1.3-1.317zm-11.34 9.9a.916.916 0 0 0 .66.28.936.936 0 0 0 .67-1.592c-2.84-2.885-4.32-5.394-4.29-7.256a4.844 4.844 0 0 1 8.84-2.758.953.953 0 0 0 .77.406.925.925 0 0 0 .77-.406 4.851 4.851 0 0 1 8.85 2.758c.03 1.862-1.45 4.371-4.29 7.257a.934.934 0 1 0 1.33 1.312c3.29-3.345 4.87-6.159 4.83-8.6a6.838 6.838 0 0 0-1.99-4.73 6.613 6.613 0 0 0-4.73-1.97 6.712 6.712 0 0 1-9.53 0 6.613 6.613 0 0 0-4.73 1.97 6.838 6.838 0 0 0-1.99 4.73c-.04 2.445 1.54 5.259 4.83 8.603zm18.78-13.891a.955.955 0 0 0 .6-.214l.4-.331a.934.934 0 0 0-1.19-1.441l-.4.33a.933.933 0 0 0 .59 1.66zm-26.35 2.724l-.51-.087a.935.935 0 1 0-.31 1.844l.51.087a.878.878 0 0 0 .16.013.935.935 0 0 0 .15-1.857zm26.75 10.251h-2.03a.935.935 0 0 0-.93.838 9.618 9.618 0 0 1-19.13 0 .935.935 0 0 0-.93-.838h-2.03a.935.935 0 0 0 0 1.87h1.22a11.489 11.489 0 0 0 10.37 9.413v6.191h-8.17a3.848 3.848 0 0 0 0 7.7h6.19a.944.944 0 0 0 .53-.164l4.25-2.912a.933.933 0 1 0-1.05-1.543l-4.02 2.749h-5.9a1.978 1.978 0 0 1 0-3.955h18.21a1.978 1.978 0 0 1 0 3.955h-6.19a.935.935 0 1 0 0 1.87h6.19a3.848 3.848 0 0 0 0-7.7h-8.17v-6.191a11.489 11.489 0 0 0 10.37-9.413h1.22a.935.935 0 0 0 0-1.867zm3.29-9.573a.938.938 0 0 0-1.08-.765l-.51.087a.935.935 0 0 0 .15 1.857.959.959 0 0 0 .16-.013l.51-.087a.943.943 0 0 0 .77-1.076zm-15.53 8.611a4.559 4.559 0 0 1 0 8.685.956.956 0 0 1-.29.044.94.94 0 0 1-.28-.044 4.559 4.559 0 0 1 0-8.685.94.94 0 0 1 .57.003zm-.29 1.89a2.686 2.686 0 1 0 1.59 2.452 2.672 2.672 0 0 0-1.59-2.449zm-13.12-14.447l.4.33a.931.931 0 0 0 .6.215.951.951 0 0 0 .72-.339.934.934 0 0 0-.13-1.317l-.4-.33a.934.934 0 0 0-1.19 1.444z" transform="translate(-1203 -555.688)"/></symbol><symbol viewBox="0 0 36 40" id="forum_category4" xmlns="http://www.w3.org/2000/svg"><defs><style>.jcls-1{fill:#f6f9fc;fill-rule:evenodd}</style></defs><path id="jfit_icon" data-name="fit icon" class="jcls-1" d="M1510.7 564.5a.967.967 0 0 0 .12.008.923.923 0 0 0 .43-.105 4.478 4.478 0 0 0-1.48-8.4.928.928 0 0 0-.55.1 4.478 4.478 0 0 0 1.48 8.397zm-.88-6.618a2.638 2.638 0 1 1-1.12 2.641 2.637 2.637 0 0 1 1.12-2.639zm8.24 32.195h-20.85v-14.062l2.76-2.763 1.05 1.05a.921.921 0 0 0 1.3 0 .935.935 0 0 0 0-1.3l-5.56-5.566a.915.915 0 0 0-1.29 1.3l3.21 3.217-3.03 3.032a.931.931 0 0 0-.27.65v14.5a2.961 2.961 0 0 0 .57 5.865h22.11a2.961 2.961 0 0 0 0-5.921zm0 4.084h-22.11a1.124 1.124 0 0 1 0-2.247h22.11a1.124 1.124 0 0 1 0 2.249zm-18.65-26.985a.917.917 0 0 1 1.41-1.174l.2.244c1.25 1.512 1.71 2.077 3.61 2.326 1.36.179 4.05-1.227 6.43-2.467 2.89-1.507 5.62-2.93 7.59-2.695 2.68.321 3.66 1.5 5.02 3.145l.15.186a.917.917 0 0 1-1.41 1.174l-.16-.188c-1.28-1.551-1.86-2.259-3.82-2.493-1.21-.145-3.38.879-5.49 1.963.15.432.3.893.47 1.374.39 1.165.84 2.485 1.24 3.8.11.346.2.662.3.954.56 1.809.87 2.806.54 3.8-.33.975-1.14 1.61-2.75 2.876-1.09.855-1.15 1.239-.98 6.856l.02.914a.91.91 0 0 1-.25.666.93.93 0 0 1-.66.278h-2.04a.918.918 0 1 1 0-1.836h1.09a36.723 36.723 0 0 1 .05-5.548 3.915 3.915 0 0 1 1.64-2.776 7.24 7.24 0 0 0 2.14-2.012 6.321 6.321 0 0 0-.55-2.67c-.1-.3-.2-.615-.3-.965-.39-1.28-.84-2.585-1.23-3.736-.13-.384-.26-.756-.38-1.112-2.64 1.372-5.11 2.576-6.9 2.34-2.61-.343-3.47-1.39-4.78-2.976zm29.59 13.288a.918.918 0 0 1-.92.918h-1.6a9.908 9.908 0 0 1-5.11 1.8 5.157 5.157 0 0 1-1.15-.127 6.328 6.328 0 0 1-3.92-3.178.914.914 0 1 1 1.55-.97 4.579 4.579 0 0 0 2.77 2.357c1.32.3 2.99-.216 5.1-1.574a.926.926 0 0 1 .5-.145h1.86a.918.918 0 0 1 .92.919z" transform="translate(-1493 -556)"/></symbol><symbol viewBox="0 0 18 15" id="icon_attach" xmlns="http://www.w3.org/2000/svg"><defs><style>.kcls-1{fill:#a4b0c1;fill-rule:evenodd}</style></defs><path id="kPhoto" class="kcls-1" d="M177.994 37.014h-13.989a2 2 0 0 1-2-2V27a2 2 0 0 1 2-2h3v-1a2 2 0 0 1 2-2h4a2 2 0 0 1 2 2v1h2v-1a1 1 0 1 1 2 0v1h1v10.011a2 2 0 0 1-2.011 2.003zM171 27a4 4 0 1 0 4 4 4 4 0 0 0-4-4zm0 6a2 2 0 1 1 2-2 2 2 0 0 1-2 2z" transform="translate(-162 -22)"/></symbol><symbol viewBox="0 0 17 17" id="icon_bell" xmlns="http://www.w3.org/2000/svg"><defs><style>.lcls-1{fill:#6b7c93;fill-rule:evenodd}</style></defs><path id="lBell" class="lcls-1" d="M56 41H44v-.5a1.5 1.5 0 0 1 1.5-1.5h.5v-4h.05A6.481 6.481 0 0 1 51 29.194V28.5a1.5 1.5 0 0 1 3 0v.7a6.483 6.483 0 0 1 4.95 5.8H59v4h.5a1.5 1.5 0 0 1 1.5 1.5v.5h-5zm-1.051 1a2.5 2.5 0 0 1-4.9 0h4.9z" transform="translate(-44 -27)"/></symbol><symbol viewBox="0 0 14 13" id="icon_comments" xmlns="http://www.w3.org/2000/svg"><defs><style>.mcls-1{fill:#a4b0c1;fill-rule:evenodd}</style></defs><path id="mcomment" class="mcls-1" d="M539 1062h-9a2 2 0 0 1-2-2v-7.01a2 2 0 0 1 2-2h9.989a2 2 0 0 1 2 2V1064zm-8-3h5v-1h-5v1zm8-5h-8v1h8v-1zm0 2h-8v1h8v-1z" transform="translate(-528 -1051)"/></symbol><symbol viewBox="0 0 12 14" id="icon_delete" xmlns="http://www.w3.org/2000/svg"><defs><style>.ncls-1{fill:#a4b0c1;fill-rule:evenodd}</style></defs><path id="nRounded_Rectangle_2" data-name="Rounded Rectangle 2" class="ncls-1" d="M10714 1820h-10a1 1 0 0 1 0-2h3v-2h4v2h3a1 1 0 0 1 0 2zm-2 1h2v7a2.006 2.006 0 0 1-2 2h-6a2.006 2.006 0 0 1-2-2v-7h8zm-2 6h1v-3h-1v3zm-3 0h1v-3h-1v3z" transform="translate(-10703 -1816)"/></symbol><symbol viewBox="0 0 13 13.03" id="icon_edit" xmlns="http://www.w3.org/2000/svg"><defs><style>.ocls-1{fill:#a4b0c1;fill-rule:evenodd}</style></defs><path id="oedit_fill" class="ocls-1" d="M10683.4 1821.72l-1.4 1.39-4.1-4.17 1.4-1.39a1.867 1.867 0 0 1 2.7 0l1.4 1.39a1.91 1.91 0 0 1 0 2.78zm-6.2-2.09l4.1 4.17a.892.892 0 0 1-.4.28l-6.1 5.93h-3.8V1826l6-6.12c.1-.08.1-.18.2-.25z" transform="translate(-10671 -1816.97)"/></symbol><symbol viewBox="0 0 17 16" id="icon_private" xmlns="http://www.w3.org/2000/svg"><defs><style>.pcls-1{fill:#a4b0c1;fill-rule:evenodd}</style></defs><path id="pPrivate_eye" class="pcls-1" d="M88 162.5c.012 1.4-3.806 5.5-8.5 5.5a8.68 8.68 0 0 1-2.967-.558l-1.551 2.553a1 1 0 0 1-1.732-1l1.46-2.4 1.609-2.657.005.008 2.992-4.923h-.022l1.185-1.957h.022L81.748 155a1 1 0 1 1 1.731 1l-.955 1.572c3.195 1.192 5.466 3.912 5.476 4.928zm-6.662-2.967l-3.618 5.956a3.443 3.443 0 0 0 1.78.511 3.493 3.493 0 0 0 1.835-6.468zM71 162.5c0-1.259 3.084-4.695 7.121-5.373l-5.038 8.292C71.787 164.3 71 163.115 71 162.5z" transform="translate(-71 -154.5)"/></symbol><symbol viewBox="0 0 17 11" id="icon_public" xmlns="http://www.w3.org/2000/svg"><defs><style>.qcls-1{fill:#a4b0c1;fill-rule:evenodd}</style></defs><path id="qpublic_eye" class="qcls-1" d="M53.5 168c-4.7 0-8.513-4.1-8.5-5.5.01-1.314 3.805-5.5 8.5-5.5s8.5 4.1 8.5 5.5c0 1.356-3.8 5.5-8.5 5.5zm0-9a3.5 3.5 0 1 0 3.5 3.5 3.5 3.5 0 0 0-3.5-3.5z" transform="translate(-45 -157)"/></symbol><symbol viewBox="0 0 8.531 8" id="icon_reply" xmlns="http://www.w3.org/2000/svg"><defs><style>.rcls-1{fill:#a4b0c1;fill-rule:evenodd}</style></defs><path id="rReply" class="rcls-1" d="M75.249 126.431l-2.617 2.507a.417.417 0 0 1-.214.061.49.49 0 0 1-.4-.692V127H68a1 1 0 0 1-1-1v-4a1 1 0 1 1 2 0v3h3.018v-1.311a.491.491 0 0 1 .4-.693.409.409 0 0 1 .214.062l2.617 2.507a.5.5 0 0 1 0 .866z" transform="translate(-67 -121)"/></symbol><symbol viewBox="0 0 15.25 15" id="icon_search" xmlns="http://www.w3.org/2000/svg"><defs><style>.scls-1{fill:#a4b0c1;fill-rule:evenodd}</style></defs><path id="sIcon" class="scls-1" d="M513.646 380.045a4.958 4.958 0 0 1 .008-7.076 5.134 5.134 0 0 1 7.181-.007 4.95 4.95 0 0 1-.007 7.075 5.134 5.134 0 0 1-7.182.008m12.024 3.671l-3.26-3.181a6.42 6.42 0 0 0-.5-8.635 6.672 6.672 0 0 0-9.336.008 6.443 6.443 0 0 0-.007 9.2 6.666 6.666 0 0 0 8.764.491l3.257 3.182a.773.773 0 0 0 1.08 0 .744.744 0 0 0 0-1.063" transform="translate(-510.656 -370)"/></symbol><symbol viewBox="0 0 7.6 7.657" id="remove_photo" xmlns="http://www.w3.org/2000/svg"><defs><style>.tcls-1{fill:#fff;fill-rule:evenodd;opacity:.8}</style></defs><path id="tRounded_Rectangle_1445" data-name="Rounded Rectangle 1445" class="tcls-1" d="M13856 518.312l5.7 5.657a1.223 1.223 0 0 1 0 1.414 1.106 1.106 0 0 1-1.5 0l-5.6-5.657a.995.995 0 1 1 1.4-1.414zm5.7 0a1.223 1.223 0 0 1 0 1.414l-5.7 5.657a.995.995 0 1 1-1.4-1.414l5.6-5.657a1.108 1.108 0 0 1 1.5 0z" transform="translate(-13854.3 -518.031)"/></symbol><symbol viewBox="0 0 14.969 29" id="slider_left" xmlns="http://www.w3.org/2000/svg"><defs><style>.ucls-1{fill:#f6f9fc;fill-rule:evenodd}</style></defs><path id="uBig_arrow_left_white" class="ucls-1" d="M310.55 127.6l-11.313 11.885 11.313 11.884a1.587 1.587 0 0 1 0 2.162 1.406 1.406 0 0 1-2.058 0l-12.078-12.691a2.651 2.651 0 0 1 0-2.715l12.078-12.688a1.406 1.406 0 0 1 2.058 0 1.585 1.585 0 0 1 0 2.163z" transform="translate(-296.031 -125)"/></symbol><symbol viewBox="0 0 14.938 29" id="slider_right" xmlns="http://www.w3.org/2000/svg"><defs><style>.vcls-1{fill:#f6f9fc;fill-rule:evenodd}</style></defs><path id="vBig_arrow_right_white" class="vcls-1" d="M310.582 180.873L298.5 193.562a1.405 1.405 0 0 1-2.057 0 1.583 1.583 0 0 1 0-2.161l11.313-11.885-11.313-11.885a1.583 1.583 0 0 1 0-2.161 1.405 1.405 0 0 1 2.057 0l12.079 12.688a2.651 2.651 0 0 1 .003 2.715z" transform="translate(-296.031 -165.031)"/></symbol></svg>