<?xml version="1.0" encoding="utf-8"?><svg xmlns="http://www.w3.org/2000/svg" xmlns:xlink="http://www.w3.org/1999/xlink"><symbol viewBox="0 0 7 8" id="arrow_next" xmlns="http://www.w3.org/2000/svg"><path d="M.5 0l3.835 4.025L.515 8h2.17L6.5 4.029 2.661 0H.5z"/></symbol><symbol viewBox="0 0 7 8" id="arrow_prev" xmlns="http://www.w3.org/2000/svg"><path d="M6.5 0L2.665 4.025 6.485 8h-2.17L.5 4.029 4.339 0H6.5z"/></symbol><symbol viewBox="0 0 10 4" id="arrow_select" xmlns="http://www.w3.org/2000/svg"><path fill="none" stroke="#333" stroke-width=".75" d="M1 0l4 4 4-4" opacity=".7"/></symbol><symbol viewBox="0 0 18 18" id="close" xmlns="http://www.w3.org/2000/svg"><path fill="none" d="M1 1l16 16m0-16L1 17"/></symbol><symbol viewBox="0 0 18 18" id="close_white" xmlns="http://www.w3.org/2000/svg"><path fill="none" stroke="#fff" stroke-width="1.5" d="M1 1l16 16m0-16L1 17"/></symbol><symbol viewBox="0 0 12 14" id="date_icon" xmlns="http://www.w3.org/2000/svg"><path d="M3 0v2h6V0h1v2h2v12H0V2h2V0h1zm4 10H5v2h2v-2zm-3 0H2v2h2v-2zm6-3H8v2h2V7zM7 7H5v2h2V7zM4 7H2v2h2V7zm6-3H8v2h2V4zM7 4H5v2h2V4z"/></symbol><symbol viewBox="0 0 240 36" id="logo" xmlns="http://www.w3.org/2000/svg"><path fill-rule="evenodd" d="M103.893 0c3.426 0 6.578.787 9.37 2.338 2.79 1.553 5.008 3.726 6.589 6.46l.231.413c1.428 2.63 2.15 5.585 2.15 8.789 0 3.372-.8 6.468-2.381 9.202-1.582 2.735-3.799 4.908-6.59 6.46-2.79 1.55-5.942 2.338-9.369 2.338-3.427 0-6.571-.787-9.344-2.339a17.137 17.137 0 01-6.564-6.46c-1.58-2.731-2.381-5.828-2.381-9.201 0-3.374.801-6.47 2.381-9.202 1.58-2.734 3.789-4.907 6.564-6.46C97.324.787 100.467 0 103.893 0zM52.525.202c3.66 0 6.956.769 9.796 2.286 2.842 1.52 5.076 3.65 6.64 6.334 1.565 2.684 2.358 5.771 2.358 9.178 0 3.407-.793 6.494-2.358 9.177-1.564 2.684-3.798 4.815-6.64 6.334-2.84 1.517-6.136 2.287-9.796 2.287H38.812V.202zm81.911 0l14.698 32.908L163.782.202h2.106l-15.912 35.596h-1.834L132.229.202h2.207zm54.923 0l16.419 35.596h-2.158L188.468 2.63l-15.202 33.168h-2.159L187.527.202h1.832zm-85.466 1.633c-3.047 0-5.842.708-8.307 2.102a15.5 15.5 0 00-5.858 5.804c-1.423 2.457-2.145 5.236-2.145 8.259 0 3.023.722 5.803 2.145 8.258a15.503 15.503 0 005.858 5.805c2.465 1.394 5.26 2.101 8.307 2.101 3.047 0 5.85-.707 8.333-2.102a15.447 15.447 0 005.883-5.804c1.423-2.457 2.145-5.235 2.145-8.258 0-3.022-.722-5.8-2.145-8.259a15.46 15.46 0 00-5.883-5.804c-2.482-1.394-5.286-2.102-8.333-2.102zm-51.468.202H40.792v31.926h11.633c3.383 0 6.381-.692 8.913-2.053 2.531-1.361 4.518-3.271 5.907-5.677 1.39-2.407 2.094-5.176 2.094-8.233 0-3.056-.705-5.827-2.094-8.233-1.389-2.406-3.376-4.316-5.907-5.677-2.533-1.362-5.532-2.053-8.913-2.053zm-31.16 14.969v1.987H0v-1.987h21.265zm218.735 0v1.987h-21.265v-1.987H240z"/></symbol><symbol viewBox="0 0 72 72" id="logo_footer" xmlns="http://www.w3.org/2000/svg"><path fill="#FFF" fill-rule="evenodd" d="M36.234 68.973V72h-.468v-3.027h.468zm1.438-.042l.132 3.025-.468.022-.132-3.025.468-.022zm-3.345 0l.469.022-.133 3.025-.468-.022.132-3.025zm-1.434-.104l.467.04-.265 3.016-.467-.04.265-3.016zm6.214 0l.264 3.016-.467.04-.263-3.016.466-.04zm-7.643-.167l.464.062-.395 3.002-.465-.063.396-3zm9.072 0l.395 3.001-.465.063-.394-3.002.464-.062zm1.42-.229l.526 2.982-.462.08-.525-2.98.461-.082zm-11.912 0l.46.081-.525 2.981-.462-.08.527-2.982zm-1.41-.29l.458.102-.655 2.955-.458-.102.656-2.955zm14.731 0l.656 2.955-.458.102-.655-2.955.457-.102zm-16.125-.352l.452.121-.784 2.924-.452-.12.784-2.925zm17.52 0l.783 2.925-.452.12-.783-2.924.452-.12zm-18.899-.411l.447.139-.91 2.887-.447-.139.91-2.887zm20.277 0l.91 2.887-.446.14-.91-2.888.446-.14zm-21.636-.474l.44.16-1.034 2.846-.441-.16 1.035-2.846zm22.995 0l1.036 2.845-.44.161-1.037-2.846.441-.16zm-24.332-.531l.433.18-1.158 2.797-.433-.18 1.158-2.797zm25.67 0l1.158 2.798-.433.18-1.158-2.799.433-.18zm-26.982-.587l.424.197-1.28 2.743-.424-.198 1.28-2.742zm28.294 0l1.279 2.742-.424.198-1.28-2.743.425-.197zm-29.58-.646l.415.216-1.397 2.684-.416-.216 1.398-2.684zm30.866 0l1.398 2.684-.416.216-1.398-2.684.416-.216zm-32.123-.701l.406.234-1.513 2.622-.406-.234 1.513-2.622zm33.38 0l1.513 2.622-.406.234-1.513-2.622.406-.234zm-34.604-.756l.395.253-1.626 2.552-.396-.252 1.627-2.553zm35.828 0l1.626 2.553-.395.252-1.626-2.552.395-.253zM35.954 5.64c5.734 0 11.012 1.329 15.69 3.947 4.679 2.62 8.412 6.29 11.095 10.905 2.682 4.62 4.041 9.837 4.041 15.508 0 5.674-1.36 10.892-4.041 15.508-2.682 4.616-6.415 8.285-11.095 10.905-4.676 2.62-9.955 3.95-15.69 3.95-5.735 0-11-1.33-15.646-3.95-4.649-2.62-8.365-6.29-11.046-10.905C6.58 46.891 5.22 41.673 5.22 36c0-5.673 1.36-10.89 4.042-15.508 2.682-4.616 6.398-8.285 11.046-10.905C24.956 6.968 30.22 5.64 35.954 5.64zm-19.06 57.237l.385.267-1.736 2.48-.384-.267 1.736-2.48zm38.21 0l1.737 2.48-.384.267-1.737-2.48.384-.267zm-19.15-56.3c-5.571 0-10.68 1.288-15.187 3.826-4.5 2.537-8.098 6.09-10.694 10.56-2.518 4.333-3.83 9.216-3.909 14.523h8.893v.937H6.163c.066 5.344 1.378 10.258 3.91 14.614 2.595 4.47 6.194 8.024 10.694 10.56 4.506 2.54 9.615 3.828 15.187 3.828 5.573 0 10.698-1.288 15.233-3.828 4.531-2.538 8.146-6.09 10.742-10.56 2.53-4.356 3.843-9.272 3.908-14.614h-8.894v-.937h8.893c-.08-5.304-1.391-10.188-3.907-14.522-2.598-4.47-6.213-8.023-10.742-10.56-4.536-2.539-9.662-3.827-15.233-3.827zM15.74 62.018l.371.285-1.842 2.401-.372-.286 1.843-2.4zm40.517 0l1.843 2.4-.372.286-1.842-2.4.371-.286zm-41.632-.91l.358.3-1.945 2.32-.359-.3 1.946-2.32zm42.747 0l1.947 2.32-.36.3-1.946-2.32.36-.3zm1.076-.955l2.045 2.233-.346.314-2.045-2.232.346-.315zm-44.898 0l.345.315-2.044 2.232-.346-.314 2.045-2.233zm45.93-1.004l2.14 2.14-.33.334-2.142-2.142.331-.332zm-46.963.002l.332.329-2.14 2.14-.332-.329 2.14-2.14zm47.95-1.046L62.7 60.15l-.316.343-2.233-2.044.317-.344zm-48.937 0l.317.344-2.232 2.044-.316-.343 2.231-2.045zm49.878-1.09l2.32 1.947-.302.359-2.32-1.947.302-.36zm-50.819 0l.302.359-2.319 1.947-.302-.36 2.319-1.946zm-.892-1.13l.285.374-2.402 1.843-.285-.374 2.402-1.842zm52.603 0l2.402 1.843-.285.374-2.402-1.843.285-.373zm.843-1.165l2.48 1.737-.27.384-2.48-1.736.27-.385zm-54.29 0l.27.385-2.48 1.736-.268-.384 2.479-1.737zm55.081-1.2l2.553 1.627-.252.395-2.553-1.627.252-.395zm-55.87 0l.252.395-2.553 1.627-.252-.395 2.553-1.627zm56.607-1.235l2.622 1.513-.234.406-2.622-1.513.234-.406zm-57.345 0l.234.406-2.621 1.513-.234-.406 2.621-1.513zm58.027-1.269l2.686 1.398-.216.418-2.685-1.399.215-.417zm-58.71 0l.217.417-2.686 1.399-.216-.418 2.686-1.398zm59.338-1.293l2.743 1.279-.197.424-2.743-1.279.197-.424zm-59.964 0l.198.424-2.745 1.28-.197-.425 2.744-1.28zm38.718-12.008l5.882 12.714h-1.591l-4.95-10.698-4.966 10.698h-1.59l5.902-12.714h1.315zm-21.185 0l4.95 10.698 4.965-10.698h1.592l-5.9 12.714h-1.316L21.96 37.715h1.591zm43.001 10.688l2.797 1.159-.179.431-2.797-1.158.18-.432zm-61.105 0l.18.432-2.797 1.158-.18-.431 2.797-1.159zm61.618-1.345l2.844 1.036-.16.44-2.845-1.037.16-.439zm-62.13 0l.16.44-2.844 1.035-.16-.439 2.843-1.036zm62.582-1.365l2.887.91-.14.446-2.888-.91.14-.446zm-63.035 0l.141.447-2.886.91-.141-.447 2.886-.91zm63.427-1.385l2.924.783-.12.454-2.924-.783.12-.454zm-63.82 0l.122.454-2.925.783-.12-.454 2.924-.783zm64.152-1.4l2.955.655-.1.458-2.955-.655.1-.458zm-64.483 0l.1.458-2.955.655-.1-.458 2.955-.655zm64.754-1.412l2.981.524-.08.462-2.982-.526.081-.46zm-65.024 0l.08.46-2.981.526-.08-.462 2.98-.524zM68.72 40.07l3 .396-.06.465-3-.395.06-.466zm-65.443 0l.061.466-3.001.395-.06-.465 3-.396zm65.59-1.43l3.015.263-.04.469-3.016-.264.04-.469zm-65.736 0l.04.468-3.015.264-.04-.469 3.015-.264zm65.82-1.437l3.023.132-.02.468-3.024-.131.02-.47zm-65.904 0l.02.469-3.024.131-.02-.468 3.024-.132zM72 35.766v.468h-3.028v-.468H72zm-68.973 0v.468H0v-.468h3.027zm44.455-13.324a6.448 6.448 0 012.441 2.429c.589 1.028.888 2.185.888 3.44 0 1.254-.298 2.41-.888 3.44a6.44 6.44 0 01-2.44 2.43c-1.024.581-2.175.875-3.424.875s-2.397-.296-3.416-.875a6.445 6.445 0 01-2.428-2.43c-.59-1.026-.888-2.183-.888-3.44 0-1.257.299-2.414.888-3.44a6.456 6.456 0 012.428-2.429c2.037-1.158 4.793-1.162 6.84 0zm-19.944-.68c1.362 0 2.58.28 3.62.836a6.14 6.14 0 012.455 2.346c.576.988.867 2.122.867 3.367 0 1.246-.291 2.38-.868 3.37a6.135 6.135 0 01-2.455 2.344c-1.035.554-2.253.835-3.62.835h-5V21.761zm44.417 12.434l.02.468-3.024.132-.02-.468 3.024-.132zm-71.911 0l3.024.132-.02.468-3.024-.132.02-.468zM44.059 23.02c-.998 0-1.91.232-2.711.69a5.015 5.015 0 00-1.892 1.891c-.46.801-.694 1.714-.694 2.71s.234 1.908.694 2.709a5.01 5.01 0 001.892 1.892c1.604.916 3.823.916 5.433 0a5.003 5.003 0 001.9-1.892c.46-.805.694-1.715.694-2.71 0-.995-.233-1.906-.693-2.709-.46-.8-1.1-1.437-1.9-1.891-.807-.458-1.723-.69-2.723-.69zm-16.521.168H23.97v10.243h3.567c1.128 0 2.117-.223 2.942-.664a4.726 4.726 0 001.892-1.803c.449-.77.676-1.663.676-2.654 0-.99-.227-1.883-.675-2.651a4.727 4.727 0 00-1.893-1.805c-.828-.44-1.818-.666-2.942-.666zM.157 32.63l3.015.264-.04.468-3.016-.263.04-.469zm71.686 0l.04.469-3.016.263-.04-.468 3.016-.264zm-.182-1.56l.061.464-3.001.396-.06-.466 3-.395zm-71.323 0l3 .394-.06.466-3-.396.06-.465zm.249-1.55l2.981.525-.08.46-2.982-.524.08-.461zm70.825 0l.08.46-2.98.526-.08-.461 2.98-.525zM.903 27.979l2.955.656-.1.457-2.955-.655.1-.457zm70.193 0l.1.458-2.955.655-.1-.457 2.955-.655zm-69.81-1.524l2.925.785-.121.454-2.924-.785.12-.454zm69.427 0l.12.454-2.924.785-.12-.454 2.924-.785zM1.737 24.951l2.886.911-.14.447-2.887-.912.14-.446zm68.526 0l.141.446-2.887.912-.141-.447 2.887-.91zm-.514-1.482l.16.44-2.845 1.033-.16-.44 2.845-1.033zm-67.5 0l2.846 1.034-.16.439-2.844-1.034.159-.439zm66.921-1.46l.18.432-2.798 1.158-.18-.432 2.798-1.159zm-66.34 0l2.796 1.158-.18.432-2.795-1.158.18-.433zm65.698-1.435l.197.424-2.743 1.28-.198-.425 2.744-1.279zm-65.057 0l2.745 1.28-.198.424-2.744-1.28.197-.424zm.704-1.405l2.685 1.397-.216.418-2.685-1.398.216-.417zm63.65 0l.215.417-2.685 1.398-.216-.418 2.685-1.397zM4.94 17.799l2.621 1.512-.234.406-2.621-1.513.234-.406zm62.12 0l.235.405-2.623 1.513-.234-.406 2.622-1.513zM5.764 16.46l2.553 1.627-.252.395-2.553-1.627.252-.395zm60.472 0l.252.395-2.553 1.627-.252-.395 2.553-1.627zm-.882-1.3l.27.384-2.48 1.736-.269-.384 2.48-1.737zm-58.71 0l2.48 1.736-.269.384-2.48-1.736.27-.385zm.937-1.262l2.402 1.843-.285.373-2.402-1.842.285-.374zm56.837 0l.285.374-2.402 1.842-.285-.373 2.402-1.843zM8.573 12.681l2.319 1.946-.302.358-2.32-1.945.302-.359zm54.854 0l.302.359-2.32 1.945-.3-.358 2.318-1.946zm-1.043-1.174l.316.344-2.232 2.046-.317-.344 2.233-2.046zm-52.768 0l2.232 2.046-.317.344L9.3 11.85l.316-.344zm51.674-1.13l.332.334-2.141 2.14-.332-.333 2.141-2.14zm-50.58.003l2.14 2.14-.331.33-2.14-2.141.33-.33zM60.148 9.3l.346.318-2.046 2.23-.346-.318 2.046-2.23zm-48.297 0l2.046 2.23-.346.317-2.045-2.23.345-.317zm1.188-1.027l1.945 2.319-.358.3-1.946-2.318.36-.301zm45.922 0l.358.3-1.946 2.319-.358-.3 1.946-2.319zm-1.232-.975l.372.285-1.843 2.401-.371-.286 1.842-2.4zm-43.46 0l1.843 2.4-.371.286-1.843-2.4.372-.286zm1.275-.92l1.735 2.479-.384.267-1.736-2.48.385-.267zm40.913 0l.384.266-1.737 2.48-.384-.267 1.737-2.48zm-1.312-.866l.395.252-1.626 2.553-.395-.252 1.626-2.553zm-38.29 0l1.626 2.553-.395.252-1.627-2.553.395-.252zm36.942-.805l.406.234-1.513 2.62-.407-.234 1.514-2.62zm-35.594 0l1.514 2.62-.407.234-1.513-2.62.406-.234zm1.382-.747l1.397 2.685-.415.216-1.398-2.685.416-.216zm32.83 0l.416.216-1.398 2.685-.416-.216 1.398-2.685zm-31.418-.686l1.28 2.745-.424.197-1.28-2.744.424-.198zm30.004 0l.425.198-1.279 2.744-.424-.197L51 3.274zm-28.56-.622l1.157 2.796-.433.18-1.158-2.797.433-.18zm27.119 0l.433.18-1.158 2.795-.433-.18 1.158-2.795zm-25.652-.56l1.035 2.844-.441.16-1.035-2.843.441-.161zm24.184 0l.441.16-1.036 2.844-.44-.16 1.035-2.844zm-22.695-.496l.91 2.886-.446.142-.91-2.886.446-.142zm21.205 0l.446.142-.91 2.886-.447-.142.91-2.886zm-19.694-.43l.784 2.924-.452.12-.784-2.923.452-.121zm18.183 0l.452.12-.783 2.925-.452-.12.783-2.925zM28.437.802l.655 2.957-.457.102L27.98.904l.457-.102zm15.126 0l.457.102-.655 2.957-.457-.102.655-2.957zM29.98.507l.526 2.981-.461.08-.526-2.98.46-.081zm12.041 0l.462.08-.526 2.982-.461-.08.525-2.982zM31.533.277l.396 3.002-.465.063-.396-3.003.465-.063zm8.933 0l.465.062-.395 3.003-.465-.063.395-3.003zm-7.371-.16l.264 3.016-.466.04-.265-3.015.467-.04zm5.81 0l.466.04-.264 3.016-.466-.04.263-3.016zM34.662.024l.133 3.025-.469.022-.132-3.025.468-.022zm2.673 0l.468.022-.131 3.025-.469-.022.132-3.025zM36.234 0v3.027h-.468V0h.468z"/></symbol><symbol viewBox="0 0 162 180" id="logo_rotate" xmlns="http://www.w3.org/2000/svg"><path fill="#546052" fill-rule="evenodd" d="M36.39 164.347l-3.317 6.801-1.052-.513 3.317-6.801 1.052.513zm3.277 1.482l-3.018 6.94-1.077-.463 3.02-6.942 1.075.465zm-7.516-3.666l1.03.562-3.614 6.652-1.028-.563 3.612-6.651zm-3.109-1.806l1.005.602-3.9 6.486-1.004-.602 3.9-6.486zm13.964 6.81l-2.713 7.065-1.093-.421 2.713-7.065 1.093.421zm-16.992-8.75l.976.647-4.177 6.311-.977-.65 4.178-6.309zm20.385 9.942l-2.401 7.175-1.114-.37 2.404-7.175 1.111.37zm3.442 1.042l-2.086 7.274-1.125-.325 2.086-7.273 1.125.324zm-26.767-13.056l.946.687-4.448 6.122-.948-.687 4.45-6.122zm-2.847-2.197l.914.731-4.71 5.923-.916-.732 4.712-5.922zm33.099 16.143l-1.766 7.359-1.141-.271 1.767-7.358 1.14.27zM17.479 151.83l.882.767-4.966 5.711-.883-.766 4.967-5.712zm39.366 19.2l-1.446 7.43-1.148-.225 1.446-7.428 1.148.223zM14.83 149.394l.851.802-5.21 5.49-.851-.802 5.21-5.49zm45.56 22.221l-1.118 7.486-1.156-.176 1.119-7.486 1.156.176zM12.296 146.84l.815.845-5.444 5.26-.815-.845 5.444-5.26zm51.671 25.201l-.79 7.53-1.168-.122.79-7.53 1.168.122zm-54.093-27.86l.777.878-5.669 5.018-.778-.878 5.67-5.018zm57.68 28.132l-.464 7.557-1.171-.072.464-7.557 1.17.072zM7.568 141.424l.737.909-5.882 4.76-.737-.909 5.882-4.76zm63.576 31.009l-.132 7.564-1.17-.02.132-7.567 1.17.023zm-65.759-33.87l.697.94-6.081 4.5-.697-.94 6.081-4.5zm69.356 33.827l.199 7.564-1.17.03-.2-7.565 1.171-.029zm-71.41-36.779l.655.97-6.274 4.235-.656-.972 6.275-4.233zm75.002 36.581l.528 7.55-1.17.082-.526-7.55 1.168-.082zM1.41 132.572l.611 1-6.453 3.953-.611-1 6.453-3.953zm80.505 39.264l.855 7.518-1.164.134-.856-7.518 1.165-.134zM105.17 21.728c12.885 6.285 23.289 15.056 30.93 26.065 7.64 11.015 12.008 23.35 12.98 36.662.962 13.32-1.7 26.533-7.916 39.276-6.219 12.75-14.992 22.984-26.077 30.418-11.084 7.432-23.493 11.585-36.88 12.344-13.38.763-26.698-2.038-39.584-8.323-12.887-6.285-23.26-15.04-30.828-26.02C.22 121.169-4.108 108.852-5.075 95.543c-.967-13.313 1.694-26.527 7.913-39.278 6.217-12.745 14.99-22.977 26.078-30.416 11.087-7.43 23.456-11.603 36.772-12.397 13.313-.79 26.598 1.993 39.482 8.277zM-.384 129.452l.572 1.021-6.618 3.67-.57-1.021 6.616-3.67zm85.857 41.875l1.184 7.474-1.156.18-1.184-7.475 1.156-.18zm18.67-147.493c-12.518-6.106-25.41-8.81-38.317-8.045-12.89.767-24.87 4.809-35.605 12.008C19.817 34.773 11.52 44.308 5.523 56.145l19.983 9.747-1.026 2.104-19.985-9.748c-5.71 12.08-8.147 24.56-7.231 37.122.933 12.89 5.124 24.818 12.457 35.45 7.34 10.645 17.408 19.138 29.928 25.245 12.523 6.108 25.45 8.83 38.424 8.092 12.963-.736 24.979-4.756 35.71-11.957 10.46-7.013 18.796-16.621 24.799-28.553l-19.986-9.748 1.026-2.104 19.983 9.746c5.633-12.005 8.04-24.418 7.136-36.914-.938-12.892-5.168-24.835-12.564-35.5-7.41-10.676-17.515-19.188-30.034-25.293zM-2.035 126.259l.521 1.049-6.771 3.375-.522-1.049 6.772-3.375zm91.041 44.404l1.51 7.414-1.148.235-1.51-7.415 1.148-.234zm-92.55-47.67l.477 1.068-6.914 3.082-.478-1.067 6.914-3.082zm96.052 46.849l1.83 7.347-1.134.28-1.83-7.346 1.134-.281zm3.464-.969l2.15 7.26-1.122.327-2.15-7.258 1.122-.329zM-4.913 119.67l.431 1.086-7.041 2.775-.432-1.086 7.042-2.775zm104.304 48.079l2.465 7.156-1.11.386-2.464-7.158 1.109-.384zM-6.134 116.285l.384 1.102-7.155 2.466-.383-1.104 7.154-2.464zm108.887 50.2l2.776 7.04-1.088.426-2.777-7.04 1.09-.425zm-109.96-53.63l.335 1.119-7.255 2.148-.334-1.12 7.255-2.147zm113.27 52.212l3.079 6.917-1.072.475-3.078-6.917 1.072-.475zm-114.19-55.694l.285 1.136-7.343 1.834-.286-1.137 7.344-1.833zm-.767-3.516l.232 1.153-7.416 1.508-.233-1.153 7.417-1.508zm118.2 57.65l3.377 6.773-1.05.526-3.378-6.773 1.05-.526zm3.17-1.695l3.668 6.62-1.025.568-3.669-6.62 1.027-.568zM-9.51 102.314l.183 1.16-7.475 1.184-.183-1.158 7.475-1.186zm125.08 57.668l3.953 6.453-1 .611-3.953-6.453 1-.611zM-9.97 98.752l.133 1.164-7.518.858-.134-1.165 7.518-.858zm128.549 59.262l4.234 6.274-.972.656-4.234-6.274.972-.656zM-10.275 95.168l.082 1.17-7.549.527-.081-1.17 7.548-.527zm131.777 60.744l4.502 6.084-.942.701-4.502-6.085.942-.7zM-10.418 91.57l.028 1.174-7.566.199-.028-1.175 7.566-.198zm134.749 62.123l4.762 5.88-.91.737-4.762-5.88.91-.737zM-10.41 87.976l-.02 1.17-7.568-.132.02-1.17 7.568.132zm100.16 15.451l-.716 35.014-3.575-1.744.602-29.463-22.882 18.597-3.577-1.745 27.192-22.1 2.956 1.441zM42.148 80.21l-.602 29.463 22.882-18.596 3.577 1.745-27.193 22.1-2.955-1.442.715-35.014 3.576 1.744zm84.91 71.143l5.015 5.668-.876.774-5.016-5.668.876-.774zM-10.247 84.385l-.07 1.168-7.552-.462.07-1.166 7.552.46zm139.93 64.507l5.255 5.445-.843.81-5.257-5.445.844-.81zM-9.924 80.802l-.119 1.163-7.527-.79.12-1.163 7.526.79zm142.117 65.518l5.492 5.208-.806.85-5.491-5.209.805-.849zM-9.443 77.24l-.173 1.157-7.482-1.12.173-1.158 7.482 1.12zm144.037 66.398l5.713 4.964-.769.888-5.712-4.964.768-.888zm-143.4-69.941l-.227 1.152-7.428-1.445.226-1.152 7.429 1.445zm145.68 67.16l5.923 4.71-.727.918-5.923-4.71.728-.919zM-8.017 70.186l-.276 1.139-7.358-1.767.276-1.139 7.358 1.767zm147.05 67.792l6.122 4.446-.686.949-6.123-4.448.687-.947zM-7.077 66.717l-.324 1.124-7.276-2.087.325-1.125 7.275 2.088zm148.138 68.291l6.31 4.177-.645.979-6.31-4.177.645-.979zM-5.988 63.288l-.372 1.111-7.177-2.4.374-1.112 7.175 2.4zm148.946 68.665l6.487 3.898-.603 1.008-6.488-3.897.604-1.009zM-4.748 59.912l-.423 1.097-7.065-2.713.423-1.096 7.065 2.712zm149.47 68.905l6.65 3.612-.559 1.03-6.65-3.61.558-1.032zM-3.363 56.592l-.469 1.075-6.939-3.018.468-1.074 6.94 3.017zm156.51 72.335l-.513 1.052-6.803-3.318.513-1.052 6.803 3.318zM-1.834 53.337l-.513 1.053-6.801-3.317.513-1.052 6.801 3.317zM112.659 72.12a16.112 16.112 0 012.822 8.132c.196 2.956-.4 5.882-1.775 8.703-1.374 2.817-3.311 5.09-5.766 6.758a16.105 16.105 0 01-8.145 2.783c-2.937.185-5.846-.417-8.652-1.786-2.805-1.368-5.062-3.291-6.717-5.71-1.656-2.43-2.595-5.162-2.794-8.119-.199-2.951.398-5.879 1.775-8.703 1.378-2.825 3.318-5.097 5.766-6.758a16.179 16.179 0 018.118-2.796c5.848-.37 12.043 2.64 15.368 7.496zM68.59 48.732c3.063 1.493 5.493 3.459 7.218 5.846 1.746 2.415 2.736 5.095 2.945 7.963.212 2.851-.375 5.718-1.74 8.518-1.366 2.8-3.264 5.027-5.643 6.618-2.387 1.598-5.108 2.468-8.086 2.579-2.935.109-5.978-.594-9.049-2.092L43 72.684l14.356-29.432zm86.18 76.618l-.47 1.075-6.938-3.018.468-1.074 6.94 3.017zM-6.816 46.54l6.65 3.611-.559 1.03-6.65-3.61.559-1.031zm111.147 23.13c-2.243-1.095-4.546-1.575-6.848-1.423-2.287.148-4.414.88-6.324 2.176-1.91 1.296-3.436 3.09-4.527 5.328-1.092 2.238-1.567 4.545-1.411 6.848a12.533 12.533 0 002.178 6.324c2.6 3.817 7.585 6.249 12.21 5.955 2.3-.142 4.433-.872 6.343-2.168 1.915-1.304 3.438-3.094 4.527-5.328 1.092-2.237 1.565-4.54 1.411-6.847a12.542 12.542 0 00-2.197-6.333c-1.31-1.913-3.115-3.437-5.362-4.533zM67.025 51.94l-8.014-3.908-11.225 23.016 8.013 3.908c2.535 1.236 5.004 1.82 7.34 1.733 2.302-.087 4.4-.756 6.228-1.98 1.851-1.237 3.34-2.994 4.425-5.22 1.086-2.227 1.554-4.481 1.39-6.698-.16-2.199-.925-4.263-2.275-6.13-1.377-1.898-3.356-3.489-5.882-4.72zm-71.87-8.796l6.486 3.898-.603 1.008-6.487-3.897.604-1.01zm161.077 78.562l-.424 1.098-7.064-2.713.423-1.096 7.065 2.711zm1.303-3.705l-.373 1.111-7.177-2.401.374-1.111 7.176 2.4zM-2.727 39.836l6.31 4.176-.646.979-6.31-4.177.646-.978zm2.257-3.21l6.124 4.447-.686.949-6.124-4.449.686-.947zm159.144 77.62l-.324 1.124-7.273-2.087.324-1.124 7.273 2.087zM1.927 33.514l5.923 4.71-.727.919-5.923-4.71.727-.919zm157.723 76.927l-.275 1.138-7.359-1.767.276-1.138 7.358 1.767zM4.46 30.509l5.71 4.969-.769.888-5.71-4.97.769-.887zm156 76.086l-.227 1.152-7.43-1.44.226-1.152 7.43 1.44zM7.12 27.624l5.487 5.21-.806.85-5.487-5.212.805-.848zm153.978 75.1l-.173 1.156-7.487-1.116.173-1.157 7.487 1.117zm.469-3.894l-.124 1.16-7.524-.794.123-1.161 7.525.795zM9.897 24.855l5.26 5.44-.84.813-5.259-5.44.839-.813zm151.97 70.058l-.071 1.168-7.555-.463.07-1.167 7.555.462zM12.801 22.21l5.012 5.668-.876.774-5.013-5.667.877-.775zm149.193 68.777l-.02 1.17-7.566-.132.02-1.17 7.566.132zM15.815 19.689l4.764 5.882-.91.737-4.764-5.882.91-.737zm3.12-2.387l4.503 6.084-.943.701-4.501-6.085.941-.7zm143.02 69.755l.028 1.174-7.567.198-.028-1.174 7.566-.198zM22.156 15.061l4.232 6.273-.972.656-4.232-6.273.972-.656zm139.583 68.08l.081 1.17-7.55.525-.082-1.17 7.55-.526zM25.475 12.957l3.953 6.453-1 .612-3.953-6.453 1-.612zM161.353 79.23l.134 1.164-7.518.858-.134-1.164 7.518-.858zm-.554-3.89l.184 1.16-7.475 1.183-.183-1.157 7.474-1.186zM28.88 11l3.667 6.62-1.025.569-3.668-6.62L28.879 11zm3.487-1.806l3.378 6.773-1.052.526-3.377-6.773 1.051-.526zm127.71 62.288l.232 1.153-7.416 1.508-.233-1.153 7.417-1.508zM35.928 7.545l3.078 6.913-1.072.475-3.077-6.912 1.07-.476zm123.255 60.116l.286 1.137-7.346 1.828-.281-1.135 7.341-1.83zm-1.057-3.782l.335 1.12-7.258 2.15-.334-1.12 7.257-2.15zM39.56 6.049l2.772 7.043-1.088.426-2.772-7.043 1.088-.426zm117.348 54.095l.38 1.11-7.158 2.465-.378-1.112 7.156-2.463zM43.251 4.715l2.463 7.155-1.106.378-2.462-7.156 1.105-.377zM155.522 56.47l.429 1.095-7.042 2.77-.428-1.095 7.041-2.77zM47 3.54l2.15 7.254-1.124.332-2.15-7.253L47 3.539zm3.794-1.006l1.83 7.343-1.135.28-1.83-7.34 1.135-.283zM153.98 52.862l.475 1.067-6.913 3.077-.477-1.067 6.915-3.077zm-1.699-3.542l.522 1.049-6.772 3.375-.521-1.049 6.771-3.375zM54.628 1.691l1.51 7.415-1.148.234-1.51-7.414 1.148-.235zm3.871-.672l1.182 7.474-1.156.18-1.183-7.475L58.5 1.02zm91.931 44.838l.57 1.021-6.619 3.67-.57-1.022 6.619-3.669zm-2-3.382l.611 1-6.45 3.954-.612-1 6.451-3.954zM62.393.512l.858 7.519-1.165.134-.858-7.52 1.165-.133zm83.892 38.676l.656.972-6.273 4.23-.656-.972 6.273-4.23zM66.305.18l.53 7.547-1.17.081-.53-7.547 1.17-.081zm3.923-.163l.198 7.563-1.17.03-.198-7.563 1.17-.03zm73.77 35.98l.697.94-6.083 4.5-.697-.94 6.083-4.5zM74.155.023l-.132 7.57-1.17-.02.132-7.57 1.17.02zm67.419 32.882l.737.91-5.882 4.766-.737-.91 5.882-4.766zM78.079.206l-.464 7.552-1.169-.072.464-7.55 1.169.07zm60.937 29.722l.776.877-5.665 5.014-.776-.877 5.665-5.014zM81.991.558l-.792 7.523-1.167-.122.79-7.524 1.169.122zm54.34 26.503l.816.845-5.445 5.254-.815-.844 5.444-5.255zM85.881 1.075l-1.117 7.482-1.16-.169L84.721.906l1.16.17zm47.645 23.239l.848.809-5.21 5.487-.846-.81 5.208-5.486zm-43.78-22.55l-1.443 7.43-1.147-.224 1.442-7.43 1.148.223zm40.857 19.927l.883.767-4.964 5.712-.883-.766 4.964-5.713zM93.58 2.62l-1.768 7.363-1.14-.271 1.77-7.363 1.138.271zm33.99 16.58l.915.73-4.713 5.928-.916-.732 4.713-5.926zM97.367 3.649l-2.085 7.275-1.124-.325 2.085-7.274 1.124.323zm27.058 13.196l.947.688-4.447 6.122-.948-.687 4.448-6.123zM101.113 4.834l-2.401 7.18-1.114-.368 2.403-7.181 1.112.369zm20.073 9.79l.975.65-4.177 6.315-.976-.65 4.178-6.315zm-16.389-8.435l-2.71 7.066-1.093-.421 2.71-7.066 1.093.42zm13.053 6.366l1.004.602-3.896 6.487-1.005-.602 3.897-6.487zm-9.426-4.857l-3.018 6.94-1.076-.462 3.017-6.943 1.077.465zm6.005 2.929l1.029.561-3.612 6.653-1.027-.563 3.61-6.651zm-2.45-1.262l-3.317 6.801-1.052-.513 3.317-6.801 1.052.513z" opacity=".2"/></symbol><symbol viewBox="0 0 72 95" id="marker" xmlns="http://www.w3.org/2000/svg"><g fill="none" fill-rule="evenodd"><circle cx="36" cy="36" r="36" fill="#697767"/><path fill="#F0F1EE" d="M36.221 67.141V70h-.442v-2.859h.442zm1.358-.04l.125 2.857-.442.021-.125-2.857.442-.02zm-3.159 0l.443.021-.125 2.857-.443-.02.125-2.857zm-1.354-.098l.44.038-.25 2.848-.44-.038.25-2.848zm5.869 0l.248 2.848-.44.038-.25-2.848.442-.038zm-7.22-.157l.44.058-.374 2.835-.439-.059.374-2.834zm8.57 0l.372 2.834-.44.059-.371-2.835.438-.058zm1.34-.216l.497 2.815-.436.076-.496-2.815.436-.076zm-11.25 0l.435.076-.497 2.815-.436-.076.498-2.815zm-1.331-.275l.432.097-.619 2.791-.432-.097.619-2.791zm13.912 0l.62 2.791-.433.097-.619-2.791.432-.097zm-15.229-.332l.427.114-.74 2.762-.428-.114.741-2.762zm16.546 0l.74 2.762-.427.114-.74-2.762.427-.114zm-17.848-.389l.421.132-.86 2.727-.421-.131.86-2.728zm19.15 0l.86 2.728-.422.131-.86-2.727.421-.132zm-20.435-.447l.417.152-.977 2.687-.417-.152.977-2.687zm21.719 0l.978 2.687-.417.152-.978-2.687.417-.152zm-22.98-.502l.408.17-1.093 2.642-.41-.169 1.094-2.643zm24.243 0l1.094 2.643-.41.17-1.093-2.643.409-.17zm-25.483-.554l.4.186-1.208 2.591-.4-.187 1.208-2.59zm26.722 0l1.208 2.59-.4.187-1.209-2.59.401-.187zm-27.937-.61l.392.204-1.32 2.535-.392-.204 1.32-2.535zm29.151 0l1.32 2.535-.392.204-1.32-2.535.392-.204zm-30.337-.662l.383.22-1.43 2.478-.383-.222 1.43-2.476zm31.524 0l1.43 2.476-.384.222-1.429-2.477.383-.221zm-32.68-.714l.373.239-1.537 2.41-.373-.238 1.536-2.41zm33.837 0l1.535 2.411-.373.239-1.535-2.411.373-.239zM35.956 7.325c5.416 0 10.401 1.256 14.82 3.729 4.418 2.474 7.943 5.94 10.478 10.298C63.786 25.716 65.07 30.643 65.07 36c0 5.36-1.284 10.287-3.816 14.647-2.533 4.359-6.059 7.824-10.479 10.299-4.416 2.475-9.402 3.73-14.819 3.73-5.416 0-10.388-1.255-14.776-3.73-4.39-2.475-7.9-5.94-10.433-10.3C8.214 46.286 6.93 41.359 6.93 36c0-5.357 1.284-10.285 3.817-14.647 2.534-4.359 6.043-7.824 10.433-10.298 4.39-2.473 9.361-3.728 14.776-3.728zm-18 54.058l.363.252-1.64 2.342-.362-.252 1.639-2.342zm36.087 0l1.64 2.342-.363.252-1.64-2.342.363-.252zM35.956 8.21c-5.261 0-10.087 1.217-14.342 3.614-4.25 2.396-7.649 5.752-10.101 9.974-2.377 4.092-3.616 8.704-3.691 13.716h8.399v.884h-8.4c.062 5.047 1.3 9.689 3.692 13.802 2.451 4.222 5.85 7.579 10.1 9.974 4.256 2.399 9.08 3.615 14.343 3.615 5.264 0 10.104-1.216 14.387-3.615 4.28-2.397 7.694-5.752 10.145-9.974 2.39-4.113 3.63-8.756 3.692-13.802h-8.4v-.884h8.399c-.076-5.01-1.315-9.623-3.69-13.716-2.454-4.222-5.868-7.577-10.146-9.974-4.284-2.397-9.125-3.614-14.387-3.614zm-19.09 52.362l.351.27-1.74 2.267-.35-.27 1.74-2.267zm38.267 0l1.74 2.268-.35.27-1.741-2.268.35-.27zm-39.32-.859l.339.284-1.837 2.191-.339-.283 1.837-2.192zm40.373 0l1.838 2.192-.339.283-1.838-2.191.339-.284zm1.016-.902l1.932 2.109-.327.297-1.932-2.109.327-.297zm-42.404 0l.326.297-1.93 2.109-.328-.297 1.932-2.109zm43.378-.948l2.022 2.021-.313.315-2.022-2.022.313-.314zm-44.353.001l.313.311-2.021 2.022-.313-.31 2.021-2.023zm45.286-.987l2.108 1.931-.299.325-2.109-1.93.3-.326zm-46.218 0l.299.325-2.108 1.93-.299-.324 2.108-1.93zm47.107-1.03l2.19 1.84-.285.338-2.19-1.839.285-.339zm-47.996 0l.284.34-2.189 1.838-.285-.339 2.19-1.839zm-.843-1.066l.27.353-2.269 1.74-.27-.353 2.269-1.74zm49.681 0l2.269 1.74-.27.353-2.269-1.74.27-.353zm.796-1.101l2.342 1.64-.254.363-2.342-1.64.254-.363zm-51.273 0l.254.363-2.342 1.64-.253-.363 2.34-1.64zm52.02-1.134l2.411 1.537-.238.373-2.41-1.536.237-.374zm-52.766 0l.238.374-2.41 1.536-.24-.373 2.412-1.537zm53.462-1.166l2.477 1.429-.222.384-2.476-1.43.221-.383zm-54.159 0l.221.384-2.475 1.429-.222-.384L8.92 51.38zm54.804-1.198l2.536 1.32-.204.395-2.536-1.321.204-.394zm-55.448 0l.203.394-2.536 1.32-.204-.394 2.537-1.32zm56.04-1.222l2.591 1.209-.186.4-2.591-1.208.187-.4zm-56.633 0l.187.401-2.59 1.209-.187-.4 2.591-1.209zm16.56-11.34l4.674 10.103 4.69-10.103h1.504l-5.573 12.007h-1.243L22.74 37.62h1.503zm20.007 0l5.556 12.007h-1.503l-4.675-10.104-4.69 10.104h-1.503l5.573-12.007h1.242zm20.605 10.094l2.642 1.094-.17.408-2.642-1.094.17-.408zm-57.71 0l.169.408-2.641 1.094-.17-.408 2.641-1.094zm58.194-1.27l2.686.978-.152.415-2.686-.978.152-.415zm-58.679 0l.153.415-2.687.978-.152-.415 2.686-.978zm59.106-1.29l2.727.86-.133.421-2.727-.859.133-.421zm-59.533 0l.133.422-2.726.86-.133-.422 2.726-.86zm59.903-1.308l2.762.74-.114.429-2.761-.74.113-.429zm-60.273 0l.114.43-2.762.739-.114-.43 2.762-.739zm60.587-1.322l2.791.619-.095.432-2.79-.619.094-.432zm-60.9 0l.094.432-2.791.619-.095-.432 2.791-.619zm61.156-1.334l2.815.496-.076.436-2.815-.497.076-.435zm-61.412 0l.076.435-2.816.497-.076-.436 2.816-.496zm61.61-1.345l2.833.374-.057.439-2.834-.374.057-.439zm-61.808 0l.057.44-2.834.373-.057-.44 2.834-.373zm61.945-1.351l2.848.249-.038.442-2.848-.249.038-.442zm-62.083 0l.038.442-2.848.25-.038-.443 2.848-.25zm62.163-1.357l2.856.125-.02.442-2.855-.124.019-.443zm-62.242 0l.019.443-2.856.124-.02-.442 2.857-.125zM70 35.779v.442h-2.86v-.442H70zm-65.141 0v.442H2v-.442h2.859zm41.986-12.584a6.092 6.092 0 012.304 2.294c.557.972.839 2.064.839 3.25 0 1.183-.281 2.276-.839 3.249a6.093 6.093 0 01-2.304 2.294c-.967.549-2.055.826-3.234.826-1.179 0-2.264-.28-3.226-.826a6.092 6.092 0 01-2.293-2.294c-.557-.97-.839-2.062-.839-3.25 0-1.187.282-2.28.839-3.249a6.114 6.114 0 012.293-2.294c1.924-1.094 4.526-1.097 6.46 0zm-18.837-.643c1.287 0 2.438.265 3.418.79a5.795 5.795 0 012.32 2.216c.543.933.819 2.004.819 3.18 0 1.177-.276 2.248-.82 3.182a5.797 5.797 0 01-2.319 2.215c-.978.523-2.128.788-3.418.788h-4.723v-12.37zm41.95 11.744l.019.442-2.856.125-.02-.442 2.857-.125zm-67.917 0l2.856.125-.019.442-2.856-.125.02-.442zm41.57-10.554c-.943 0-1.804.219-2.56.652a4.744 4.744 0 00-1.787 1.786c-.434.756-.655 1.618-.655 2.559 0 .94.22 1.802.655 2.558a4.73 4.73 0 001.786 1.787c1.515.866 3.611.866 5.132 0a4.725 4.725 0 001.795-1.787c.434-.76.655-1.62.655-2.558 0-.94-.22-1.801-.655-2.56a4.734 4.734 0 00-1.795-1.785c-.761-.433-1.626-.652-2.57-.652zm-15.603.159H24.64v9.674h3.368c1.065 0 2-.211 2.779-.627a4.475 4.475 0 001.787-1.704c.423-.727.638-1.57.638-2.505 0-.936-.215-1.78-.637-2.505a4.473 4.473 0 00-1.788-1.705c-.782-.416-1.717-.628-2.78-.628zm-25.86 8.915l2.848.25-.038.442-2.848-.249.038-.443zm67.703 0l.038.443-2.848.249-.038-.442 2.848-.25zm-.171-1.474l.057.44-2.834.373-.057-.44 2.834-.373zm-67.36 0l2.833.374-.057.439-2.834-.374.057-.439zm.234-1.463l2.816.495-.076.436-2.816-.496.076-.435zm66.891 0l.076.435-2.815.496-.076-.436 2.815-.495zM2.853 28.425l2.791.619-.095.432-2.791-.619.095-.432zm66.293 0l.095.432-2.79.619-.096-.432 2.791-.619zm-65.931-1.44l2.762.742-.114.429-2.762-.742.114-.429zm65.57 0l.113.429-2.762.742-.113-.43 2.761-.74zM3.64 25.565l2.726.86-.133.422-2.726-.86.133-.422zm64.72 0l.133.421-2.727.861-.133-.421 2.727-.86zm-.486-1.4l.15.415-2.686.976-.15-.414 2.686-.977zm-63.75 0l2.688.977-.15.414-2.688-.976.15-.415zm63.203-1.38l.17.409-2.642 1.094-.17-.408 2.642-1.094zm-62.654 0l2.64 1.095-.169.408-2.64-1.094.169-.408zm62.047-1.354l.187.4-2.59 1.209-.187-.4 2.59-1.209zm-61.441 0l2.591 1.208-.187.4-2.591-1.207.187-.401zm.664-1.327l2.536 1.32-.204.394-2.536-1.32.204-.394zm60.113 0l.204.393-2.536 1.321-.204-.394 2.536-1.32zm-59.39-1.295l2.475 1.43-.221.383-2.476-1.429.222-.384zm58.669 0l.22.384-2.476 1.43-.221-.385 2.477-1.429zM7.444 17.546l2.41 1.536-.238.374-2.41-1.537.238-.373zm57.112 0l.238.373-2.41 1.537-.239-.374 2.411-1.536zm-.832-1.23l.254.364-2.342 1.64-.254-.363 2.342-1.64zm-55.448 0l2.34 1.641-.253.363-2.342-1.64.255-.363zm.884-1.19l2.269 1.74-.27.353-2.269-1.74.27-.353zm53.679 0l.27.353-2.269 1.74-.27-.353 2.269-1.74zm-52.742-1.15l2.19 1.838-.286.339-2.189-1.837.285-.34zm51.806 0l.285.34-2.191 1.837-.284-.339 2.19-1.837zm-.985-1.108l.3.324-2.11 1.933-.298-.325 2.108-1.932zm-49.836 0l2.107 1.932-.298.325-2.108-1.933.299-.324zM59.885 11.8l.313.315-2.022 2.022-.313-.315 2.022-2.022zm-47.77.002l2.02 2.022-.312.311-2.021-2.022.313-.311zm46.692-1.02l.327.301-1.933 2.107-.326-.301 1.932-2.107zm-45.614 0l1.932 2.107-.327.299-1.931-2.107.326-.299zm1.122-.97l1.837 2.19-.339.284-1.837-2.19.339-.284zm43.37 0l.339.284-1.838 2.19-.339-.284 1.838-2.19zm-1.163-.92l.35.27-1.74 2.267-.35-.27 1.74-2.268zm-41.045 0l1.74 2.267-.35.27-1.74-2.268.35-.27zm1.203-.87l1.639 2.342-.363.252-1.64-2.342.364-.252zm38.64 0l.363.252-1.64 2.342-.363-.252 1.64-2.342zm-1.24-.817l.374.238-1.535 2.411-.374-.238 1.536-2.411zm-36.162 0l1.537 2.41-.374.24-1.536-2.412.373-.238zm34.89-.76l.384.22-1.43 2.475-.383-.221 1.43-2.475zm-33.616 0l1.43 2.474-.385.221-1.429-2.475.384-.22zm1.305-.706l1.32 2.536-.393.203-1.32-2.535.393-.204zm31.006 0l.393.204-1.32 2.535-.393-.203 1.32-2.536zm-29.672-.648l1.209 2.592-.401.187-1.209-2.592.4-.187zm28.337 0l.401.187-1.208 2.592-.4-.187 1.207-2.592zm-26.974-.588l1.093 2.641-.409.17-1.093-2.641.409-.17zm25.612 0l.41.17-1.094 2.64-.409-.169 1.093-2.64zM24.58 3.976l.977 2.685-.416.152-.978-2.685.417-.152zm22.84 0l.417.152-.978 2.685-.417-.152.978-2.685zm-21.434-.469l.86 2.726-.421.134-.86-2.725.421-.135zm20.027 0l.421.135-.86 2.725-.421-.134.86-2.726zm-18.6-.406l.74 2.762-.426.114-.74-2.762.426-.114zm17.173 0l.427.114-.74 2.762-.427-.114.74-2.762zm-15.73-.344l.62 2.793-.432.097-.619-2.793.432-.097zm14.287 0l.432.097-.619 2.793-.432-.097.62-2.793zm-12.83-.278l.497 2.815-.435.076-.497-2.815.435-.076zm11.373 0l.436.076-.497 2.815-.435-.076.496-2.815zM31.78 2.26l.374 2.836-.44.059-.373-2.836.44-.06zm8.437 0l.439.059-.373 2.836-.439-.059.373-2.836zm-6.962-.15l.25 2.848-.44.038-.25-2.848.44-.038zm5.487 0l.44.038-.248 2.848-.441-.038.249-2.848zm-4.005-.088l.125 2.856-.443.021-.125-2.857.443-.02zm2.524 0l.442.02L37.58 4.9l-.443-.02.125-2.857zM36.222 2v2.859h-.443V2h.442z"/><path fill="#697767" d="M35 72h2v23h-2z"/></g></symbol><symbol viewBox="0 0 12 12" id="plus" xmlns="http://www.w3.org/2000/svg"><path d="M1 6h10M6 1v10" fill="none" fill-rule="evenodd" stroke-linecap="square"/></symbol></svg>