<?xml version="1.0" encoding="utf-8"?><svg xmlns="http://www.w3.org/2000/svg" xmlns:xlink="http://www.w3.org/1999/xlink"><symbol viewBox="0 0 8 13" id="arrow_left" xmlns="http://www.w3.org/2000/svg"><path fill-rule="evenodd" d="M8 1.444L2.909 6.499 8 11.556 6.546 13 0 6.499 6.546 0z"/></symbol><symbol viewBox="0 0 14 14" id="arrow_link" xmlns="http://www.w3.org/2000/svg"><path fill-rule="evenodd" d="M7 0a7 7 0 110 14A7 7 0 017 0zM6 3.44L4.94 4.5 7.438 7l-2.5 2.5L6 10.56 9.56 7 6 3.44z"/></symbol><symbol viewBox="0 0 5 8" id="arrow_next" xmlns="http://www.w3.org/2000/svg"><path fill-rule="evenodd" d="M0 1.192L1.148 0 5 4 1.148 8 0 6.808 2.704 4z"/></symbol><symbol viewBox="0 0 5 8" id="arrow_prev" xmlns="http://www.w3.org/2000/svg"><path fill-rule="evenodd" d="M5 1.192L3.852 0 0 4l3.852 4L5 6.808 2.296 4z"/></symbol><symbol viewBox="0 0 7 12" id="arrow_right" xmlns="http://www.w3.org/2000/svg"><path d="M.56 1.443l.88-.886 5.447 5.408-5.447 5.409-.88-.887 4.552-4.522z"/></symbol><symbol viewBox="0 0 13 13" id="close" xmlns="http://www.w3.org/2000/svg"><path fill-rule="evenodd" d="M13 1.444L7.944 6.499 13 11.556 11.556 13 6.499 7.944 1.444 13 0 11.556l5.055-5.057L0 1.444 1.444 0l5.055 5.055L11.556 0z"/></symbol><symbol viewBox="0 0 14 14" id="languages_icon" xmlns="http://www.w3.org/2000/svg"><g fill="none" fill-rule="evenodd" stroke-width="1.25" transform="translate(1 1)"><circle cx="6" cy="6" r="6"/><ellipse cx="6" cy="6" rx="2.25" ry="6"/><path d="M0 5.25c3.314 2 8.686 2 12 0"/></g></symbol><symbol viewBox="0 0 169 30" id="logo_footer" xmlns="http://www.w3.org/2000/svg"><path d="M11.12 3.184l9.723 18.839c1.397 2.706.296 5.958-2.444 7.34l-.208.1c-2.892 1.318-6.43.126-7.861-2.647L.606 7.977C-.79 5.271.31 2.018 3.05.637l.209-.1C6.15-.78 9.687.412 11.12 3.185zM70.396 6.99c2.58 0 4.729.863 6.138 2.315 1.314 1.361 1.983 3.22 1.983 5.308 0 2.154-.764 4.128-2.197 5.488-1.457 1.384-3.464 2.224-5.924 2.224-2.317 0-4.228-.635-5.614-1.815-1.624-1.383-2.508-3.402-2.508-5.716 0-2.2.812-4.173 2.27-5.58 1.432-1.384 3.44-2.224 5.852-2.224zm57.546 0c2.055 0 3.465.34 4.73.75l-.047 2.813c-1.29-.636-2.7-1.044-4.276-1.044-4.18 0-5.781 2.404-5.781 5.036 0 2.88 1.983 5.285 5.255 5.285.908 0 1.744-.136 2.318-.363v-5.013h3.271v6.396c-1.648.84-3.821 1.475-6.425 1.475-4.992 0-7.978-3.357-7.978-7.553 0-4.355 3.559-7.782 8.933-7.782zM45.7 7.172l3.201 7.94c.406.975.764 1.928 1.075 2.767h.048c.263-.817.62-1.679 1.05-2.676l3.56-8.031h3.344l-6.975 15.04h-2.436l-6.45-15.04H45.7zm40.675-.022l2.388 4.174c.383.635.836 1.474 1.17 2.155h.048c.335-.68.764-1.475 1.123-2.11l2.412-4.22h3.416l-5.446 9.074V22.1h-3.273v-5.921L82.767 7.15h3.608zm21.521-.069l6.425 15.017h-3.512l-1.527-3.651h-5.352l-1.456 3.651h-3.225l6.162-15.017h2.485zm41.592.07l-.86 2.54h-4.992v3.493h5.016v2.562h-5.016v3.81h5.828v2.542h-9.1V7.151h9.124zm11.179 0c4.204 0 5.733 1.972 5.733 4.287 0 1.95-1.41 3.266-2.867 3.878v.023c.788.431 2.317 2.948 4.681 6.759h-3.726c-2.388-3.879-3.343-5.557-3.917-5.76h-1.218v5.76h-3.273V7.15h4.587zM70.396 9.53c-2.723 0-4.706 1.884-4.706 5.15 0 3.266 1.983 5.15 4.706 5.15 2.675 0 4.658-1.884 4.658-5.15 0-3.22-1.935-5.15-4.658-5.15zm36.234 1.679h-.025c-.096.499-.31 1.111-.572 1.792l-1.17 2.949h3.414l-1.074-2.903c-.263-.75-.478-1.362-.573-1.838zm54.108-1.474h-1.385v4.332h1.385c1.386 0 2.413-.998 2.413-2.29 0-1.157-.86-2.042-2.413-2.042zM31.536 5.924c0 3.272-2.64 5.925-5.896 5.925s-5.896-2.653-5.896-5.925c0-3.271 2.64-5.923 5.896-5.923 3.257 0 5.896 2.652 5.896 5.923" fill="#FFF" fill-rule="evenodd"/></symbol><symbol viewBox="0 0 17 14" id="mail_icon" xmlns="http://www.w3.org/2000/svg"><path fill-rule="evenodd" d="M17 3.27v8.98c0 .963-.81 1.75-1.8 1.75H1.8C.81 14 0 13.213 0 12.25V3.27l7.927 5.55.118.07c.326.167.722.143 1.029-.07L17 3.27zM15.2 0c.7 0 1.31.394 1.607.964L8.5 6.78.193.963C.491.393 1.101 0 1.8 0h13.4z"/></symbol><symbol viewBox="0 0 13 16" id="play" xmlns="http://www.w3.org/2000/svg"><path fill-rule="evenodd" d="M0 0v16l13-8z"/></symbol><symbol viewBox="0 0 12 12" id="plus" xmlns="http://www.w3.org/2000/svg"><path fill-rule="evenodd" d="M7 0l-.001 5H12v2H6.999L7 12H5l-.001-5.001L0 7V5l4.999-.001L5 0h2z"/></symbol><symbol viewBox="0 0 18 18" id="soc_fb" xmlns="http://www.w3.org/2000/svg"><path d="M18 9a9 9 0 10-10.406 8.89v-6.288H5.309V9h2.285V7.017c0-2.255 1.343-3.501 3.4-3.501.984 0 2.014.175 2.014.175v2.215h-1.135c-1.118 0-1.467.694-1.467 1.406V9h2.496l-.399 2.602h-2.097v6.289C14.71 17.215 18 13.492 18 9"/></symbol><symbol viewBox="0 0 16 16" id="soc_in" xmlns="http://www.w3.org/2000/svg"><path fill-rule="evenodd" d="M3.633 15.987V5.207H.203V16h3.43v-.013zM1.912 3.723c1.195 0 1.948-.817 1.948-1.861C3.836.805 3.119 0 1.948 0 .765 0 0 .805 0 1.862c0 1.044.74 1.861 1.9 1.861h.012zm3.62 12.264h3.43V9.962c0-.314.024-.629.12-.88.238-.63.8-1.308 1.744-1.308 1.243 0 1.745 1.006 1.745 2.452V16H16V9.811c0-3.32-1.697-4.868-3.943-4.868-1.852 0-2.665 1.082-3.119 1.824h.024v-1.56h-3.43c.048 1.007 0 10.793 0 10.793v-.013z"/></symbol><symbol viewBox="0 0 20 16" id="soc_tw" xmlns="http://www.w3.org/2000/svg"><path d="M19.96 1.905a8.387 8.387 0 01-2.353.636A4.076 4.076 0 0019.409.308a8.528 8.528 0 01-2.606.97A4.116 4.116 0 0013.811 0c-2.264 0-4.1 1.807-4.1 4.033 0 .32.038.627.106.922A11.675 11.675 0 011.367.75a3.898 3.898 0 00-.555 2.03 4.02 4.02 0 001.823 3.36 4.131 4.131 0 01-1.857-.505v.05c0 1.956 1.411 3.588 3.288 3.96a4.197 4.197 0 01-1.843.069 4.107 4.107 0 003.837 2.803 8.312 8.312 0 01-5.085 1.726A8.85 8.85 0 010 14.188 11.792 11.792 0 006.297 16c7.545 0 11.666-6.148 11.666-11.472 0-.171 0-.344-.013-.516.8-.565 1.5-1.28 2.05-2.09l-.04-.017z"/></symbol></svg>