<svg xmlns="http://www.w3.org/2000/svg" width="8.81" height="7.65" viewBox="0 0 8.81 7.65">
  <metadata><?xpacket begin="﻿" id="W5M0MpCehiHzreSzNTczkc9d"?>
<x:xmpmeta xmlns:x="adobe:ns:meta/" x:xmptk="Adobe XMP Core 5.6-c138 79.159824, 2016/09/14-01:09:01        ">
   <rdf:RDF xmlns:rdf="http://www.w3.org/1999/02/22-rdf-syntax-ns#">
      <rdf:Description rdf:about=""/>
   </rdf:RDF>
</x:xmpmeta>                    
<?xpacket end="w"?></metadata>
<defs>
    <style>
      .cls-1 {
        fill: #47495a;
      }
    </style>
  </defs>
  <path id="Прямоугольник_скругл._углы2058" data-name="Прямоугольник, скругл. углы2058" class="cls-1" d="M3771.71,1322.46a1.008,1.008,0,0,1,0,1.42l-2.83,2.83a1,1,0,0,1-1.42-1.42l2.83-2.83A1.008,1.008,0,0,1,3771.71,1322.46Zm-2.83,2.83,2.83,2.83a1,1,0,0,1-1.42,1.41l-2.83-2.82A1,1,0,0,1,3768.88,1325.29Zm0.12-.29h6a1,1,0,0,1,0,2h-6A1,1,0,0,1,3769,1325Z" transform="translate(-3767.19 -1322.19)"/>
</svg>
