<svg xmlns="http://www.w3.org/2000/svg" width="48" height="40" viewBox="0 0 48 40">
  <metadata><?xpacket begin="﻿" id="W5M0MpCehiHzreSzNTczkc9d"?>
<x:xmpmeta xmlns:x="adobe:ns:meta/" x:xmptk="Adobe XMP Core 5.6-c138 79.159824, 2016/09/14-01:09:01        ">
   <rdf:RDF xmlns:rdf="http://www.w3.org/1999/02/22-rdf-syntax-ns#">
      <rdf:Description rdf:about=""/>
   </rdf:RDF>
</x:xmpmeta>
                                                                                                    
                                                                                                    
                                                                                                    
                                                                                                    
                                                                                                    
                                                                                                    
                                                                                                    
                                                                                                    
                                                                                                    
                                                                                                    
                                                                                                    
                                                                                                    
                                                                                                    
                                                                                                    
                                                                                                    
                                                                                                    
                                                                                                    
                                                                                                    
                                                                                                    
                                                                                                    
                           
<?xpacket end="w"?></metadata>
<defs>
    <style>
      .cls-1 {
        fill: #f6f9fc;
        fill-rule: evenodd;
      }
    </style>
  </defs>
  <path id="wl_icon" data-name="wl icon" class="cls-1" d="M618.835,567.259a6.242,6.242,0,0,1,1.768-5.937,6.649,6.649,0,0,1,4.56-1.893h2.589c0.8,0,1.961-1.056,2.325-2.471l0.072-.282a0.92,0.92,0,0,1,1.114-.648,0.891,0.891,0,0,1,.666,1.084l-0.072.281c-0.552,2.143-2.355,3.823-4.105,3.823h-2.589a4.822,4.822,0,0,0-3.255,1.361c-1.214,1.2-1.555,2.4-1.256,4.429l1.182,8.027a0.9,0.9,0,0,1-.777,1.011,0.976,0.976,0,0,1-.132.009,0.91,0.91,0,0,1-.907-0.766Zm7.687,3.127c-0.045-.82-0.072-1.673-0.067-2.546a0.918,0.918,0,0,0-1.836-.009,56.237,56.237,0,0,0,.391,6.352,0.91,0.91,0,0,0,.912.8c0.032,0,.065,0,0.1,0a0.9,0.9,0,0,0,.814-0.983c-0.05-.457-0.1-0.936-0.147-1.435a7.628,7.628,0,0,0,2.769.489,5.844,5.844,0,0,0,4.428-1.611,0.877,0.877,0,0,0-.141-1.256,0.934,0.934,0,0,0-1.29.138,4.164,4.164,0,0,1-3,.942A4.367,4.367,0,0,1,626.522,570.386Zm13.823,2.661a5.848,5.848,0,0,0,4.429-1.611,0.9,0.9,0,0,0,.2-0.5c0.013-.21.028-0.423,0.042-0.638,0.057-.8.114-1.635,0.11-2.463a0.906,0.906,0,0,0-.918-0.889h0a0.905,0.905,0,0,0-.912.9c0,0.763-.052,1.561-0.106,2.333-0.007.107-.014,0.213-0.022,0.319a4.656,4.656,0,0,1-2.818.768,4.165,4.165,0,0,1-3-.942,0.935,0.935,0,0,0-1.291-.138,0.879,0.879,0,0,0-.14,1.256A5.844,5.844,0,0,0,640.345,573.047Zm-23.759,2.359a0.891,0.891,0,0,0,.656,1.09,0.922,0.922,0,0,0,.232.029,0.913,0.913,0,0,0,.887-0.668,5.6,5.6,0,0,0-2.328-5.608c-0.1-.077-0.212-0.149-0.323-0.217l0.227-.914a0.892,0.892,0,0,0-.675-1.078,0.917,0.917,0,0,0-1.108.658l-0.16.644a17.814,17.814,0,0,0-1.842-.351l-0.208-.031,0.805-4.906,0.214,0.033a7.43,7.43,0,0,1,3.047.911,0.933,0.933,0,0,0,1.286-.166,0.877,0.877,0,0,0-.169-1.252,8.766,8.766,0,0,0-3.88-1.258,9.488,9.488,0,0,1-.987-0.18,0.941,0.941,0,0,0-.754.1,0.891,0.891,0,0,0-.418.617l-1.094,6.669a0.89,0.89,0,0,0,.639,1,9.792,9.792,0,0,0,1.237.236,7.446,7.446,0,0,1,3.042.908A3.922,3.922,0,0,1,616.586,575.406Zm21.271-18.014c0.551,2.144,2.355,3.824,4.105,3.824h2.589a4.817,4.817,0,0,1,3.255,1.361c1.214,1.2,1.554,2.4,1.255,4.429l-0.589,4a0.9,0.9,0,0,0,.778,1.011,0.976,0.976,0,0,0,.132.009,0.908,0.908,0,0,0,.906-0.767l0.59-4a6.241,6.241,0,0,0-1.767-5.937,6.649,6.649,0,0,0-4.56-1.893h-2.589c-0.8,0-1.961-1.057-2.325-2.471l-0.073-.281a0.918,0.918,0,0,0-1.113-.649,0.889,0.889,0,0,0-.666,1.083Zm5.009,27.27a0.9,0.9,0,0,0-.9.914,28.693,28.693,0,0,0,.644,5.511,0.912,0.912,0,0,0,.9.707,0.973,0.973,0,0,0,.193-0.02,0.894,0.894,0,0,0,.706-1.06,26.856,26.856,0,0,1-.6-5.18A0.908,0.908,0,0,0,642.866,584.662Zm3.644,3.82a0.922,0.922,0,0,0-1.148.589,0.89,0.89,0,0,0,.606,1.118c2.124,0.64,2.584,1.254,2.584,1.372,0,0.153-.637.927-3.58,1.642a50.891,50.891,0,0,1-20.2,0c-2.944-.715-3.581-1.489-3.581-1.642,0-.118.46-0.732,2.584-1.372a0.889,0.889,0,0,0,.606-1.118,0.923,0.923,0,0,0-1.149-.589c-2.572.775-3.876,1.811-3.876,3.079,0,1.438,1.672,2.573,4.971,3.375a52.674,52.674,0,0,0,21.087,0c3.3-.8,4.97-1.937,4.97-3.375C650.387,590.293,649.083,589.257,646.51,588.482Zm-25.775-2.658,0.152-.021,32.815-4.659a0.9,0.9,0,0,0,.776-1.013,0.915,0.915,0,0,0-1.041-.755l-2.107.3-0.011-.509a0.917,0.917,0,0,0-1.834.037l0.015,0.732-5.634.8-0.011-.51a0.907,0.907,0,0,0-.917-0.874h-0.02a0.905,0.905,0,0,0-.9.912L642.036,581l-5.634.8-0.011-.51a0.907,0.907,0,0,0-.917-0.874h-0.02a0.9,0.9,0,0,0-.9.912l0.015,0.731-5.634.8-0.011-.509a0.918,0.918,0,0,0-1.835.038l0.016,0.731-5.634.8-0.011-.509a0.918,0.918,0,0,0-1.835.038l0.015,0.712c-2.64.261-3.729-.22-4.435-1.807-0.6-1.355-1.165-4.056-.6-5.4a0.959,0.959,0,0,1,.541-0.6,0.886,0.886,0,0,0,.506-1.164,0.925,0.925,0,0,0-1.194-.493,2.8,2.8,0,0,0-1.551,1.576c-0.884,2.1.032,5.476,0.614,6.784,1.049,2.357,2.941,2.949,4.958,2.949a16.414,16.414,0,0,0,2.2-.176Zm36.109-8.566c-0.117-.269-0.227-0.524-0.317-0.745-0.907-2.264-2.622-3.449-4.585-3.17l-35.4,5.025a0.9,0.9,0,0,0-.775,1.013,0.913,0.913,0,0,0,1.039.755l35.4-5.026c1.526-.217,2.335,1.364,2.612,2.053,0.1,0.244.213,0.509,0.335,0.791,0.482,1.112,1.211,2.793.95,3.652-0.281.922-1.605,1.335-3,1.773-1.781.556-3.8,1.186-4.139,3.2a0.9,0.9,0,0,0,.756,1.026,0.967,0.967,0,0,0,.15.012,0.909,0.909,0,0,0,.9-0.748c0.148-.871,1.19-1.256,2.89-1.787s3.645-1.139,4.2-2.966C658.311,580.641,657.5,578.765,656.844,577.258Zm-30.976,9.779a25.657,25.657,0,0,1-.531,3.677,0.912,0.912,0,0,0,.9,1.08,0.913,0.913,0,0,0,.9-0.707,27.644,27.644,0,0,0,.567-3.922,0.9,0.9,0,0,0-.849-0.955A0.911,0.911,0,0,0,625.868,587.037Zm8.087,1.147v0.372a0.918,0.918,0,0,0,1.835,0v-0.372A0.918,0.918,0,0,0,633.955,588.184Z" transform="translate(-610 -556)"/>
</svg>
