<svg xmlns="http://www.w3.org/2000/svg" width="31.63" height="40.343" viewBox="0 0 31.63 40.343">
  <metadata><?xpacket begin="﻿" id="W5M0MpCehiHzreSzNTczkc9d"?>
<x:xmpmeta xmlns:x="adobe:ns:meta/" x:xmptk="Adobe XMP Core 5.6-c138 79.159824, 2016/09/14-01:09:01        ">
   <rdf:RDF xmlns:rdf="http://www.w3.org/1999/02/22-rdf-syntax-ns#">
      <rdf:Description rdf:about=""/>
   </rdf:RDF>
</x:xmpmeta>
                                                                                                    
                                                                                                    
                                                                                                    
                                                                                                    
                                                                                                    
                                                                                                    
                                                                                                    
                                                                                                    
                                                                                                    
                                                                                                    
                                                                                                    
                                                                                                    
                                                                                                    
                                                                                                    
                                                                                                    
                                                                                                    
                                                                                                    
                                                                                                    
                                                                                                    
                                                                                                    
                           
<?xpacket end="w"?></metadata>
<defs>
    <style>
      .cls-1 {
        fill: #f6f9fc;
        fill-rule: evenodd;
      }
    </style>
  </defs>
  <path id="hc_icon" data-name="hc icon" class="cls-1" d="M1223.51,561.867a0.936,0.936,0,0,1,0-1.871,3.165,3.165,0,0,1,3.17,3.155,0.931,0.931,0,0,1-.91.951h-0.02a0.94,0.94,0,0,1-.94-0.918A1.306,1.306,0,0,0,1223.51,561.867Zm-11.34,9.9a0.916,0.916,0,0,0,.66.28,0.936,0.936,0,0,0,.67-1.592c-2.84-2.885-4.32-5.394-4.29-7.256a4.844,4.844,0,0,1,8.84-2.758,0.953,0.953,0,0,0,.77.406h0a0.925,0.925,0,0,0,.77-0.406,4.851,4.851,0,0,1,8.85,2.758c0.03,1.862-1.45,4.371-4.29,7.257a0.934,0.934,0,1,0,1.33,1.312c3.29-3.345,4.87-6.159,4.83-8.6a6.838,6.838,0,0,0-1.99-4.73,6.613,6.613,0,0,0-4.73-1.97,6.712,6.712,0,0,1-9.53,0,6.613,6.613,0,0,0-4.73,1.97,6.838,6.838,0,0,0-1.99,4.73C1207.3,565.613,1208.88,568.427,1212.17,571.771Zm18.78-13.891a0.955,0.955,0,0,0,.6-0.214l0.4-.331a0.934,0.934,0,0,0-1.19-1.441l-0.4.33A0.933,0.933,0,0,0,1230.95,557.88ZM1204.6,560.6l-0.51-.087a0.935,0.935,0,1,0-.31,1.844l0.51,0.087a0.878,0.878,0,0,0,.16.013A0.935,0.935,0,0,0,1204.6,560.6Zm26.75,10.251h-2.03a0.935,0.935,0,0,0-.93.838,9.618,9.618,0,0,1-19.13,0,0.935,0.935,0,0,0-.93-0.838h-2.03a0.935,0.935,0,0,0,0,1.87h1.22a11.489,11.489,0,0,0,10.37,9.413v6.191h-8.17a3.848,3.848,0,0,0,0,7.7h6.19a0.944,0.944,0,0,0,.53-0.164l4.25-2.912a0.933,0.933,0,1,0-1.05-1.543l-4.02,2.749h-5.9a1.978,1.978,0,0,1,0-3.955h18.21a1.978,1.978,0,0,1,0,3.955h-6.19a0.935,0.935,0,1,0,0,1.87h6.19a3.848,3.848,0,0,0,0-7.7h-8.17v-6.191a11.489,11.489,0,0,0,10.37-9.413h1.22A0.935,0.935,0,0,0,1231.35,570.854Zm3.29-9.573a0.938,0.938,0,0,0-1.08-.765l-0.51.087a0.935,0.935,0,0,0,.15,1.857,0.959,0.959,0,0,0,.16-0.013l0.51-.087A0.943,0.943,0,0,0,1234.64,561.281Zm-15.53,8.611a4.559,4.559,0,0,1,0,8.685,0.956,0.956,0,0,1-.29.044,0.94,0.94,0,0,1-.28-0.044,4.559,4.559,0,0,1,0-8.685A0.94,0.94,0,0,1,1219.11,569.892Zm-0.29,1.89a2.686,2.686,0,1,0,1.59,2.452A2.672,2.672,0,0,0,1218.82,571.782Zm-13.12-14.447,0.4,0.33a0.931,0.931,0,0,0,.6.215,0.951,0.951,0,0,0,.72-0.339,0.934,0.934,0,0,0-.13-1.317l-0.4-.33A0.934,0.934,0,0,0,1205.7,557.335Z" transform="translate(-1203 -555.688)"/>
</svg>
