<svg xmlns="http://www.w3.org/2000/svg" width="28" height="40" viewBox="0 0 28 40">
  <metadata><?xpacket begin="﻿" id="W5M0MpCehiHzreSzNTczkc9d"?>
<x:xmpmeta xmlns:x="adobe:ns:meta/" x:xmptk="Adobe XMP Core 5.6-c138 79.159824, 2016/09/14-01:09:01        ">
   <rdf:RDF xmlns:rdf="http://www.w3.org/1999/02/22-rdf-syntax-ns#">
      <rdf:Description rdf:about=""/>
   </rdf:RDF>
</x:xmpmeta>
                                                                                                    
                                                                                                    
                                                                                                    
                                                                                                    
                                                                                                    
                                                                                                    
                                                                                                    
                                                                                                    
                                                                                                    
                                                                                                    
                                                                                                    
                                                                                                    
                                                                                                    
                                                                                                    
                                                                                                    
                                                                                                    
                                                                                                    
                                                                                                    
                                                                                                    
                                                                                                    
                           
<?xpacket end="w"?></metadata>
<defs>
    <style>
      .cls-1 {
        fill: #f6f9fc;
        fill-rule: evenodd;
      }
    </style>
  </defs>
  <path id="diet_icon" data-name="diet icon" class="cls-1" d="M914.549,558.177a0.884,0.884,0,0,1,.361-1.244,2.6,2.6,0,0,1,4.207,1.88,11.966,11.966,0,0,1,9.39-.439,0.9,0.9,0,0,1,.541,1.185,0.99,0.99,0,0,1-1.258.51,9.907,9.907,0,0,0-8.28.624,3.783,3.783,0,0,0,.536,1.507,0.877,0.877,0,0,1-.1,1.287,1.01,1.01,0,0,1-1.365-.091,6.107,6.107,0,0,1-1.1-2.983c-0.136-.7-0.387-2.017-0.729-2.167a1.415,1.415,0,0,0-.89.272A1,1,0,0,1,914.549,558.177Zm11.491,5.088a0.973,0.973,0,0,0,.89-0.553,0.894,0.894,0,0,0-.508-1.2,6,6,0,0,0-3.543-.3,0.91,0.91,0,0,0-.724,1.094,0.97,0.97,0,0,0,1.161.683,3.963,3.963,0,0,1,2.343.2A1.017,1.017,0,0,0,926.04,563.265Zm1.937,2.267,0.251,2.651,0,0.036,0.121,1.266a0.947,0.947,0,0,0,.962.831q0.043,0,.087,0a0.93,0.93,0,0,0,.878-0.99l-0.028-.292h1.105a0.914,0.914,0,1,0,0-1.824h-1.277l-0.174-1.837a2.106,2.106,0,0,1,.647-1.657,3.829,3.829,0,0,1,2.713-1.081H935.7a3.818,3.818,0,0,1,2.71,1.081,2.178,2.178,0,0,1,.652,1.349h-1.252a0.914,0.914,0,1,0,0,1.824h1.106l-0.231,2.437a0.93,0.93,0,0,0,.878.99,0.954,0.954,0,0,0,1.049-.828l0.374-3.953a3.84,3.84,0,0,0-1.148-3.051,5.844,5.844,0,0,0-4.138-1.673h-0.034A5.4,5.4,0,0,1,938,557.686a0.882,0.882,0,0,0,.309-1.256,1,1,0,0,0-1.333-.292,6.931,6.931,0,0,0-2.5,2.587,6.931,6.931,0,0,0-2.5-2.587,1,1,0,0,0-1.333.292,0.881,0.881,0,0,0,.309,1.256,5.4,5.4,0,0,1,2.336,3.122h-0.033a5.847,5.847,0,0,0-4.14,1.674A3.84,3.84,0,0,0,927.977,565.532Zm-4.76-.7a1,1,0,0,0-1.337.275,0.881,0.881,0,0,0,.292,1.26,3.6,3.6,0,0,1,1.488,1.719,0.967,0.967,0,0,0,.9.584,1,1,0,0,0,.348-0.061,0.9,0.9,0,0,0,.556-1.179A5.438,5.438,0,0,0,923.217,564.836Zm-9.227,5c0.021,0,.042,0,0.065,0a0.93,0.93,0,0,0,.9-0.969,8.4,8.4,0,0,1,1.446-5.327,0.882,0.882,0,0,0-.3-1.26,1.006,1.006,0,0,0-1.337.279,10.129,10.129,0,0,0-1.744,6.427A0.946,0.946,0,0,0,913.99,569.841Zm27,2.27v22.977a0.941,0.941,0,0,1-.967.912H913.983a0.941,0.941,0,0,1-.968-0.912V572.111a0.941,0.941,0,0,1,.968-0.912h0.3a0.981,0.981,0,0,1,.83.443,1.266,1.266,0,0,0,2.094,0,0.981,0.981,0,0,1,.83-0.443h0.574a0.982,0.982,0,0,1,.83.443,1.266,1.266,0,0,0,2.094,0,0.983,0.983,0,0,1,.83-0.442h0.6a0.978,0.978,0,0,1,.829.443,1.267,1.267,0,0,0,2.1,0,0.98,0.98,0,0,1,.83-0.443h0.573a0.98,0.98,0,0,1,.83.443,1.267,1.267,0,0,0,2.1,0,0.979,0.979,0,0,1,.829-0.443h0.6a0.98,0.98,0,0,1,.83.443,1.266,1.266,0,0,0,2.094,0,0.981,0.981,0,0,1,.83-0.443h0.574a0.98,0.98,0,0,1,.83.443,1.267,1.267,0,0,0,2.095,0,0.978,0.978,0,0,1,.829-0.443h0.3A0.941,0.941,0,0,1,940.986,572.111Zm-1.934,1.682a3.325,3.325,0,0,1-1.209.228,3.3,3.3,0,0,0-4.327,0,3.3,3.3,0,0,0-4.351,0,3.3,3.3,0,0,0-4.328,0,3.3,3.3,0,0,0-4.351,0,3.3,3.3,0,0,0-4.328,0,3.307,3.307,0,0,1-1.207-.228v20.383h24.1V573.793h0Zm-19.763-8.833a0.979,0.979,0,0,0-1.21.6,5.062,5.062,0,0,0,.057,3.353,0.965,0.965,0,0,0,.915.615,1.021,1.021,0,0,0,.315-0.05,0.9,0.9,0,0,0,.6-1.159,3.343,3.343,0,0,1-.038-2.218A0.9,0.9,0,0,0,919.289,564.96ZM931.9,579.024a5.62,5.62,0,0,1,.6,6.347,6.246,6.246,0,0,1-5.433,3.749c-0.054,0-.108,0-0.163,0a6.317,6.317,0,0,1-5.349-3.648,5.617,5.617,0,0,1,.468-6.357,0.991,0.991,0,0,1,.681-0.307,5.71,5.71,0,0,0,8.505-.081A0.99,0.99,0,0,1,931.9,579.024Zm-5.391,4.218a4.612,4.612,0,0,0-3.286-2.593,4.174,4.174,0,0,0,.082,4.039,4.608,4.608,0,0,0,3.285,2.592A4.169,4.169,0,0,0,926.51,583.242Zm4.227-2.664a4.206,4.206,0,0,0-2.6,1.648c0.042,0.075.083,0.151,0.122,0.229a6.369,6.369,0,0,1,.606,4.306,5.183,5.183,0,0,0,1.881-2.144A4.166,4.166,0,0,0,930.737,580.578Z" transform="translate(-913 -556)"/>
</svg>
