<svg xmlns="http://www.w3.org/2000/svg" width="36" height="40" viewBox="0 0 36 40">
  <metadata><?xpacket begin="﻿" id="W5M0MpCehiHzreSzNTczkc9d"?>
<x:xmpmeta xmlns:x="adobe:ns:meta/" x:xmptk="Adobe XMP Core 5.6-c138 79.159824, 2016/09/14-01:09:01        ">
   <rdf:RDF xmlns:rdf="http://www.w3.org/1999/02/22-rdf-syntax-ns#">
      <rdf:Description rdf:about=""/>
   </rdf:RDF>
</x:xmpmeta>
                                                                                                    
                                                                                                    
                                                                                                    
                                                                                                    
                                                                                                    
                                                                                                    
                                                                                                    
                                                                                                    
                                                                                                    
                                                                                                    
                                                                                                    
                                                                                                    
                                                                                                    
                                                                                                    
                                                                                                    
                                                                                                    
                                                                                                    
                                                                                                    
                                                                                                    
                                                                                                    
                           
<?xpacket end="w"?></metadata>
<defs>
    <style>
      .cls-1 {
        fill: #f6f9fc;
        fill-rule: evenodd;
      }
    </style>
  </defs>
  <path id="fit_icon" data-name="fit icon" class="cls-1" d="M1510.7,564.5a0.967,0.967,0,0,0,.12.008,0.923,0.923,0,0,0,.43-0.105,4.478,4.478,0,0,0-1.48-8.4,0.928,0.928,0,0,0-.55.1A4.478,4.478,0,0,0,1510.7,564.5Zm-0.88-6.618a2.638,2.638,0,1,1-1.12,2.641A2.637,2.637,0,0,1,1509.82,557.884Zm8.24,32.195h-20.85V576.015l2.76-2.763,1.05,1.05a0.921,0.921,0,0,0,1.3,0,0.935,0.935,0,0,0,0-1.3l-5.56-5.566a0.915,0.915,0,0,0-1.29,1.3l3.21,3.217-3.03,3.032a0.931,0.931,0,0,0-.27.65v14.5a2.961,2.961,0,0,0,.57,5.865h22.11A2.961,2.961,0,0,0,1518.06,590.079Zm0,4.084h-22.11a1.124,1.124,0,0,1,0-2.247h22.11A1.124,1.124,0,0,1,1518.06,594.163Zm-18.65-26.985a0.917,0.917,0,0,1,1.41-1.174l0.2,0.244c1.25,1.512,1.71,2.077,3.61,2.326,1.36,0.179,4.05-1.227,6.43-2.467,2.89-1.507,5.62-2.93,7.59-2.695,2.68,0.321,3.66,1.5,5.02,3.145l0.15,0.186a0.917,0.917,0,0,1-1.41,1.174l-0.16-.188c-1.28-1.551-1.86-2.259-3.82-2.493-1.21-.145-3.38.879-5.49,1.963,0.15,0.432.3,0.893,0.47,1.374,0.39,1.165.84,2.485,1.24,3.8,0.11,0.346.2,0.662,0.3,0.954,0.56,1.809.87,2.806,0.54,3.8-0.33.975-1.14,1.61-2.75,2.876-1.09.855-1.15,1.239-.98,6.856l0.02,0.914a0.91,0.91,0,0,1-.25.666,0.93,0.93,0,0,1-.66.278h-2.04a0.918,0.918,0,1,1,0-1.836h1.09a36.723,36.723,0,0,1,.05-5.548,3.915,3.915,0,0,1,1.64-2.776,7.24,7.24,0,0,0,2.14-2.012,6.321,6.321,0,0,0-.55-2.67c-0.1-.3-0.2-0.615-0.3-0.965-0.39-1.28-.84-2.585-1.23-3.736-0.13-.384-0.26-0.756-0.38-1.112-2.64,1.372-5.11,2.576-6.9,2.34-2.61-.343-3.47-1.39-4.78-2.976ZM1529,580.464a0.918,0.918,0,0,1-.92.918h-1.6a9.908,9.908,0,0,1-5.11,1.8,5.157,5.157,0,0,1-1.15-.127,6.328,6.328,0,0,1-3.92-3.178,0.914,0.914,0,1,1,1.55-.97,4.579,4.579,0,0,0,2.77,2.357c1.32,0.3,2.99-.216,5.1-1.574a0.926,0.926,0,0,1,.5-0.145h1.86A0.918,0.918,0,0,1,1529,580.464Z" transform="translate(-1493 -556)"/>
</svg>
