<svg xmlns="http://www.w3.org/2000/svg" width="8.531" height="8" viewBox="0 0 8.531 8">
  <metadata><?xpacket begin="﻿" id="W5M0MpCehiHzreSzNTczkc9d"?>
<x:xmpmeta xmlns:x="adobe:ns:meta/" x:xmptk="Adobe XMP Core 5.6-c138 79.159824, 2016/09/14-01:09:01        ">
   <rdf:RDF xmlns:rdf="http://www.w3.org/1999/02/22-rdf-syntax-ns#">
      <rdf:Description rdf:about=""/>
   </rdf:RDF>
</x:xmpmeta>
                                                                                                    
                                                                                                    
                                                                                                    
                                                                                                    
                                                                                                    
                                                                                                    
                                                                                                    
                                                                                                    
                                                                                                    
                                                                                                    
                                                                                                    
                                                                                                    
                                                                                                    
                                                                                                    
                                                                                                    
                                                                                                    
                                                                                                    
                                                                                                    
                                                                                                    
                                                                                                    
                           
<?xpacket end="w"?></metadata>
<defs>
    <style>
      .cls-1 {
        fill: #a4b0c1;
        fill-rule: evenodd;
      }
    </style>
  </defs>
  <path id="Reply" class="cls-1" d="M75.249,126.431l-2.617,2.507a0.417,0.417,0,0,1-.214.061,0.49,0.49,0,0,1-.4-0.692V127c-0.006,0-.011,0-0.018,0H68a1,1,0,0,1-1-1v-4a1,1,0,1,1,2,0v3h3c0.006,0,.012,0,0.018,0v-1.311a0.491,0.491,0,0,1,.4-0.693,0.409,0.409,0,0,1,.214.062l2.617,2.507A0.5,0.5,0,0,1,75.249,126.431Z" transform="translate(-67 -121)"/>
</svg>
