<svg xmlns="http://www.w3.org/2000/svg" width="18" height="15" viewBox="0 0 18 15">
  <metadata><?xpacket begin="﻿" id="W5M0MpCehiHzreSzNTczkc9d"?>
<x:xmpmeta xmlns:x="adobe:ns:meta/" x:xmptk="Adobe XMP Core 5.6-c138 79.159824, 2016/09/14-01:09:01        ">
   <rdf:RDF xmlns:rdf="http://www.w3.org/1999/02/22-rdf-syntax-ns#">
      <rdf:Description rdf:about=""/>
   </rdf:RDF>
</x:xmpmeta>
                                                                                                    
                                                                                                    
                                                                                                    
                                                                                                    
                                                                                                    
                                                                                                    
                                                                                                    
                                                                                                    
                                                                                                    
                                                                                                    
                                                                                                    
                                                                                                    
                                                                                                    
                                                                                                    
                                                                                                    
                                                                                                    
                                                                                                    
                                                                                                    
                                                                                                    
                                                                                                    
                           
<?xpacket end="w"?></metadata>
<defs>
    <style>
      .cls-1 {
        fill: #a4b0c1;
        fill-rule: evenodd;
      }
    </style>
  </defs>
  <path id="Photo" class="cls-1" d="M177.994,37.014H164.005a2,2,0,0,1-2-2V27a2,2,0,0,1,2-2h3v-1a2,2,0,0,1,2-2h4a2,2,0,0,1,2,2v1h2V24a1,1,0,1,1,2,0v1h1V35.011A2,2,0,0,1,177.994,37.014ZM171,27a4,4,0,1,0,4,4A4,4,0,0,0,171,27Zm0,6a2,2,0,1,1,2-2A2,2,0,0,1,171,33Z" transform="translate(-162 -22)"/>
</svg>
