<svg xmlns="http://www.w3.org/2000/svg" width="17" height="16" viewBox="0 0 17 16">
  <metadata><?xpacket begin="﻿" id="W5M0MpCehiHzreSzNTczkc9d"?>
<x:xmpmeta xmlns:x="adobe:ns:meta/" x:xmptk="Adobe XMP Core 5.6-c138 79.159824, 2016/09/14-01:09:01        ">
   <rdf:RDF xmlns:rdf="http://www.w3.org/1999/02/22-rdf-syntax-ns#">
      <rdf:Description rdf:about=""/>
   </rdf:RDF>
</x:xmpmeta>
                                                                                                    
                                                                                                    
                                                                                                    
                                                                                                    
                                                                                                    
                                                                                                    
                                                                                                    
                                                                                                    
                                                                                                    
                                                                                                    
                                                                                                    
                                                                                                    
                                                                                                    
                                                                                                    
                                                                                                    
                                                                                                    
                                                                                                    
                                                                                                    
                                                                                                    
                                                                                                    
                           
<?xpacket end="w"?></metadata>
<defs>
    <style>
      .cls-1 {
        fill: #a4b0c1;
        fill-rule: evenodd;
      }
    </style>
  </defs>
  <path id="Private_eye" class="cls-1" d="M88,162.5c0.012,1.4-3.806,5.5-8.5,5.5a8.68,8.68,0,0,1-2.967-.558l-1.551,2.553a1,1,0,0,1-1.732-1l1.46-2.4,0,0,1.609-2.657s0,0,.005.008l2.992-4.923-0.022,0,1.185-1.957,0.022,0L81.748,155a1,1,0,1,1,1.731,1l-0.955,1.572C85.719,158.764,87.99,161.484,88,162.5Zm-6.662-2.967-3.618,5.956A3.443,3.443,0,0,0,79.5,166,3.493,3.493,0,0,0,81.335,159.532ZM71,162.5c0-1.259,3.084-4.695,7.121-5.373l-5.038,8.292C71.787,164.3,71,163.115,71,162.5Z" transform="translate(-71 -154.5)"/>
</svg>
