<svg xmlns="http://www.w3.org/2000/svg" width="15.25" height="15" viewBox="0 0 15.25 15">
  <defs>
    <style>
      .cls-1 {
        fill: #a4b0c1;
        fill-rule: evenodd;
      }
    </style>
  </defs>
  <path id="Icon" class="cls-1" d="M513.646,380.045a4.958,4.958,0,0,1,.008-7.076,5.134,5.134,0,0,1,7.181-.007,4.95,4.95,0,0,1-.007,7.075,5.134,5.134,0,0,1-7.182.008m12.024,3.671-3.26-3.181a6.42,6.42,0,0,0-.5-8.635,6.672,6.672,0,0,0-9.336.008,6.443,6.443,0,0,0-.007,9.2,6.666,6.666,0,0,0,8.764.491l3.257,3.182a0.773,0.773,0,0,0,1.08,0,0.744,0.744,0,0,0,0-1.063" transform="translate(-510.656 -370)"/>
</svg>
