<svg xmlns="http://www.w3.org/2000/svg" width="72" height="72" viewBox="0 0 72 72">
    <path fill="#FFF" fill-rule="evenodd" d="M36.234 68.973V72h-.468v-3.027h.468zm1.438-.042l.132 3.025-.468.022-.132-3.025.468-.022zm-3.345 0l.469.022-.133 3.025-.468-.022.132-3.025zm-1.434-.104l.467.04-.265 3.016-.467-.04.265-3.016zm6.214 0l.264 3.016-.467.04-.263-3.016.466-.04zm-7.643-.167l.464.062-.395 3.002-.465-.063.396-3zm9.072 0l.395 3.001-.465.063-.394-3.002.464-.062zm1.42-.229l.526 2.982-.462.08-.525-2.98.461-.082zm-11.912 0l.46.081-.525 2.981-.462-.08.527-2.982zm-1.41-.29l.458.102-.655 2.955-.458-.102.656-2.955zm14.731 0l.656 2.955-.458.102-.655-2.955.457-.102zm-16.125-.352l.452.121-.784 2.924-.452-.12.784-2.925zm17.52 0l.783 2.925-.452.12-.783-2.924.452-.12zm-18.899-.411l.447.139-.91 2.887-.447-.139.91-2.887zm20.277 0l.91 2.887-.446.14-.91-2.888.446-.14zm-21.636-.474l.44.16-1.034 2.846-.441-.16 1.035-2.846zm22.995 0l1.036 2.845-.44.161-1.037-2.846.441-.16zm-24.332-.531l.433.18-1.158 2.797-.433-.18 1.158-2.797zm25.67 0l1.158 2.798-.433.18-1.158-2.799.433-.18zm-26.982-.587l.424.197-1.28 2.743-.424-.198 1.28-2.742zm28.294 0l1.279 2.742-.424.198-1.28-2.743.425-.197zm-29.58-.646l.415.216-1.397 2.684-.416-.216 1.398-2.684zm30.866 0l1.398 2.684-.416.216-1.398-2.684.416-.216zm-32.123-.701l.406.234-1.513 2.622-.406-.234 1.513-2.622zm33.38 0l1.513 2.622-.406.234-1.513-2.622.406-.234zm-34.604-.756l.395.253-1.626 2.552-.396-.252 1.627-2.553zm35.828 0l1.626 2.553-.395.252-1.626-2.552.395-.253zM35.954 5.64c5.734 0 11.012 1.329 15.69 3.947 4.679 2.62 8.412 6.29 11.095 10.905 2.682 4.62 4.041 9.837 4.041 15.508 0 5.674-1.36 10.892-4.041 15.508-2.682 4.616-6.415 8.285-11.095 10.905-4.676 2.62-9.955 3.95-15.69 3.95-5.735 0-11-1.33-15.646-3.95-4.649-2.62-8.365-6.29-11.046-10.905C6.58 46.891 5.22 41.673 5.22 36c0-5.673 1.36-10.89 4.042-15.508 2.682-4.616 6.398-8.285 11.046-10.905C24.956 6.968 30.22 5.64 35.954 5.64zm-19.06 57.237l.385.267-1.736 2.48-.384-.267 1.736-2.48zm38.21 0l1.737 2.48-.384.267-1.737-2.48.384-.267zm-19.15-56.3c-5.571 0-10.68 1.288-15.187 3.826-4.5 2.537-8.098 6.09-10.694 10.56-2.518 4.333-3.83 9.216-3.909 14.523h8.893v.937H6.163c.066 5.344 1.378 10.258 3.91 14.614 2.595 4.47 6.194 8.024 10.694 10.56 4.506 2.54 9.615 3.828 15.187 3.828 5.573 0 10.698-1.288 15.233-3.828 4.531-2.538 8.146-6.09 10.742-10.56 2.53-4.356 3.843-9.272 3.908-14.614h-8.894v-.937h8.893c-.08-5.304-1.391-10.188-3.907-14.522-2.598-4.47-6.213-8.023-10.742-10.56-4.536-2.539-9.662-3.827-15.233-3.827zM15.74 62.018l.371.285-1.842 2.401-.372-.286 1.843-2.4zm40.517 0l1.843 2.4-.372.286-1.842-2.4.371-.286zm-41.632-.91l.358.3-1.945 2.32-.359-.3 1.946-2.32zm42.747 0l1.947 2.32-.36.3-1.946-2.32.36-.3zm1.076-.955l2.045 2.233-.346.314-2.045-2.232.346-.315zm-44.898 0l.345.315-2.044 2.232-.346-.314 2.045-2.233zm45.93-1.004l2.14 2.14-.33.334-2.142-2.142.331-.332zm-46.963.002l.332.329-2.14 2.14-.332-.329 2.14-2.14zm47.95-1.046L62.7 60.15l-.316.343-2.233-2.044.317-.344zm-48.937 0l.317.344-2.232 2.044-.316-.343 2.231-2.045zm49.878-1.09l2.32 1.947-.302.359-2.32-1.947.302-.36zm-50.819 0l.302.359-2.319 1.947-.302-.36 2.319-1.946zm-.892-1.13l.285.374-2.402 1.843-.285-.374 2.402-1.842zm52.603 0l2.402 1.843-.285.374-2.402-1.843.285-.373zm.843-1.165l2.48 1.737-.27.384-2.48-1.736.27-.385zm-54.29 0l.27.385-2.48 1.736-.268-.384 2.479-1.737zm55.081-1.2l2.553 1.627-.252.395-2.553-1.627.252-.395zm-55.87 0l.252.395-2.553 1.627-.252-.395 2.553-1.627zm56.607-1.235l2.622 1.513-.234.406-2.622-1.513.234-.406zm-57.345 0l.234.406-2.621 1.513-.234-.406 2.621-1.513zm58.027-1.269l2.686 1.398-.216.418-2.685-1.399.215-.417zm-58.71 0l.217.417-2.686 1.399-.216-.418 2.686-1.398zm59.338-1.293l2.743 1.279-.197.424-2.743-1.279.197-.424zm-59.964 0l.198.424-2.745 1.28-.197-.425 2.744-1.28zm38.718-12.008l5.882 12.714h-1.591l-4.95-10.698-4.966 10.698H37.52l5.902-12.714h1.315zm-21.185 0l4.95 10.698 4.965-10.698h1.592l-5.9 12.714h-1.316L21.96 37.715h1.591zm43.001 10.688l2.797 1.159-.179.431-2.797-1.158.18-.432zm-61.105 0l.18.432-2.797 1.158-.18-.431 2.797-1.159zm61.618-1.345l2.844 1.036-.16.44-2.845-1.037.16-.439zm-62.13 0l.16.44-2.844 1.035-.16-.439 2.843-1.036zm62.582-1.365l2.887.91-.14.446-2.888-.91.14-.446zm-63.035 0l.141.447-2.886.91-.141-.447 2.886-.91zm63.427-1.385l2.924.783-.12.454-2.924-.783.12-.454zm-63.82 0l.122.454-2.925.783-.12-.454 2.924-.783zm64.152-1.4l2.955.655-.1.458-2.955-.655.1-.458zm-64.483 0l.1.458-2.955.655-.1-.458 2.955-.655zm64.754-1.412l2.981.524-.08.462-2.982-.526.081-.46zm-65.024 0l.08.46-2.981.526-.08-.462 2.98-.524zM68.72 40.07l3 .396-.06.465-3-.395.06-.466zm-65.443 0l.061.466-3.001.395-.06-.465 3-.396zm65.59-1.43l3.015.263-.04.469-3.016-.264.04-.469zm-65.736 0l.04.468-3.015.264-.04-.469 3.015-.264zm65.82-1.437l3.023.132-.02.468-3.024-.131.02-.47zm-65.904 0l.02.469-3.024.131-.02-.468 3.024-.132zM72 35.766v.468h-3.028v-.468H72zm-68.973 0v.468H0v-.468h3.027zm44.455-13.324c1.028.583 1.85 1.4 2.441 2.429.589 1.028.888 2.185.888 3.44 0 1.254-.298 2.41-.888 3.44-.59 1.029-1.412 1.847-2.44 2.43-1.024.581-2.175.875-3.424.875s-2.397-.296-3.416-.875c-1.022-.583-1.839-1.401-2.428-2.43-.59-1.026-.888-2.183-.888-3.44 0-1.257.299-2.414.888-3.44.588-1.028 1.406-1.844 2.428-2.429 2.037-1.158 4.793-1.162 6.84 0zm-19.944-.68c1.362 0 2.58.28 3.62.836 1.05.562 1.876 1.351 2.455 2.346.576.988.867 2.122.867 3.367 0 1.246-.291 2.38-.868 3.37-.578.992-1.403 1.782-2.455 2.344-1.035.554-2.253.835-3.62.835h-5V21.761zm44.417 12.434l.02.468-3.024.132-.02-.468 3.024-.132zm-71.911 0l3.024.132-.02.468-3.024-.132.02-.468zM44.059 23.02c-.998 0-1.91.232-2.711.69-.797.454-1.433 1.09-1.892 1.891-.46.801-.694 1.714-.694 2.71s.234 1.908.694 2.709c.46.803 1.096 1.439 1.892 1.892 1.604.916 3.823.916 5.433 0 .802-.455 1.442-1.091 1.9-1.892.46-.805.694-1.715.694-2.71 0-.995-.233-1.906-.693-2.709-.46-.8-1.1-1.437-1.9-1.891-.807-.458-1.723-.69-2.723-.69zm-16.521.168H23.97v10.243h3.567c1.128 0 2.117-.223 2.942-.664.813-.435 1.45-1.043 1.892-1.803.449-.77.676-1.663.676-2.654 0-.99-.227-1.883-.675-2.651-.443-.762-1.08-1.37-1.893-1.805-.828-.44-1.818-.666-2.942-.666zM.157 32.63l3.015.264-.04.468-3.016-.263.04-.469zm71.686 0l.04.469-3.016.263-.04-.468 3.016-.264zm-.182-1.56l.061.464-3.001.396-.06-.466 3-.395zm-71.323 0l3 .394-.06.466-3-.396.06-.465zm.249-1.55l2.981.525-.08.46-2.982-.524.08-.461zm70.825 0l.08.46-2.98.526-.08-.461 2.98-.525zM.903 27.979l2.955.656-.1.457-2.955-.655.1-.457zm70.193 0l.1.458-2.955.655-.1-.457 2.955-.655zm-69.81-1.524l2.925.785-.121.454-2.924-.785.12-.454zm69.427 0l.12.454-2.924.785-.12-.454 2.924-.785zM1.737 24.951l2.886.911-.14.447-2.887-.912.14-.446zm68.526 0l.141.446-2.887.912-.141-.447 2.887-.91zm-.514-1.482l.16.44-2.845 1.033-.16-.44 2.845-1.033zm-67.5 0l2.846 1.034-.16.439-2.844-1.034.159-.439zm66.921-1.46l.18.432-2.798 1.158-.18-.432 2.798-1.159zm-66.34 0l2.796 1.158-.18.432-2.795-1.158.18-.433zm65.698-1.435l.197.424-2.743 1.28-.198-.425 2.744-1.279zm-65.057 0l2.745 1.28-.198.424-2.744-1.28.197-.424zm.704-1.405l2.685 1.397-.216.418-2.685-1.398.216-.417zm63.65 0l.215.417-2.685 1.398-.216-.418 2.685-1.397zM4.94 17.799l2.621 1.512-.234.406-2.621-1.513.234-.406zm62.12 0l.235.405-2.623 1.513-.234-.406 2.622-1.513zM5.764 16.46l2.553 1.627-.252.395-2.553-1.627.252-.395zm60.472 0l.252.395-2.553 1.627-.252-.395 2.553-1.627zm-.882-1.3l.27.384-2.48 1.736-.269-.384 2.48-1.737zm-58.71 0l2.48 1.736-.269.384-2.48-1.736.27-.385zm.937-1.262l2.402 1.843-.285.373-2.402-1.842.285-.374zm56.837 0l.285.374-2.402 1.842-.285-.373 2.402-1.843zM8.573 12.681l2.319 1.946-.302.358L8.27 13.04l.302-.359zm54.854 0l.302.359-2.32 1.945-.3-.358 2.318-1.946zm-1.043-1.174l.316.344-2.232 2.046-.317-.344 2.233-2.046zm-52.768 0l2.232 2.046-.317.344L9.3 11.85l.316-.344zm51.674-1.13l.332.334-2.141 2.14-.332-.333 2.141-2.14zm-50.58.003l2.14 2.14-.331.33-2.14-2.141.33-.33zM60.148 9.3l.346.318-2.046 2.23-.346-.318 2.046-2.23zm-48.297 0l2.046 2.23-.346.317-2.045-2.23.345-.317zm1.188-1.027l1.945 2.319-.358.3-1.946-2.318.36-.301zm45.922 0l.358.3-1.946 2.319-.358-.3 1.946-2.319zm-1.232-.975l.372.285-1.843 2.401-.371-.286 1.842-2.4zm-43.46 0l1.843 2.4-.371.286-1.843-2.4.372-.286zm1.275-.92l1.735 2.479-.384.267-1.736-2.48.385-.267zm40.913 0l.384.266-1.737 2.48-.384-.267 1.737-2.48zm-1.312-.866l.395.252-1.626 2.553-.395-.252 1.626-2.553zm-38.29 0l1.626 2.553-.395.252-1.627-2.553.395-.252zm36.942-.805l.406.234-1.513 2.62-.407-.234 1.514-2.62zm-35.594 0l1.514 2.62-.407.234-1.513-2.62.406-.234zm1.382-.747l1.397 2.685-.415.216-1.398-2.685.416-.216zm32.83 0l.416.216-1.398 2.685-.416-.216 1.398-2.685zm-31.418-.686l1.28 2.745-.424.197-1.28-2.744.424-.198zm30.004 0l.425.198-1.279 2.744-.424-.197L51 3.274zm-28.56-.622l1.157 2.796-.433.18-1.158-2.797.433-.18zm27.119 0l.433.18-1.158 2.795-.433-.18 1.158-2.795zm-25.652-.56l1.035 2.844-.441.16-1.035-2.843.441-.161zm24.184 0l.441.16-1.036 2.844-.44-.16 1.035-2.844zm-22.695-.496l.91 2.886-.446.142-.91-2.886.446-.142zm21.205 0l.446.142-.91 2.886-.447-.142.91-2.886zm-19.694-.43l.784 2.924-.452.12-.784-2.923.452-.121zm18.183 0l.452.12-.783 2.925-.452-.12.783-2.925zM28.437.802l.655 2.957-.457.102L27.98.904l.457-.102zm15.126 0l.457.102-.655 2.957-.457-.102.655-2.957zM29.98.507l.526 2.981-.461.08-.526-2.98.46-.081zm12.041 0l.462.08-.526 2.982-.461-.08.525-2.982zM31.533.277l.396 3.002-.465.063-.396-3.003.465-.063zm8.933 0l.465.062-.395 3.003-.465-.063.395-3.003zm-7.371-.16l.264 3.016-.466.04-.265-3.015.467-.04zm5.81 0l.466.04-.264 3.016-.466-.04.263-3.016zM34.662.024l.133 3.025-.469.022-.132-3.025.468-.022zm2.673 0l.468.022-.131 3.025-.469-.022.132-3.025zM36.234 0v3.027h-.468V0h.468z"/>
</svg>
