<svg xmlns="http://www.w3.org/2000/svg" width="240" height="36" viewBox="0 0 240 36">
    <path fill-rule="evenodd" d="M103.893 0c3.426 0 6.578.787 9.37 2.338 2.79 1.553 5.008 3.726 6.589 6.46l.231.413c1.428 2.63 2.15 5.585 2.15 8.789 0 3.372-.8 6.468-2.381 9.202-1.582 2.735-3.799 4.908-6.59 6.46-2.79 1.55-5.942 2.338-9.369 2.338-3.427 0-6.571-.787-9.344-2.339-2.775-1.552-4.983-3.725-6.564-6.46-1.58-2.731-2.381-5.828-2.381-9.201 0-3.374.801-6.47 2.381-9.202 1.58-2.734 3.789-4.907 6.564-6.46C97.324.787 100.467 0 103.893 0zM52.525.202c3.66 0 6.956.769 9.796 2.286 2.842 1.52 5.076 3.65 6.64 6.334 1.565 2.684 2.358 5.771 2.358 9.178 0 3.407-.793 6.494-2.358 9.177-1.564 2.684-3.798 4.815-6.64 6.334-2.84 1.517-6.136 2.287-9.796 2.287H38.812V.202zm81.911 0l14.698 32.908L163.782.202h2.106l-15.912 35.596h-1.834L132.229.202h2.207zm54.923 0l16.419 35.596h-2.158L188.468 2.63l-15.202 33.168h-2.159L187.527.202h1.832zm-85.466 1.633c-3.047 0-5.842.708-8.307 2.102-2.465 1.394-4.436 3.347-5.858 5.804-1.423 2.457-2.145 5.236-2.145 8.259 0 3.023.722 5.803 2.145 8.258 1.422 2.457 3.392 4.41 5.858 5.805 2.465 1.394 5.26 2.101 8.307 2.101 3.047 0 5.85-.707 8.333-2.102 2.482-1.394 4.461-3.347 5.883-5.804 1.423-2.457 2.145-5.235 2.145-8.258 0-3.022-.722-5.8-2.145-8.259-1.423-2.457-3.402-4.41-5.883-5.804-2.482-1.394-5.286-2.102-8.333-2.102zm-51.468.202H40.792v31.926h11.633c3.383 0 6.381-.692 8.913-2.053 2.531-1.361 4.518-3.271 5.907-5.677 1.39-2.407 2.094-5.176 2.094-8.233 0-3.056-.705-5.827-2.094-8.233-1.389-2.406-3.376-4.316-5.907-5.677-2.533-1.362-5.532-2.053-8.913-2.053zm-31.16 14.969v1.987H0v-1.987h21.265zm218.735 0v1.987h-21.265v-1.987H240z"/>
</svg>
