<svg xmlns="http://www.w3.org/2000/svg" width="162" height="180" viewBox="0 0 162 180">
    <path fill="#546052" fill-rule="evenodd" d="M36.39 164.347l-3.317 6.801-1.052-.513 3.317-6.801 1.052.513zm3.277 1.482l-3.018 6.94-1.077-.463 3.02-6.942 1.075.465zm-7.516-3.666l1.03.562-3.614 6.652-1.028-.563 3.612-6.651zm-3.109-1.806l1.005.602-3.9 6.486-1.004-.602 3.9-6.486zm13.964 6.81l-2.713 7.065-1.093-.421 2.713-7.065 1.093.421zm-16.992-8.75l.976.647-4.177 6.311-.977-.65 4.178-6.309zm20.385 9.942l-2.401 7.175-1.114-.37 2.404-7.175 1.111.37zm3.442 1.042l-2.086 7.274-1.125-.325 2.086-7.273 1.125.324zm-26.767-13.056l.946.687-4.448 6.122-.948-.687 4.45-6.122zm-2.847-2.197l.914.731-4.71 5.923-.916-.732 4.712-5.922zm33.099 16.143l-1.766 7.359-1.141-.271 1.767-7.358 1.14.27zM17.479 151.83l.882.767-4.966 5.711-.883-.766 4.967-5.712zm39.366 19.2l-1.446 7.43-1.148-.225 1.446-7.428 1.148.223zM14.83 149.394l.851.802-5.21 5.49-.851-.802 5.21-5.49zm45.56 22.221l-1.118 7.486-1.156-.176 1.119-7.486 1.156.176zM12.296 146.84l.815.845-5.444 5.26-.815-.845 5.444-5.26zm51.671 25.201l-.79 7.53-1.168-.122.79-7.53 1.168.122zM9.874 144.181l.777.878-5.669 5.018-.778-.878 5.67-5.018zm57.68 28.132l-.464 7.557-1.171-.072.464-7.557 1.17.072zM7.568 141.424l.737.909-5.882 4.76-.737-.909 5.882-4.76zm63.576 31.009l-.132 7.564-1.17-.02.132-7.567 1.17.023zm-65.759-33.87l.697.94-6.081 4.5-.697-.94 6.081-4.5zm69.356 33.827l.199 7.564-1.17.03-.2-7.565 1.171-.029zm-71.41-36.779l.655.97-6.274 4.235-.656-.972 6.275-4.233zm75.002 36.581l.528 7.55-1.17.082-.526-7.55 1.168-.082zM1.41 132.572l.611 1-6.453 3.953-.611-1 6.453-3.953zm80.505 39.264l.855 7.518-1.164.134-.856-7.518 1.165-.134zM105.17 21.728c12.885 6.285 23.289 15.056 30.93 26.065 7.64 11.015 12.008 23.35 12.98 36.662.962 13.32-1.7 26.533-7.916 39.276-6.219 12.75-14.992 22.984-26.077 30.418-11.084 7.432-23.493 11.585-36.88 12.344-13.38.763-26.698-2.038-39.584-8.323-12.887-6.285-23.26-15.04-30.828-26.02C.22 121.169-4.108 108.852-5.075 95.543c-.967-13.313 1.694-26.527 7.913-39.278 6.217-12.745 14.99-22.977 26.078-30.416 11.087-7.43 23.456-11.603 36.772-12.397 13.313-.79 26.598 1.993 39.482 8.277zM-.384 129.452l.572 1.021-6.618 3.67-.57-1.021 6.616-3.67zm85.857 41.875l1.184 7.474-1.156.18-1.184-7.475 1.156-.18zm18.67-147.493c-12.518-6.106-25.41-8.81-38.317-8.045-12.89.767-24.87 4.809-35.605 12.008C19.817 34.773 11.52 44.308 5.523 56.145l19.983 9.747-1.026 2.104-19.985-9.748c-5.71 12.08-8.147 24.56-7.231 37.122.933 12.89 5.124 24.818 12.457 35.45 7.34 10.645 17.408 19.138 29.928 25.245 12.523 6.108 25.45 8.83 38.424 8.092 12.963-.736 24.979-4.756 35.71-11.957 10.46-7.013 18.796-16.621 24.799-28.553l-19.986-9.748 1.026-2.104 19.983 9.746c5.633-12.005 8.04-24.418 7.136-36.914-.938-12.892-5.168-24.835-12.564-35.5-7.41-10.676-17.515-19.188-30.034-25.293zM-2.035 126.259l.521 1.049-6.771 3.375-.522-1.049 6.772-3.375zm91.041 44.404l1.51 7.414-1.148.235-1.51-7.415 1.148-.234zm-92.55-47.67l.477 1.068-6.914 3.082-.478-1.067 6.914-3.082zm96.052 46.849l1.83 7.347-1.134.28-1.83-7.346 1.134-.281zm3.464-.969l2.15 7.26-1.122.327-2.15-7.258 1.122-.329zM-4.913 119.67l.431 1.086-7.041 2.775-.432-1.086 7.042-2.775zm104.304 48.079l2.465 7.156-1.11.386-2.464-7.158 1.109-.384zM-6.134 116.285l.384 1.102-7.155 2.466-.383-1.104 7.154-2.464zm108.887 50.2l2.776 7.04-1.088.426-2.777-7.04 1.09-.425zm-109.96-53.63l.335 1.119-7.255 2.148-.334-1.12 7.255-2.147zm113.27 52.212l3.079 6.917-1.072.475-3.078-6.917 1.072-.475zm-114.19-55.694l.285 1.136-7.343 1.834-.286-1.137 7.344-1.833zm-.767-3.516l.232 1.153-7.416 1.508-.233-1.153 7.417-1.508zm118.2 57.65l3.377 6.773-1.05.526-3.378-6.773 1.05-.526zm3.17-1.695l3.668 6.62-1.025.568-3.669-6.62 1.027-.568zM-9.51 102.314l.183 1.16-7.475 1.184-.183-1.158 7.475-1.186zm125.08 57.668l3.953 6.453-1 .611-3.953-6.453 1-.611zM-9.97 98.752l.133 1.164-7.518.858-.134-1.165 7.518-.858zm128.549 59.262l4.234 6.274-.972.656-4.234-6.274.972-.656zM-10.275 95.168l.082 1.17-7.549.527-.081-1.17 7.548-.527zm131.777 60.744l4.502 6.084-.942.701-4.502-6.085.942-.7zM-10.418 91.57l.028 1.174-7.566.199-.028-1.175 7.566-.198zm134.749 62.123l4.762 5.88-.91.737-4.762-5.88.91-.737zM-10.41 87.976l-.02 1.17-7.568-.132.02-1.17 7.568.132zM89.75 103.427l-.716 35.014-3.575-1.744.602-29.463-22.882 18.597-3.577-1.745 27.192-22.1 2.956 1.441zM42.148 80.21l-.602 29.463 22.882-18.596 3.577 1.745-27.193 22.1-2.955-1.442.715-35.014 3.576 1.744zm84.91 71.143l5.015 5.668-.876.774-5.016-5.668.876-.774zM-10.247 84.385l-.07 1.168-7.552-.462.07-1.166 7.552.46zm139.93 64.507l5.255 5.445-.843.81-5.257-5.445.844-.81zM-9.924 80.802l-.119 1.163-7.527-.79.12-1.163 7.526.79zm142.117 65.518l5.492 5.208-.806.85-5.491-5.209.805-.849zM-9.443 77.24l-.173 1.157-7.482-1.12.173-1.158 7.482 1.12zm144.037 66.398l5.713 4.964-.769.888-5.712-4.964.768-.888zm-143.4-69.941l-.227 1.152-7.428-1.445.226-1.152 7.429 1.445zm145.68 67.16l5.923 4.71-.727.918-5.923-4.71.728-.919zM-8.017 70.186l-.276 1.139-7.358-1.767.276-1.139 7.358 1.767zm147.05 67.792l6.122 4.446-.686.949-6.123-4.448.687-.947zM-7.077 66.717l-.324 1.124-7.276-2.087.325-1.125 7.275 2.088zm148.138 68.291l6.31 4.177-.645.979-6.31-4.177.645-.979zM-5.988 63.288l-.372 1.111-7.177-2.4.374-1.112 7.175 2.4zm148.946 68.665l6.487 3.898-.603 1.008-6.488-3.897.604-1.009zM-4.748 59.912l-.423 1.097-7.065-2.713.423-1.096 7.065 2.712zm149.47 68.905l6.65 3.612-.559 1.03-6.65-3.61.558-1.032zM-3.363 56.592l-.469 1.075-6.939-3.018.468-1.074 6.94 3.017zm156.51 72.335l-.513 1.052-6.803-3.318.513-1.052 6.803 3.318zM-1.834 53.337l-.513 1.053-6.801-3.317.513-1.052 6.801 3.317zM112.659 72.12c1.671 2.436 2.621 5.17 2.822 8.132.196 2.956-.4 5.882-1.775 8.703-1.374 2.817-3.311 5.09-5.766 6.758-2.452 1.663-5.194 2.6-8.145 2.783-2.937.185-5.846-.417-8.652-1.786-2.805-1.368-5.062-3.291-6.717-5.71-1.656-2.43-2.595-5.162-2.794-8.119-.199-2.951.398-5.879 1.775-8.703 1.378-2.825 3.318-5.097 5.766-6.758 2.45-1.664 5.181-2.6 8.118-2.796 5.848-.37 12.043 2.64 15.368 7.496zM68.59 48.732c3.063 1.493 5.493 3.459 7.218 5.846 1.746 2.415 2.736 5.095 2.945 7.963.212 2.851-.375 5.718-1.74 8.518-1.366 2.8-3.264 5.027-5.643 6.618-2.387 1.598-5.108 2.468-8.086 2.579-2.935.109-5.978-.594-9.049-2.092L43 72.684l14.356-29.432zm86.18 76.618l-.47 1.075-6.938-3.018.468-1.074 6.94 3.017zM-6.816 46.54l6.65 3.611-.559 1.03-6.65-3.61.559-1.031zm111.147 23.13c-2.243-1.095-4.546-1.575-6.848-1.423-2.287.148-4.414.88-6.324 2.176-1.91 1.296-3.436 3.09-4.527 5.328-1.092 2.238-1.567 4.545-1.411 6.848.154 2.309.887 4.435 2.178 6.324 2.6 3.817 7.585 6.249 12.21 5.955 2.3-.142 4.433-.872 6.343-2.168 1.915-1.304 3.438-3.094 4.527-5.328 1.092-2.237 1.565-4.54 1.411-6.847-.155-2.304-.895-4.434-2.197-6.333-1.31-1.913-3.115-3.437-5.362-4.533zM67.025 51.94l-8.014-3.908-11.225 23.016 8.013 3.908c2.535 1.236 5.004 1.82 7.34 1.733 2.302-.087 4.4-.756 6.228-1.98 1.851-1.237 3.34-2.994 4.425-5.22 1.086-2.227 1.554-4.481 1.39-6.698-.16-2.199-.925-4.263-2.275-6.13-1.377-1.898-3.356-3.489-5.882-4.72zm-71.87-8.796l6.486 3.898-.603 1.008-6.487-3.897.604-1.01zm161.077 78.562l-.424 1.098-7.064-2.713.423-1.096 7.065 2.711zm1.303-3.705l-.373 1.111-7.177-2.401.374-1.111 7.176 2.4zM-2.727 39.836l6.31 4.176-.646.979-6.31-4.177.646-.978zm2.257-3.21l6.124 4.447-.686.949-6.124-4.449.686-.947zm159.144 77.62l-.324 1.124-7.273-2.087.324-1.124 7.273 2.087zM1.927 33.514l5.923 4.71-.727.919-5.923-4.71.727-.919zm157.723 76.927l-.275 1.138-7.359-1.767.276-1.138 7.358 1.767zM4.46 30.509l5.71 4.969-.769.888-5.71-4.97.769-.887zm156 76.086l-.227 1.152-7.43-1.44.226-1.152 7.43 1.44zM7.12 27.624l5.487 5.21-.806.85-5.487-5.212.805-.848zm153.978 75.1l-.173 1.156-7.487-1.116.173-1.157 7.487 1.117zm.469-3.894l-.124 1.16-7.524-.794.123-1.161 7.525.795zM9.897 24.855l5.26 5.44-.84.813-5.259-5.44.839-.813zm151.97 70.058l-.071 1.168-7.555-.463.07-1.167 7.555.462zM12.801 22.21l5.012 5.668-.876.774-5.013-5.667.877-.775zm149.193 68.777l-.02 1.17-7.566-.132.02-1.17 7.566.132zM15.815 19.689l4.764 5.882-.91.737-4.764-5.882.91-.737zm3.12-2.387l4.503 6.084-.943.701-4.501-6.085.941-.7zm143.02 69.755l.028 1.174-7.567.198-.028-1.174 7.566-.198zM22.156 15.061l4.232 6.273-.972.656-4.232-6.273.972-.656zm139.583 68.08l.081 1.17-7.55.525-.082-1.17 7.55-.526zM25.475 12.957l3.953 6.453-1 .612-3.953-6.453 1-.612zm135.878 66.273l.134 1.164-7.518.858-.134-1.164 7.518-.858zm-.554-3.89l.184 1.16-7.475 1.183-.183-1.157 7.474-1.186zM28.88 11l3.667 6.62-1.025.569-3.668-6.62L28.879 11zm3.487-1.806l3.378 6.773-1.052.526-3.377-6.773 1.051-.526zm127.71 62.288l.232 1.153-7.416 1.508-.233-1.153 7.417-1.508zM35.928 7.545l3.078 6.913-1.072.475-3.077-6.912 1.07-.476zm123.255 60.116l.286 1.137-7.346 1.828-.281-1.135 7.341-1.83zm-1.057-3.782l.335 1.12-7.258 2.15-.334-1.12 7.257-2.15zM39.56 6.049l2.772 7.043-1.088.426-2.772-7.043 1.088-.426zm117.348 54.095l.38 1.11-7.158 2.465-.378-1.112 7.156-2.463zM43.251 4.715l2.463 7.155-1.106.378-2.462-7.156 1.105-.377zM155.522 56.47l.429 1.095-7.042 2.77-.428-1.095 7.041-2.77zM47 3.54l2.15 7.254-1.124.332-2.15-7.253L47 3.539zm3.794-1.006l1.83 7.343-1.135.28-1.83-7.34 1.135-.283zM153.98 52.862l.475 1.067-6.913 3.077-.477-1.067 6.915-3.077zm-1.699-3.542l.522 1.049-6.772 3.375-.521-1.049 6.771-3.375zM54.628 1.691l1.51 7.415-1.148.234-1.51-7.414 1.148-.235zm3.871-.672l1.182 7.474-1.156.18-1.183-7.475L58.5 1.02zm91.931 44.838l.57 1.021-6.619 3.67-.57-1.022 6.619-3.669zm-2-3.382l.611 1-6.45 3.954-.612-1 6.451-3.954zM62.393.512l.858 7.519-1.165.134-.858-7.52 1.165-.133zm83.892 38.676l.656.972-6.273 4.23-.656-.972 6.273-4.23zM66.305.18l.53 7.547-1.17.081-.53-7.547 1.17-.081zm3.923-.163l.198 7.563-1.17.03-.198-7.563 1.17-.03zm73.77 35.98l.697.94-6.083 4.5-.697-.94 6.083-4.5zM74.155.023l-.132 7.57-1.17-.02.132-7.57 1.17.02zm67.419 32.882l.737.91-5.882 4.766-.737-.91 5.882-4.766zM78.079.206l-.464 7.552-1.169-.072.464-7.55 1.169.07zm60.937 29.722l.776.877-5.665 5.014-.776-.877 5.665-5.014zM81.991.558l-.792 7.523-1.167-.122.79-7.524 1.169.122zm54.34 26.503l.816.845-5.445 5.254-.815-.844 5.444-5.255zM85.881 1.075l-1.117 7.482-1.16-.169L84.721.906l1.16.17zm47.645 23.239l.848.809-5.21 5.487-.846-.81 5.208-5.486zm-43.78-22.55l-1.443 7.43-1.147-.224 1.442-7.43 1.148.223zm40.857 19.927l.883.767-4.964 5.712-.883-.766 4.964-5.713zM93.58 2.62l-1.768 7.363-1.14-.271 1.77-7.363 1.138.271zM127.57 19.2l.915.73-4.713 5.928-.916-.732 4.713-5.926zM97.367 3.649l-2.085 7.275-1.124-.325 2.085-7.274 1.124.323zm27.058 13.196l.947.688-4.447 6.122-.948-.687 4.448-6.123zM101.113 4.834l-2.401 7.18-1.114-.368 2.403-7.181 1.112.369zm20.073 9.79l.975.65-4.177 6.315-.976-.65 4.178-6.315zm-16.389-8.435l-2.71 7.066-1.093-.421 2.71-7.066 1.093.42zm13.053 6.366l1.004.602-3.896 6.487-1.005-.602 3.897-6.487zm-9.426-4.857l-3.018 6.94-1.076-.462 3.017-6.943 1.077.465zm6.005 2.929l1.029.561-3.612 6.653-1.027-.563 3.61-6.651zm-2.45-1.262l-3.317 6.801-1.052-.513 3.317-6.801 1.052.513z" opacity=".2"/>
</svg>
