<svg xmlns="http://www.w3.org/2000/svg" width="72" height="95" viewBox="0 0 72 95">
    <g fill="none" fill-rule="evenodd">
        <circle cx="36" cy="36" r="36" fill="#697767"/>
        <path fill="#F0F1EE" d="M36.221 67.141V70h-.442v-2.859h.442zm1.358-.04l.125 2.857-.442.021-.125-2.857.442-.02zm-3.159 0l.443.021-.125 2.857-.443-.02.125-2.857zm-1.354-.098l.44.038-.25 2.848-.44-.038.25-2.848zm5.869 0l.248 2.848-.44.038-.25-2.848.442-.038zm-7.22-.157l.44.058-.374 2.835-.439-.059.374-2.834zm8.57 0l.372 2.834-.44.059-.371-2.835.438-.058zm1.34-.216l.497 2.815-.436.076-.496-2.815.436-.076zm-11.25 0l.435.076-.497 2.815-.436-.076.498-2.815zm-1.331-.275l.432.097-.619 2.791-.432-.097.619-2.791zm13.912 0l.62 2.791-.433.097-.619-2.791.432-.097zm-15.229-.332l.427.114-.74 2.762-.428-.114.741-2.762zm16.546 0l.74 2.762-.427.114-.74-2.762.427-.114zm-17.848-.389l.421.132-.86 2.727-.421-.131.86-2.728zm19.15 0l.86 2.728-.422.131-.86-2.727.421-.132zm-20.435-.447l.417.152-.977 2.687-.417-.152.977-2.687zm21.719 0l.978 2.687-.417.152-.978-2.687.417-.152zm-22.98-.502l.408.17-1.093 2.642-.41-.169 1.094-2.643zm24.243 0l1.094 2.643-.41.17-1.093-2.643.409-.17zm-25.483-.554l.4.186-1.208 2.591-.4-.187 1.208-2.59zm26.722 0l1.208 2.59-.4.187-1.209-2.59.401-.187zm-27.937-.61l.392.204-1.32 2.535-.392-.204 1.32-2.535zm29.151 0l1.32 2.535-.392.204-1.32-2.535.392-.204zm-30.337-.662l.383.22-1.43 2.478-.383-.222 1.43-2.476zm31.524 0l1.43 2.476-.384.222-1.429-2.477.383-.221zm-32.68-.714l.373.239-1.537 2.41-.373-.238 1.536-2.41zm33.837 0l1.535 2.411-.373.239-1.535-2.411.373-.239zM35.956 7.325c5.416 0 10.401 1.256 14.82 3.729 4.418 2.474 7.943 5.94 10.478 10.298C63.786 25.716 65.07 30.643 65.07 36c0 5.36-1.284 10.287-3.816 14.647-2.533 4.359-6.059 7.824-10.479 10.299-4.416 2.475-9.402 3.73-14.819 3.73-5.416 0-10.388-1.255-14.776-3.73-4.39-2.475-7.9-5.94-10.433-10.3C8.214 46.286 6.93 41.359 6.93 36c0-5.357 1.284-10.285 3.817-14.647 2.534-4.359 6.043-7.824 10.433-10.298 4.39-2.473 9.361-3.728 14.776-3.728zm-18 54.058l.363.252-1.64 2.342-.362-.252 1.639-2.342zm36.087 0l1.64 2.342-.363.252-1.64-2.342.363-.252zM35.956 8.21c-5.261 0-10.087 1.217-14.342 3.614-4.25 2.396-7.649 5.752-10.101 9.974-2.377 4.092-3.616 8.704-3.691 13.716h8.399v.884h-8.4c.062 5.047 1.3 9.689 3.692 13.802 2.451 4.222 5.85 7.579 10.1 9.974 4.256 2.399 9.08 3.615 14.343 3.615 5.264 0 10.104-1.216 14.387-3.615 4.28-2.397 7.694-5.752 10.145-9.974 2.39-4.113 3.63-8.756 3.692-13.802h-8.4v-.884h8.399c-.076-5.01-1.315-9.623-3.69-13.716-2.454-4.222-5.868-7.577-10.146-9.974-4.284-2.397-9.125-3.614-14.387-3.614zm-19.09 52.362l.351.27-1.74 2.267-.35-.27 1.74-2.267zm38.267 0l1.74 2.268-.35.27-1.741-2.268.35-.27zm-39.32-.859l.339.284-1.837 2.191-.339-.283 1.837-2.192zm40.373 0l1.838 2.192-.339.283-1.838-2.191.339-.284zm1.016-.902l1.932 2.109-.327.297-1.932-2.109.327-.297zm-42.404 0l.326.297-1.93 2.109-.328-.297 1.932-2.109zm43.378-.948l2.022 2.021-.313.315-2.022-2.022.313-.314zm-44.353.001l.313.311-2.021 2.022-.313-.31 2.021-2.023zm45.286-.987l2.108 1.931-.299.325-2.109-1.93.3-.326zm-46.218 0l.299.325-2.108 1.93-.299-.324 2.108-1.93zm47.107-1.03l2.19 1.84-.285.338-2.19-1.839.285-.339zm-47.996 0l.284.34-2.189 1.838-.285-.339 2.19-1.839zm-.843-1.066l.27.353-2.269 1.74-.27-.353 2.269-1.74zm49.681 0l2.269 1.74-.27.353-2.269-1.74.27-.353zm.796-1.101l2.342 1.64-.254.363-2.342-1.64.254-.363zm-51.273 0l.254.363-2.342 1.64-.253-.363 2.34-1.64zm52.02-1.134l2.411 1.537-.238.373-2.41-1.536.237-.374zm-52.766 0l.238.374-2.41 1.536-.24-.373 2.412-1.537zm53.462-1.166l2.477 1.429-.222.384-2.476-1.43.221-.383zm-54.159 0l.221.384-2.475 1.429-.222-.384L8.92 51.38zm54.804-1.198l2.536 1.32-.204.395-2.536-1.321.204-.394zm-55.448 0l.203.394-2.536 1.32-.204-.394 2.537-1.32zm56.04-1.222l2.591 1.209-.186.4-2.591-1.208.187-.4zm-56.633 0l.187.401L5.28 50.57l-.187-.4 2.591-1.209zm16.56-11.34l4.674 10.103 4.69-10.103h1.504l-5.573 12.007h-1.243L22.74 37.62h1.503zm20.007 0l5.556 12.007h-1.503l-4.675-10.104-4.69 10.104h-1.503l5.573-12.007h1.242zm20.605 10.094l2.642 1.094-.17.408-2.642-1.094.17-.408zm-57.71 0l.169.408-2.641 1.094-.17-.408 2.641-1.094zm58.194-1.27l2.686.978-.152.415-2.686-.978.152-.415zm-58.679 0l.153.415-2.687.978-.152-.415 2.686-.978zm59.106-1.29l2.727.86-.133.421-2.727-.859.133-.421zm-59.533 0l.133.422-2.726.86-.133-.422 2.726-.86zm59.903-1.308l2.762.74-.114.429-2.761-.74.113-.429zm-60.273 0l.114.43-2.762.739-.114-.43 2.762-.739zm60.587-1.322l2.791.619-.095.432-2.79-.619.094-.432zm-60.9 0l.094.432-2.791.619-.095-.432 2.791-.619zm61.156-1.334l2.815.496-.076.436-2.815-.497.076-.435zm-61.412 0l.076.435-2.816.497-.076-.436 2.816-.496zm61.61-1.345l2.833.374-.057.439-2.834-.374.057-.439zm-61.808 0l.057.44-2.834.373-.057-.44 2.834-.373zm61.945-1.351l2.848.249-.038.442-2.848-.249.038-.442zm-62.083 0l.038.442-2.848.25-.038-.443 2.848-.25zm62.163-1.357l2.856.125-.02.442-2.855-.124.019-.443zm-62.242 0l.019.443-2.856.124-.02-.442 2.857-.125zM70 35.779v.442h-2.86v-.442H70zm-65.141 0v.442H2v-.442h2.859zm41.986-12.584c.97.551 1.746 1.322 2.304 2.294.557.972.839 2.064.839 3.25 0 1.183-.281 2.276-.839 3.249-.557.97-1.333 1.743-2.304 2.294-.967.549-2.055.826-3.234.826-1.179 0-2.264-.28-3.226-.826-.965-.55-1.736-1.323-2.293-2.294-.557-.97-.839-2.062-.839-3.25 0-1.187.282-2.28.839-3.249.556-.97 1.328-1.741 2.293-2.294 1.924-1.094 4.526-1.097 6.46 0zm-18.837-.643c1.287 0 2.438.265 3.418.79.993.53 1.773 1.277 2.32 2.216.543.933.819 2.004.819 3.18 0 1.177-.276 2.248-.82 3.182-.546.938-1.326 1.684-2.319 2.215-.978.523-2.128.788-3.418.788h-4.723v-12.37zm41.95 11.744l.019.442-2.856.125-.02-.442 2.857-.125zm-67.917 0l2.856.125-.019.442-2.856-.125.02-.442zm41.57-10.554c-.943 0-1.804.219-2.56.652-.752.429-1.354 1.03-1.787 1.786-.434.756-.655 1.618-.655 2.559 0 .94.22 1.802.655 2.558.434.759 1.036 1.36 1.786 1.787 1.515.866 3.611.866 5.132 0 .758-.43 1.362-1.03 1.795-1.787.434-.76.655-1.62.655-2.558 0-.94-.22-1.801-.655-2.56-.434-.756-1.038-1.356-1.795-1.785-.761-.433-1.626-.652-2.57-.652zm-15.603.159H24.64v9.674h3.368c1.065 0 2-.211 2.779-.627.767-.411 1.369-.986 1.787-1.704.423-.727.638-1.57.638-2.505 0-.936-.215-1.78-.637-2.505-.42-.72-1.02-1.294-1.788-1.705-.782-.416-1.717-.628-2.78-.628zm-25.86 8.915l2.848.25-.038.442-2.848-.249.038-.443zm67.703 0l.038.443-2.848.249-.038-.442 2.848-.25zm-.171-1.474l.057.44-2.834.373-.057-.44 2.834-.373zm-67.36 0l2.833.374-.057.439-2.834-.374.057-.439zm.234-1.463l2.816.495-.076.436-2.816-.496.076-.435zm66.891 0l.076.435-2.815.496-.076-.436 2.815-.495zM2.853 28.425l2.791.619-.095.432-2.791-.619.095-.432zm66.293 0l.095.432-2.79.619-.096-.432 2.791-.619zm-65.931-1.44l2.762.742-.114.429-2.762-.742.114-.429zm65.57 0l.113.429-2.762.742-.113-.43 2.761-.74zM3.64 25.565l2.726.86-.133.422-2.726-.86.133-.422zm64.72 0l.133.421-2.727.861-.133-.421 2.727-.86zm-.486-1.4l.15.415-2.686.976-.15-.414 2.686-.977zm-63.75 0l2.688.977-.15.414-2.688-.976.15-.415zm63.203-1.38l.17.409-2.642 1.094-.17-.408 2.642-1.094zm-62.654 0l2.64 1.095-.169.408-2.64-1.094.169-.408zm62.047-1.354l.187.4-2.59 1.209-.187-.4 2.59-1.209zm-61.441 0l2.591 1.208-.187.4-2.591-1.207.187-.401zm.664-1.327l2.536 1.32-.204.394-2.536-1.32.204-.394zm60.113 0l.204.393-2.536 1.321-.204-.394 2.536-1.32zm-59.39-1.295l2.475 1.43-.221.383-2.476-1.429.222-.384zm58.669 0l.22.384-2.476 1.43-.221-.385 2.477-1.429zM7.444 17.546l2.41 1.536-.238.374-2.41-1.537.238-.373zm57.112 0l.238.373-2.41 1.537-.239-.374 2.411-1.536zm-.832-1.23l.254.364-2.342 1.64-.254-.363 2.342-1.64zm-55.448 0l2.34 1.641-.253.363-2.342-1.64.255-.363zm.884-1.19l2.269 1.74-.27.353-2.269-1.74.27-.353zm53.679 0l.27.353-2.269 1.74-.27-.353 2.269-1.74zm-52.742-1.15l2.19 1.838-.286.339-2.189-1.837.285-.34zm51.806 0l.285.34-2.191 1.837-.284-.339 2.19-1.837zm-.985-1.108l.3.324-2.11 1.933-.298-.325 2.108-1.932zm-49.836 0l2.107 1.932-.298.325-2.108-1.933.299-.324zM59.885 11.8l.313.315-2.022 2.022-.313-.315 2.022-2.022zm-47.77.002l2.02 2.022-.312.311-2.021-2.022.313-.311zm46.692-1.02l.327.301-1.933 2.107-.326-.301 1.932-2.107zm-45.614 0l1.932 2.107-.327.299-1.931-2.107.326-.299zm1.122-.97l1.837 2.19-.339.284-1.837-2.19.339-.284zm43.37 0l.339.284-1.838 2.19-.339-.284 1.838-2.19zm-1.163-.92l.35.27-1.74 2.267-.35-.27 1.74-2.268zm-41.045 0l1.74 2.267-.35.27-1.74-2.268.35-.27zm1.203-.87l1.639 2.342-.363.252-1.64-2.342.364-.252zm38.64 0l.363.252-1.64 2.342-.363-.252 1.64-2.342zm-1.24-.817l.374.238-1.535 2.411-.374-.238 1.536-2.411zm-36.162 0l1.537 2.41-.374.24-1.536-2.412.373-.238zm34.89-.76l.384.22-1.43 2.475-.383-.221 1.43-2.475zm-33.616 0l1.43 2.474-.385.221-1.429-2.475.384-.22zm1.305-.706l1.32 2.536-.393.203-1.32-2.535.393-.204zm31.006 0l.393.204-1.32 2.535-.393-.203 1.32-2.536zm-29.672-.648l1.209 2.592-.401.187-1.209-2.592.4-.187zm28.337 0l.401.187-1.208 2.592-.4-.187 1.207-2.592zm-26.974-.588l1.093 2.641-.409.17-1.093-2.641.409-.17zm25.612 0l.41.17-1.094 2.64-.409-.169 1.093-2.64zM24.58 3.976l.977 2.685-.416.152-.978-2.685.417-.152zm22.84 0l.417.152-.978 2.685-.417-.152.978-2.685zm-21.434-.469l.86 2.726-.421.134-.86-2.725.421-.135zm20.027 0l.421.135-.86 2.725-.421-.134.86-2.726zm-18.6-.406l.74 2.762-.426.114-.74-2.762.426-.114zm17.173 0l.427.114-.74 2.762-.427-.114.74-2.762zm-15.73-.344l.62 2.793-.432.097-.619-2.793.432-.097zm14.287 0l.432.097-.619 2.793-.432-.097.62-2.793zm-12.83-.278l.497 2.815-.435.076-.497-2.815.435-.076zm11.373 0l.436.076-.497 2.815-.435-.076.496-2.815zM31.78 2.26l.374 2.836-.44.059-.373-2.836.44-.06zm8.437 0l.439.059-.373 2.836-.439-.059.373-2.836zm-6.962-.15l.25 2.848-.44.038-.25-2.848.44-.038zm5.487 0l.44.038-.248 2.848-.441-.038.249-2.848zm-4.005-.088l.125 2.856-.443.021-.125-2.857.443-.02zm2.524 0l.442.02L37.58 4.9l-.443-.02.125-2.857zM36.222 2v2.859h-.443V2h.442z"/>
        <path fill="#697767" d="M35 72H37V95H35z"/>
    </g>
</svg>
