<svg xmlns="http://www.w3.org/2000/svg" width="91" height="56" viewBox="0 0 91 56">
    <path fill="#E7EBEF" fill-rule="evenodd" d="M90.117 37.57c0 7.666-4.704 14.236-11.391 17.016-1.504.899-3.26 1.414-5.141 1.414h-55.47c-.46 0-.913-.032-1.357-.093-4.035-.403-7.687-2.096-10.536-4.659C2.472 47.875.117 42.996.117 37.569c0-9.3 6.915-16.985 15.903-18.247 1.344-7.275 7.745-12.789 15.439-12.789 2.566 0 4.984.617 7.122 1.703C42.666 3.213 48.904 0 55.9 0c3.74 0 7.265.919 10.358 2.542l.005.003c5.555 2.916 9.72 8.104 11.251 14.323l.032.128c3.19.384 5.668 3.037 5.759 6.293 1.847 1.501 3.397 3.35 4.55 5.447 1.443 2.621 2.263 5.631 2.263 8.833"/>
</svg>
