<svg xmlns="http://www.w3.org/2000/svg" width="57" height="48" viewBox="0 0 57 48">
    <g fill="none" fill-rule="evenodd">
        <path fill="#0C1975" fill-rule="nonzero" d="M39.87 0L39.856 0.002 39.851 0.002 39.839 0 16.475 0.022 16.467 0.022 16.457 0.022 15.793 0.04 15.163 0.091 14.54 0.176 13.929 0.293 13.328 0.441 12.739 0.619 12.162 0.826 11.597 1.063 11.049 1.326 10.514 1.617 9.994 1.935 9.492 2.277 9.007 2.643 8.539 3.032 8.09 3.445 7.659 3.88 7.25 4.337 6.861 4.813 6.495 5.309 6.151 5.823 5.829 6.355 5.531 6.904 5.26 7.468 5.011 8.047 4.793 8.642 4.598 9.251 4.432 9.873 4.295 10.506 4.188 11.15 4.109 11.804 4.062 12.467 4.046 13.141 4.062 13.813 4.111 14.477 4.192 15.133 4.301 15.777 4.439 16.41 4.606 17.029 4.801 17.639 5.021 18.232 5.27 18.813 5.544 19.377 5.841 19.926 6.163 20.456 6.509 20.97 6.877 21.464 7.266 21.94 7.677 22.395 8.108 22.828 8.557 23.241 9.027 23.63 9.513 23.996 10.016 24.338 10.535 24.654 11.071 24.943 11.619 25.206 12.186 25.441 12.763 25.647 13.352 25.826 13.953 25.971 14.564 26.087 15.188 26.17 15.819 26.218 16.451 26.234 16.497 26.234 16.499 26.234 16.507 26.234 39.916 26.212 40.548 26.196 41.177 26.145 41.801 26.06 42.412 25.943 43.013 25.797 43.602 25.619 44.179 25.411 44.743 25.174 45.292 24.911 45.828 24.621 46.348 24.304 46.85 23.961 47.336 23.595 47.804 23.205 48.253 22.792 48.684 22.356 49.093 21.901 49.481 21.423 49.848 20.93 50.194 20.416 50.514 19.883 50.811 19.335 51.084 18.77 51.331 18.189 51.552 17.594 51.746 16.987 51.912 16.366 52.05 15.732 52.157 15.086 52.236 14.433 52.283 13.769 52.299 13.095 52.283 12.423 52.234 11.759 52.155 11.105 52.046 10.46 51.906 9.828 51.738 9.207 51.544 8.598 51.323 8.005 51.074 7.424 50.801 6.861 50.501 6.313 50.18 5.78 49.834 5.266 49.467 4.772 49.077 4.297 48.668 3.841 48.235 3.408 47.785 2.995 47.316 2.607 46.83 2.241 46.326 1.9 45.806 1.585 45.272 1.293 44.721 1.03 44.156 0.795 43.578 0.589 42.989 0.413 42.387 0.265 41.776 0.15 41.153 0.067 40.523 0.018z"/>
        <path fill="#FFF" d="M21.51 6.438L21.063 9.622 15.204 9.628 14.929 11.468 20.11 11.464 19.665 14.463 14.5 14.469 14.208 16.641 20.45 16.635 20.021 19.855 9.761 19.865 11.666 6.448zM35.235 9.83L35.733 6.426 46.814 6.416 46.28 9.82 42.853 9.822 41.481 19.835 37.429 19.839 38.817 9.826z"/>
        <g>
            <path fill="#FFF" d="M27.107 10.243h-.972l.96-6.847c.574 0 1.13 0 1.704.053 1.321.184 1.674 1.508 1.676 2.722 0 1.637-.567 3.92-2.464 4.034-.3.03-.602.043-.904.036M23.563.161l-1.89 13.418h5.869c4.594 0 6.952-3.006 6.944-7.68-.055-2.576-1.399-5.207-4.01-5.628-.623-.071-1.25-.107-1.878-.107L23.563.162z" transform="translate(0 6.274)"/>
            <path fill="#F37037" fill-rule="nonzero" d="M0 40.588l1.769-.125 1.769-.095 3.546-.185 3.538-.137c1.18-.045 2.36-.067 3.538-.103l1.768-.049 1.761-.022 3.54-.059 7.084-.043c2.358.017 4.716.019 7.084.045 2.368.026 4.718.063 7.084.138 1.18.036 2.357.058 3.537.103l3.538.138 3.538.184 1.769.093 1.769.125v.085l-28.303.049L0 40.68v-.093z" transform="translate(0 6.274)"/>
            <path fill="#0C1975" fill-rule="nonzero" d="M13.987 32.124c-.07.61-.249 1.2-.528 1.747-.265.524-.623.995-1.056 1.39-.437.396-.943.707-1.494.917-.585.224-1.207.336-1.834.33-.598.01-1.193-.102-1.746-.33-.489-.204-.924-.518-1.271-.917-.343-.403-.59-.878-.723-1.39-.146-.57-.18-1.164-.101-1.747.07-.61.25-1.2.53-1.747.538-1.06 1.45-1.882 2.56-2.307.582-.221 1.2-.332 1.822-.328.41-.003.818.048 1.214.15.356.094.697.238 1.012.429.297.18.563.406.788.67.225.264.41.561.546.88.141.337.235.692.28 1.055.049.398.049.8 0 1.198m-1.642 0c.058-.42.046-.848-.036-1.265-.07-.346-.216-.671-.427-.953-.206-.266-.475-.475-.784-.607-.353-.143-.732-.212-1.113-.203-.397-.006-.792.063-1.164.203-.349.137-.667.344-.935.607-.278.274-.503.597-.664.953-.178.401-.293.828-.34 1.265-.06.421-.048.85.037 1.267.068.345.215.67.429.95.208.26.48.465.787.594.353.144.732.213 1.113.203.398.006.793-.062 1.164-.203.347-.133.664-.336.931-.595.275-.272.497-.592.656-.945.182-.403.3-.832.348-1.271M18.03 31.424h-.9l-.074.625-.077.624-.077.623-.077.623-.077.624-.077.623-.075.623-.075.624h-1.477l.077-.624.077-.62.077-.624.077-.624.075-.621.076-.623.077-.624.077-.621-.067-.012-.064-.01-.065-.01h-.065l-.065-.01h-.066l-.065-.01-.065-.01h-.04l-.04-.013-.037-.012-.033-.014-.032-.017-.028-.018-.029-.018-.024-.022-.022-.022-.019-.025s0-.018-.014-.028v-.028-.033-.034-.037-.038l.01-.075v-.524h.96v-.344l.018-.13c0-.042.014-.083.024-.125.01-.043.016-.081.027-.122.01-.04.02-.08.032-.12.012-.038.022-.076.036-.115.015-.038.027-.074.04-.11l.047-.11.049-.105.055-.102c.018-.034.038-.066.058-.099l.061-.093c.022-.032.045-.06.067-.09.022-.031.044-.06.069-.088l.073-.08c.026-.03.052-.054.078-.08l.081-.075.083-.07.09-.067.09-.061.136-.093c.033-.018.065-.037.1-.053.032-.018.066-.034.1-.048l.106-.047.109-.04.113-.037.114-.03.12-.027.119-.022.123-.016c.043 0 .083-.01.125-.012h.57l.098.012.096.016.093.018.09.025.09.026-.014.091-.017.091-.014.091-.016.091-.014.091-.014.092-.016.09-.015.092v.123l-.012.014-.012.012-.014.013-.014.012-.014.01h-.015l-.016.01H18.195l-.056.01-.055.012-.055.012-.052.017c-.018.004-.035.01-.05.018l-.05.02-.048.022-.047.027-.042.028-.043.03-.042.035c-.014.01-.027.023-.039.036-.013.012-.025.025-.036.039-.013.013-.025.027-.036.042l-.035.045-.032.046-.03.05-.029.053-.026.055-.025.059c0 .02-.016.042-.022.062l-.022.067-.018.07c-.007.023-.012.047-.016.072 0 .024-.013.049-.017.075l-.012.079-.012.083v.297h.917l-.136 1.142zm.71-1.043h.917v-.54l.018-.13.024-.125c0-.04.016-.08.026-.121.01-.04.02-.08.033-.12l.036-.115c.012-.037.026-.075.04-.112l.047-.109.049-.105.054-.101c.019-.035.039-.067.06-.1l.06-.093.067-.09.068-.086c.025-.028.049-.056.075-.083l.077-.079.081-.074c.027-.025.055-.047.083-.07.029-.021.059-.046.09-.066l.09-.063.095-.056c.033-.02.065-.037.1-.055l.1-.049.108-.044c.034-.016.07-.029.107-.043l.114-.034.115-.032.117-.027.12-.022.123-.016.126-.012H22.81l.048.01.047.012.047.012.044.012-.014.091-.016.093-.016.091-.017.094-.016.09-.014.094-.016.09-.016.094v.04c-.004.013-.009.025-.015.037-.004.012-.01.023-.018.032-.005.011-.012.021-.02.03l-.024.025-.03.022-.033.016c-.01.006-.022.01-.034.012l-.039.013H22.036l-.056.01-.055.012-.054.012-.053.016-.05.018-.05.02-.048.023-.044.026-.045.029-.042.03-.04.034-.041.037-.037.038-.036.043-.034.044-.033.047-.028.05c0 .019-.02.035-.028.053l-.029.057-.024.058c0 .02-.016.04-.022.061-.006.02-.015.045-.02.067-.009.022-.015.045-.02.069 0 .024-.013.048-.017.073-.004.024 0 .05-.016.074l-.012.081-.013.083v.492h1.58l-.017.13-.016.131-.016.13-.017.131-.016.13-.016.131-.016.13-.016.13h-1.54l-.077.625-.077.623-.077.624-.077.623-.077.623-.075.624-.077.623-.077.624h-1.47l.076-.624.077-.623.076-.624.077-.623.077-.623.077-.624.077-.623.075-.625h-.907l.12-.938zM27.12 31.513c-.036.055-.085.1-.143.133-.053.028-.112.041-.172.039-.078-.001-.154-.021-.223-.059l-.27-.133c-.114-.054-.231-.098-.35-.134-.157-.042-.319-.061-.48-.059-.25-.012-.497.053-.709.184-.17.106-.282.282-.306.48-.02.118.011.238.087.33.088.098.194.178.312.235.148.072.302.133.46.18.172.053.348.111.526.174.178.063.35.136.52.217.164.078.314.182.443.31.127.125.225.278.286.447.066.202.083.418.05.629-.033.284-.12.558-.257.81-.137.248-.324.465-.548.64-.245.188-.523.331-.82.42-.348.106-.71.157-1.073.152-.203 0-.407-.018-.607-.057-.191-.035-.379-.087-.56-.156-.17-.064-.332-.144-.486-.238-.137-.085-.264-.184-.379-.296l.405-.559c.048-.062.107-.114.174-.153.073-.037.153-.055.235-.053.09 0 .177.027.25.077.076.05.163.105.264.166.114.066.234.122.358.166.176.056.36.082.545.077.154.003.309-.018.457-.063.119-.035.231-.09.332-.162.083-.063.152-.143.202-.235.049-.084.08-.178.091-.275.023-.123-.007-.25-.085-.35-.086-.1-.192-.181-.311-.239-.15-.072-.303-.132-.462-.18-.174-.053-.352-.111-.534-.174-.18-.063-.357-.138-.528-.223-.166-.081-.317-.19-.446-.324-.125-.134-.22-.294-.275-.47-.065-.222-.08-.457-.044-.687.031-.25.112-.493.236-.713.131-.228.305-.429.513-.59.233-.178.494-.315.773-.405.327-.105.668-.156 1.012-.152.385-.008.768.06 1.127.202.307.12.584.306.81.547l-.4.524zM30.088 30.98c.26-.217.548-.398.856-.54.326-.14.68-.21 1.034-.202.3-.008.596.05.87.168.235.105.438.268.592.473.153.219.257.468.303.731.056.309.063.624.02.935l-.475 3.872h-1.476l.476-3.872c.059-.297.005-.605-.152-.864-.18-.222-.46-.338-.745-.31-.256.001-.508.06-.738.172-.25.124-.483.282-.69.47l-.54 4.4h-1.478l1.082-8.814h1.478l-.417 3.382zM38.062 30.234c.416-.008.828.066 1.215.218.338.135.64.349.88.624.24.284.409.62.492.983.097.426.115.867.055 1.3-.051.453-.178.894-.375 1.305-.18.373-.43.71-.735.99-.3.274-.65.488-1.032.63-.406.148-.835.222-1.267.218-.415.006-.827-.068-1.214-.219-.34-.136-.643-.352-.883-.63-.237-.287-.406-.626-.493-.989-.1-.428-.12-.87-.057-1.305.047-.451.171-.89.366-1.3.182-.37.432-.704.737-.983.302-.273.654-.484 1.036-.624.409-.148.84-.222 1.275-.218m-.631 5.14c.456.024.897-.164 1.196-.51.322-.435.513-.953.55-1.493.081-.656.02-1.158-.184-1.502-.204-.344-.558-.516-1.068-.516-.464-.024-.912.168-1.215.52-.326.435-.52.955-.556 1.498-.081.651-.016 1.15.19 1.491.206.342.569.512 1.087.512M43.371 31.383c.206-.332.472-.622.785-.856.282-.206.623-.315.972-.312.234-.014.466.05.658.185l-.229 1.097c-.02.058-.057.11-.105.15-.047.03-.102.046-.158.044-.088-.002-.177-.012-.263-.028-.113-.02-.226-.03-.34-.03-.152-.002-.302.022-.446.07-.132.047-.257.116-.368.202-.116.094-.22.203-.308.324-.1.138-.191.283-.27.433l-.462 3.749H41.36l.747-6.086h.866c.11-.013.22.015.308.08.062.083.092.185.083.288l.006.69zM47.174 33.555c-.018.272.005.545.069.81.049.206.143.398.277.562.126.149.288.263.47.332.205.076.423.113.641.11.212.004.424-.024.628-.084.164-.048.324-.11.477-.184.138-.067.26-.127.363-.184.09-.051.191-.08.295-.083.106-.01.207.045.257.138l.36.534c-.181.184-.385.345-.607.478-.213.125-.439.228-.674.307-.226.076-.46.131-.696.164-.223.03-.447.046-.672.047-.397.007-.792-.062-1.164-.203-.339-.133-.64-.347-.878-.623-.247-.293-.423-.64-.514-1.012-.11-.464-.13-.945-.06-1.417.048-.407.165-.803.345-1.172.176-.356.413-.679.7-.953.615-.576 1.428-.892 2.27-.882.357-.005.712.058 1.046.184.299.114.565.299.777.538.214.25.368.545.447.865.093.383.112.78.057 1.171-.008.157-.052.31-.128.448-.07.085-.179.129-.289.117l-3.797-.008zm2.925-.884c.023-.179.018-.36-.017-.537-.029-.16-.092-.31-.186-.443-.097-.13-.226-.233-.374-.3-.177-.077-.37-.114-.563-.109-.383-.015-.758.115-1.05.362-.296.276-.503.633-.595 1.027h2.785z" transform="translate(0 6.274)"/>
        </g>
    </g>
</svg>
