<svg xmlns="http://www.w3.org/2000/svg" width="74" height="48" viewBox="0 0 74 48">
    <g fill="none">
        <path fill="#005396" d="M0 .001L0 27.528 72.858 27.528 72.858.001zM72.21 35.925v-1.594h-3.374v-3.114H67v3.114h-5.908v-3.114l-1.835-.004v3.118h-3.715v1.594h3.71v4.15s-.007 1.218-.024 1.58h-3.723v1.597l3.47-.01c-.298 1.32-1.266 2.364-3.486 2.847l-.002 1.62c3.515-.443 4.929-2.382 5.43-4.453h-.005H67v4.47h1.836l-.003-4.471h3.39l-.001-1.608h-3.386v-5.723h3.374v.001zM61.078 41.65c.01-.634.014-1.824.014-1.824v-3.9H67v5.724h-5.922m-23.421 3.563v1.647h15.74v-1.646h-15.74m1.418-6.477v1.615h12.844v-1.614H39.075m-.768-4.781h14.532v-1.613H38.307v1.613zm-21.422.305v-1.448h-7.39v-1.395H7.7v1.395H.49v1.448h3.437c.168.671.486 1.354.688 1.986H.82V47.704h1.8v-5.395c.877-.081 1.6-.258 2.197-.496V46.611h7.452v1.083h2.514c1.862-.137 1.756-2.314 1.756-2.314V36.25h-3.801c.249-.569.51-1.252.682-1.986h3.465v-.002zm-5.363 0c-.123.482-.378 1.116-.782 1.986H6.612c-.2-.603-.444-1.347-.66-1.986h5.57zM2.62 37.725l3.116-.004c-.035.868-.291 2.225-3.116 2.74v-2.738.002zm3.992 5.394h4.008v2.027H6.611V43.12zm8.133 1.97c-.03.728-.482.784-.95.8-.217.007-.14.007-1.397.007v-2.425h.001v-1.799h-7.26c2.205-1.047 2.466-3.015 2.527-3.947h1.93v1.855c-.015.226-.097 1.607 1.357 1.523l.006.006h3.786v3.98zm0-7.364v1.548h-3.038c-.242-.016-.285-.217-.287-.325l-.001-.004v-1.219h3.326m19.088-6.05h-1.796s-.176 5.635 3.112 7.479l.012-2.34c-.735-1.361-1.195-2.066-1.328-5.14m1.094 9.6v-1.828h-7.414l.002-.575c2.84-2.073 2.682-7.196 2.682-7.196h-1.793c-.132 3.074-.594 3.779-1.33 5.14l.003 1.175c-.282.05-.525.082-.721.115v-5.238h-2.9c.327-.52.54-1.273.527-1.469h-1.998s-.251.989-.604 1.469h-1.871v6.081c-.441.039-.951.08-.951.08v1.829c.486-.02.729-.08.966-.101.082 1.978-.303 3.875-.93 4.777l.012 2.346c2.726-1.093 2.667-6.26 2.664-7.296.289-.032.652-.077.828-.09v4.198h1.651v-4.4c.125-.017.355-.048.838-.109v4.876c0 .109.075.893-.787.934h-1.305l-.002 1.701h2.247c1.73-.007 1.594-1.852 1.615-2.227l-.001-.018-.003-5.508c.223-.031.58-.059.98-.135v7.72h.004v.158h7.594v-1.828h-.003v-4.58zm-10.333-2.922c-.535.061-.736.087-.847.11v-2.98h-1.64v3.174c-.268.041-.47.084-.836.101v-4.443h3.323v4.038zm4.754 2.557h3.569v5.331h-3.569v-5.331z" transform="translate(.75)"/>
        <path fill="#FFF" d="M24.863 0.863L47.997 0.863 47.997 26.666 24.863 26.666z" transform="translate(.75)"/>
        <path fill="#005396" d="M36.43 5.693c-4.82 0-8.188 3.303-8.188 8.053 0 4.836 3.291 8.09 8.188 8.09s8.189-3.254 8.189-8.09c0-4.75-3.37-8.053-8.189-8.053zm0 1.807c2.362 0 3.418 1.925 3.418 6.246 0 4.333-1.056 6.27-3.418 6.27-2.364 0-3.418-1.937-3.418-6.27 0-4.32 1.054-6.246 3.418-6.246z" transform="translate(.75)"/>
        <path fill="#FFF" d="M60.677 6.785h-7.52v1.597h1.797v10.7c-1.548 0-1.021-.002-1.8-.002l.003 1.629h14.476V15.31h-1.417l-.042.364c-.35 3.032-2.72 3.388-4.647 3.388 0 0-2.035.02-2.606.02v-10.7c.035 0 .267-.003 1.771.015V6.785h-.015m-39.764 0H15.87l-3.478 8.378-3.17-8.378H3.406V8.4h1.795v10.685H3.407v1.616h4.768v-1.616H6.818v-7.502l3.71 9.44h1.34s2.66-6.495 3.912-9.546v7.608h-1.29v1.616h6.963v-1.616h-1.796V8.4h1.796V6.785h-.54" transform="translate(.75)"/>
    </g>
</svg>
