<svg xmlns="http://www.w3.org/2000/svg" width="165" height="30" viewBox="0 0 165 30">
    <g fill="none" fill-rule="evenodd">
        <path fill="#123B63" d="M10.798 2.949l.109.203 9.539 18.642c1.37 2.679.289 5.897-2.398 7.264l-.205.099c-2.765 1.272-6.132.183-7.6-2.417l-.11-.203L.594 7.895C-.776 5.216.305 1.997 2.992.63l.205-.1c2.765-1.27 6.132-.182 7.6 2.418zM69.05 1.41c2.42 0 4.455.78 5.837 2.105l.185.184c1.217 1.272 1.87 2.985 1.938 4.911l.006.342c0 2.133-.75 4.086-2.155 5.432-1.362 1.305-3.212 2.12-5.47 2.195l-.341.005c-2.147 0-3.938-.56-5.275-1.606l-.231-.19c-1.521-1.307-2.38-3.186-2.455-5.346l-.006-.31c0-2.069.72-3.935 2.016-5.31l.21-.212c1.34-1.304 3.188-2.12 5.405-2.195l.336-.005zm56.447 0c1.88 0 3.21.293 4.389.66l.25.08-.047 2.784c-1.168-.58-2.436-.97-3.84-1.026l-.354-.007c-4.007 0-5.598 2.273-5.668 4.806l-.002.178c0 2.777 1.846 5.108 4.91 5.225l.244.005c.792 0 1.528-.107 2.077-.288l.196-.071V8.796h3.21v6.33c-1.616.83-3.749 1.46-6.303 1.46-4.8 0-7.71-3.194-7.822-7.232l-.004-.244c0-4.23 3.364-7.573 8.473-7.696l.29-.003zm-80.671.18l3.14 7.856c.331.804.63 1.593.898 2.314l.156.424h.047c.22-.692.51-1.418.854-2.233l.177-.415L53.59 1.59h3.28l-6.842 14.883h-2.39L41.313 1.59h3.515zm39.897-.023l2.343 4.13c.312.524.674 1.188.975 1.785l.173.348h.047c.262-.539.585-1.15.883-1.694l.218-.394 2.367-4.175h3.35l-5.342 8.979v5.814h-3.21V10.5l-5.342-8.933h3.538zm21.11-.067l6.303 14.86h-3.445l-1.5-3.614h-5.248l-1.43 3.614h-3.162l6.045-14.86h2.437zm40.797.067l-.843 2.514h-4.897v3.457h4.92v2.536h-4.92v3.772h5.717v2.514h-8.927V1.568h8.95zm10.965 0c4.025 0 5.55 1.86 5.62 4.08l.003.162c0 1.854-1.274 3.128-2.64 3.763l-.172.076v.022c.774.427 2.273 2.919 4.593 6.69h-3.655c-2.278-3.732-3.227-5.406-3.795-5.682l-.048-.02h-1.195v5.702h-3.21V1.568h4.499zM69.05 3.925c-2.6 0-4.51 1.764-4.612 4.836l-.004.26c0 3.144 1.84 4.993 4.4 5.09l.216.005c2.553 0 4.463-1.764 4.564-4.837l.005-.259c0-3.187-1.898-5.095-4.57-5.095zm35.54 1.66h-.022c-.08.424-.247.93-.456 1.49l-.107.284-1.148 2.918h3.35l-1.054-2.873c-.225-.648-.415-1.193-.522-1.635l-.04-.183zm53.075-1.458h-1.359v4.287h1.359c1.302 0 2.282-.907 2.361-2.109l.006-.158c0-1.095-.772-1.944-2.172-2.015l-.195-.005z"/>
        <path fill="#C0BEBD" d="M68.98 21.301c1.385 0 2.534.418 3.336 1.15l.156.15c.699.717 1.061 1.678 1.11 2.76l.005.251c0 1.197-.403 2.316-1.209 3.088-.777.757-1.835 1.233-3.12 1.294L68.98 30c-1.248 0-2.263-.31-3.037-.89l-.174-.14c-.852-.732-1.342-1.779-1.403-2.972l-.007-.257c0-1.165.398-2.218 1.128-3.013l.161-.166c.753-.733 1.798-1.196 3.058-1.255l.274-.006zm-17.233.09l1.572 4.736c.09.27.159.526.232.805l.077.288h.04c.063-.248.137-.497.216-.738l.12-.355 1.115-3.217-.578-1.519h2.028l1.653 4.581c.12.328.234.627.329.93l.087.305h.04c.071-.308.134-.588.218-.893l.091-.316 1.424-4.607h2.082l-3.009 8.544h-1.773l-1.276-3.32c-.118-.308-.245-.634-.332-.93l-.057-.215h-.04c-.065.299-.181.622-.287.91l-.076.21-1.263 3.345h-1.706l-3.224-8.544h2.297zm54.265 0l1.572 4.736c.09.27.158.526.232.805l.077.288h.04c.063-.248.137-.497.216-.738l.12-.355 1.115-3.217-.578-1.519h2.028l1.653 4.581c.12.328.234.627.328.93l.088.305h.04c.07-.308.134-.588.218-.893l.091-.316 1.424-4.607h2.082l-3.009 8.544h-1.773l-1.276-3.32c-.118-.308-.245-.634-.332-.93l-.057-.215h-.04c-.065.299-.181.622-.287.91l-.076.21-1.263 3.345h-1.706l-3.224-8.544h2.297zm-26.743 0c2.348 0 3.23 1.068 3.288 2.334l.003.137c0 1.017-.702 1.738-1.434 2.11l-.137.065v.012c.483.27 1.303 1.66 2.606 3.822H81.27c-1.28-2.131-1.764-2.998-2.062-3.162l-.034-.016h-.618v3.178h-2.055v-8.48h2.767zm8.92 0v6.885h3.05v1.595h-5.092v-8.48h2.042zm8.839 0c3.014 0 4.85 1.506 4.952 3.951l.004.219c0 2.604-2.06 4.221-4.93 4.307l-.241.003h-2.982v-8.48h3.197zm24.325 0v8.48h-2.055v-8.48h2.055zm6.447 0c3.015 0 4.85 1.506 4.953 3.951l.004.219c0 2.604-2.06 4.221-4.93 4.307l-.241.003h-2.983v-8.48h3.197zm13.191 0l-.497 1.583h-2.767v1.776h2.78v1.595h-2.78v1.943h3.237v1.583h-5.292v-8.48h5.319zm-72.025 1.48c-1.343 0-2.388.928-2.467 2.59l-.004.202c0 1.72.993 2.714 2.312 2.788l.16.005c1.317 0 2.361-.928 2.44-2.59l.004-.203c0-1.788-1.075-2.792-2.445-2.792zm27.86.129h-.94v5.276h.98c1.982 0 2.84-1.173 2.899-2.503l.003-.148c0-1.586-.959-2.552-2.733-2.621L96.826 23zm30.773 0h-.94v5.276h.98c1.982 0 2.84-1.173 2.898-2.503l.004-.148c0-1.586-.96-2.552-2.734-2.621L127.6 23zm-48.276 0h-.766v2.29h.753c.667 0 1.17-.452 1.23-1.081l.005-.128c0-.577-.42-1.019-1.078-1.075L79.323 23z"/>
        <path fill="#FCBF00" d="M30.934 5.863c0 3.238-2.59 5.863-5.783 5.863-3.195 0-5.784-2.625-5.784-5.863 0-3.238 2.59-5.863 5.784-5.863 3.193 0 5.783 2.625 5.783 5.863"/>
    </g>
</svg>
