<svg xmlns="http://www.w3.org/2000/svg" width="337" height="97" viewBox="0 0 337 97">
    <path fill="#123B63" d="M40.78 91.245L41.805 97h271.81l1.024-5.755H40.78zM.118 50.223c11.871 18.61 32.77 25.669 39.702 37.735h275.777c3.096-5.387 8.391-10.126 15.577-14.307 3.31-3.256 4.91-6.511 4.944-9.77h-272c-2.043 0-17.13-.777-21.326-12.078zm303.052-35.118v1.541h-2.842v4.52h2.842v8.015h-28.143v5.342h-4.573v9.04h4.573v18.084h8.834v-4.524h20.263v4.524h25.515V56.48l-16.68-2.98v-9.937h4.569v-9.04h-4.57V29.18h-8.765v-8.015h2.838v-4.52h-2.838v-1.54h-1.023zm-120.33 41.078v5.464h14.569v-5.464h-14.569zm-51.574 0v5.464h14.565v-5.464h-14.565zm17.19 0v5.464h14.568v-5.464h-14.569zm17.192 0v5.464h14.565v-5.464h-14.565zm85.959 0v5.464h16.289v-5.464h-16.29zm-151.535 0v5.464h28.567v-5.464H100.07zm134.342 0v5.464h14.569v-5.464h-14.569zm-34.385 0v5.464h14.569v-5.464h-14.569zm17.193 0v5.464h14.568v-5.464h-14.568zM10.14 53.038c.99 0 1.793.804 1.793 1.798 0 .995-.802 1.799-1.793 1.799-.987 0-1.793-.804-1.793-1.799 0-.994.806-1.798 1.793-1.798zm241.465-3.636v4.145h16.289v-4.145h-16.29zm-144.988 0v4.145h22.02v-4.145h-22.02zm76.221 0v4.145h14.569v-4.145h-14.569zm51.574 0v4.145h14.569v-4.145h-14.569zm-17.192 0v4.145h14.568v-4.145h-14.568zm-51.574 0v4.145h14.565v-4.145h-14.565zm-34.382 0v4.145h14.565v-4.145h-14.565zm17.19 0v4.145h14.568v-4.145h-14.569zm51.573 0v4.145h14.569v-4.145h-14.569zm-51.574-6.781v4.146h14.569v-4.146h-14.569zm103.152 0v4.146h16.289v-4.146h-16.29zm-68.767 0v4.146h14.569v-4.146h-14.569zm51.574 0v4.146h14.569v-4.146h-14.569zm-103.148 0v4.146h14.565v-4.146h-14.565zm68.763 0v4.146h14.569v-4.146h-14.569zm-34.381 0v4.146h14.565v-4.146h-14.565zm51.574 0v4.146h14.568v-4.146h-14.568zm56.201-5.735h4.301V41.2h-4.3v-4.314zm14.736 0h4.3V41.2h-4.3v-4.314zm7.367 0h4.297V41.2h-4.297v-4.314zm14.736 0h4.297V41.2h-4.297v-4.314zm-7.368 0h4.297V41.2h-4.297v-4.314zm-22.103 0h4.297V41.2h-4.297v-4.314zm-80.762-.95v4.05h14.569v-4.05h-14.569zm-17.189 0v4.05h14.569v-4.05h-14.569zm-17.192 0v4.05h14.565v-4.05h-14.565zm-17.193 0v4.05h14.569v-4.05h-14.569zm103.152 0v4.05h16.289v-4.05h-16.29zm-34.385 0v4.05h14.568v-4.05h-14.568zm17.192 0v4.05h14.569v-4.05h-14.569zM190.428 0v30.493h-.613v-23.3h-1.637v23.3h-6.202v4.146h16.288v-4.146h-6.199V0h-1.637z"/>
</svg>
