<svg xmlns="http://www.w3.org/2000/svg" width="736" height="292" viewBox="0 0 736 292">
    <defs>
        <linearGradient id="prefix__a" x1="50%" x2="50%" y1="100%" y2="55.486%">
            <stop offset="0%" stop-color="#FFF"/>
            <stop offset="100%" stop-color="#E7EBEF"/>
        </linearGradient>
    </defs>
    <path fill="url(#prefix__a)" fill-rule="evenodd" d="M0 589.338L17.386 587.96 17.386 579.845 55.957 579.845 55.957 586.615 63.676 586.605 63.677 518.899 95.194 518.916 95.575 526.923 95.823 532.755 100.145 537.063 103.503 540.764 103.501 566.191 108.502 564.461 109.297 562.121 110.366 498.882 110.383 476.2 147.929 475.207 148.364 483.74 148.793 517.955 149.365 526.163 151.119 528.219 152.906 530.447 152.867 544.795 152.866 553.806 157.47 549.302 158.288 512.337 158.476 509.733 168.371 509.742 168.371 498.211 192.523 497.089 192.523 552.316 204.033 552.274 205.994 562.088 213.671 561.199 213.671 513.679 242.327 513.691 242.327 524.839 255.792 524.264 255.792 469.351 291.535 469.351 293.564 519.01 296.501 519.765 298.428 546.181 300.406 546.322 304.01 542.597 303.678 519.998 303.678 517.21 312.027 517.014 312.027 441.764 320.991 436.531 320.97 392.02 325.733 392.282 328.183 390.106 328.64 379.66 330.717 377.39 334.528 373.077 334.14 362.875 334.135 359.885 334.754 359.861 336.229 372.935 339.705 377.201 343.79 382.039 343.961 389.33 347.257 392.506 350.188 392.495 350.705 397.57 352.726 443.962 355.511 447.124 360.942 453.104 363.37 496.556 364.006 499.759 371.23 499.506 371.933 492.514 372.37 486.333 389.147 486.162 389.147 473.162 415.654 473.162 415.654 501.59 431.066 501.59 431.066 575.84 441.52 575.84 441.52 529.128 442.768 528.698 445.185 525.745 449.877 521.08 454.704 520.701 455.443 527.872 462.964 528.975 465.274 582.995 472.426 581.281 472.893 572.901 474.073 571.286 486.591 570.636 487.78 582.94 491.221 586.234 492.301 586.431 493.274 599.971 499.889 598.712 500.89 596.622 500.938 585.41 508.183 584.365 508.183 567.426 513.532 566.539 514.22 560.929 539.817 560.929 539.817 596.321 556.969 595.547 556.969 584.838 568.132 584.852 568.132 578.082 598.75 578.082 598.75 586.197 616.356 587.574 616.356 617.853 632.684 617.853 632.684 601.024 668.28 600.377 670.096 600.376 671.025 596.24 685.433 596.694 685.433 623.024 699.801 622.043 699.801 611.468 735.744 612.095 735.744 626.686 736 626.582 736 650.861 0 649.039z" transform="translate(0 -359)"/>
</svg>
