<svg xmlns="http://www.w3.org/2000/svg" width="62" height="63" viewBox="0 0 62 63">
    <g fill="none" fill-rule="evenodd" transform="translate(1 1)">
        <circle cx="30" cy="30" r="30" fill="#E7EBEF"/>
        <path stroke="#123B63" stroke-width="2" d="M30 26V0c12.405-.005 23.534 7.626 28 19.2l-24.3 9.4"/>
        <circle cx="30" cy="30" r="4" stroke="#123B63" stroke-linecap="round" stroke-linejoin="round" stroke-width="2"/>
        <path stroke="#123B63" stroke-width="2" d="M46 31.2c-.604 7.573-6.451 13.677-13.992 14.607-7.54.93-14.694-3.572-17.12-10.772S15.434 19.923 22 16.1m37.9 11.4c.067.867.1 1.7.1 2.5.007 15.526-11.833 28.492-27.295 29.891-15.463 1.4-29.439-9.229-32.22-24.503C-2.295 20.113 7.037 5.24 22 1.1"/>
    </g>
</svg>
