<svg xmlns="http://www.w3.org/2000/svg" width="50" height="63" viewBox="0 0 50 63">
    <g fill="none" fill-rule="evenodd">
        <path fill="#E7EBEF" fill-rule="nonzero" d="M19.9 0h8v12H36c1.05 0 1.9.85 1.9 1.9v12.6l-14-2.5 18.8 3.4c-.97 9.148-3.261 18.108-6.8 26.6 0 3.314-2.686 6-6 6s-6-2.686-6-6c0 3.314-2.686 6-6 6s-6-2.686-6-6C8.327 45.513 6.003 36.553 5 27.4L23.9 24l-14 2.5V13.9c0-1.05.85-1.9 1.9-1.9h8.1V0z" transform="translate(1 1)"/>
        <path stroke="#123B63" stroke-width="2" d="M20 12L20 0 28 0 28 12M10 26.542V13.91c0-1.055.855-1.91 1.91-1.91h24.182c.507 0 .992.201 1.35.56.358.358.559.844.558 1.35v12.633" transform="translate(1 1)"/>
        <path stroke="#123B63" stroke-width="2" d="M2 27.998L24 24l22 3.998m-28-9.999h12m-24.863 9.43c1.067 9.476 3.372 18.77 6.855 27.647m30.856-27.647c-1.067 9.476-3.372 18.77-6.856 27.647M24 24v29.994" transform="translate(1 1)"/>
        <path stroke="#123B63" stroke-width="2" d="M0 53.994c-.014 2.142 1.115 4.13 2.963 5.213 1.848 1.084 4.133 1.1 5.996.041 1.862-1.058 3.019-3.03 3.033-5.172.023 3.311 2.726 5.978 6.037 5.955 3.312-.023 5.978-2.726 5.955-6.037m.016 0c-.022 3.311 2.644 6.014 5.955 6.037 3.312.023 6.015-2.644 6.037-5.955.023 3.311 2.726 5.978 6.037 5.955 3.312-.023 5.978-2.726 5.955-6.037" transform="translate(1 1)"/>
    </g>
</svg>
